<?xml version="1.0" standalone="no"?>
<!DOCTYPE svg PUBLIC "-//W3C//DTD SVG 1.1//EN" "http://www.w3.org/Graphics/SVG/1.1/DTD/svg11.dtd" >
<svg xmlns="http://www.w3.org/2000/svg">
<metadata></metadata>
<defs>
<font id="gt_walsheimregular" horiz-adv-x="1187" >
<font-face units-per-em="2048" ascent="1638" descent="-410" />
<missing-glyph horiz-adv-x="512" />
<glyph unicode=" "  horiz-adv-x="512" />
<glyph unicode="&#x09;" horiz-adv-x="512" />
<glyph unicode="&#xa0;" horiz-adv-x="512" />
<glyph unicode="!" horiz-adv-x="632" d="M143 139q0 35 13.5 67t37 55.5t54.5 36.5t67 13q37 0 69 -13t55.5 -36.5t36.5 -55.5t13 -67t-13 -66.5t-36.5 -55t-55.5 -38t-69 -14.5t-67.5 14.5t-54 38t-37 55t-13.5 66.5zM195 457v977h243v-977h-243z" />
<glyph unicode="&#x22;" horiz-adv-x="796" d="M123 1264v204h211v-204l-53 -310h-105zM463 1264v204h211v-204l-53 -310h-105z" />
<glyph unicode="#" horiz-adv-x="1124" d="M59 418v172h207l35 254h-180v172h205l57 418h182l-57 -418h209l57 418h182l-57 -418h168v-172h-193l-34 -254h166v-172h-191l-59 -418h-181l58 418h-209l-59 -418h-181l58 418h-183zM449 590h208l35 254h-209z" />
<glyph unicode="$" horiz-adv-x="1314" d="M166 469h235q0 -141 78 -217t201 -76q49 0 92 15.5t75 44t50 68.5t18 89q0 55 -21.5 92t-55 61.5t-73.5 41t-77 28.5q-98 35 -184 71t-150.5 86t-101.5 122t-37 180q0 76 26.5 139.5t72.5 112.5t108.5 82t134.5 47v223h209v-221q76 -16 139.5 -54t110.5 -95.5t73.5 -130 t26.5 -158.5h-235q0 106 -60.5 171.5t-154.5 65.5q-88 0 -151.5 -45t-63.5 -137q0 -43 17 -76.5t47 -58.5t66.5 -43t77.5 -33q84 -31 171.5 -64.5t159 -83.5t116.5 -122t45 -174q0 -96 -29.5 -173t-82 -133.5t-122 -91t-151.5 -49.5v-219h-209v221q-82 14 -152.5 54.5 t-124 103t-84 147.5t-30.5 189z" />
<glyph unicode="%" horiz-adv-x="1945" d="M166 909v260q0 57 20.5 107.5t59.5 89.5t94 61.5t125 22.5t125 -22.5t94 -61.5t60.5 -89t21.5 -108v-260q0 -57 -21.5 -108t-60.5 -89t-94 -60.5t-125 -22.5t-125 22.5t-94 60.5t-59.5 89t-20.5 108zM346 909q0 -53 33 -91t86 -38q55 0 88 38t33 91v260q0 53 -33 91 t-88 38q-53 0 -86 -37.5t-33 -91.5v-260zM420 -2l895 1542l178 -102l-895 -1542zM1178 264v260q0 57 20.5 107.5t59 89.5t94 61.5t125.5 22.5t125 -22.5t94 -61.5t60.5 -89t21.5 -108v-260q0 -57 -21.5 -108.5t-60.5 -89t-94.5 -60t-124.5 -22.5q-70 0 -125.5 22.5t-94 60 t-59 89t-20.5 108.5zM1358 264q0 -53 32.5 -91t86.5 -38q55 0 87.5 38t32.5 91v260q0 53 -32.5 91t-87.5 38q-53 0 -86 -37.5t-33 -91.5v-260z" />
<glyph unicode="&#x26;" horiz-adv-x="1226" d="M90 430q0 61 17.5 108.5t48 85.5t72.5 68.5t91 57.5q-88 49 -141 117.5t-53 197.5q0 88 37 160.5t98.5 125t143 80t171.5 27.5q98 0 180.5 -32.5t142.5 -92t94 -141.5t34 -182h-235q0 106 -51.5 171.5t-174.5 65.5q-90 0 -147.5 -45t-57.5 -137q0 -43 10.5 -82t37 -66.5 t72.5 -44t120 -16.5v-209q-152 0 -213 -68.5t-61 -175.5q0 -41 17 -79.5t50 -69.5t81 -49.5t108 -18.5q49 0 95 19.5t82 56.5t58.5 91.5t22.5 123.5h-148v209h492v-209h-109q0 -121 -42 -214t-111.5 -156.5t-157.5 -97.5t-182 -34q-92 0 -180.5 31t-158 89.5t-111.5 142.5 t-42 192z" />
<glyph unicode="'" horiz-adv-x="456" d="M123 1264v204h211v-204l-53 -310h-105z" />
<glyph unicode="(" horiz-adv-x="798" d="M215 0v1124q0 100 36 191.5t101.5 161t157.5 109.5t207 40v-211q-61 0 -110.5 -23.5t-84.5 -63.5t-53 -92t-18 -112v-1124q0 -59 18 -111.5t53 -92.5t84 -63.5t111 -23.5v-211q-115 0 -207 40t-157.5 109.5t-101.5 160t-36 192.5z" />
<glyph unicode=")" horiz-adv-x="798" d="M82 -291q61 0 110.5 23.5t84 63.5t53 92.5t18.5 111.5v1124q0 59 -18.5 111.5t-53 92.5t-84 63.5t-110.5 23.5v211q113 0 206 -40t158.5 -109.5t101.5 -160.5t36 -192v-1124q0 -102 -36 -192.5t-101.5 -160t-158.5 -109.5t-206 -40v211z" />
<glyph unicode="*" horiz-adv-x="946" d="M82 1133l45 135l279 -94l-3 294h144l-6 -294l278 94l45 -135l-282 -89l178 -235l-117 -84l-170 242l-170 -242l-117 84l179 235z" />
<glyph unicode="+" d="M180 483v199h301v315h224v-315h303v-199h-303v-313h-224v313h-301z" />
<glyph unicode="," horiz-adv-x="595" d="M123 152q0 70 48 117.5t116 47.5q84 0 135 -58t51 -153q0 -94 -23.5 -159.5t-67.5 -106.5t-107.5 -59.5t-143.5 -18.5v105q53 0 89 11t61 30q23 20 34 43.5t15 48.5q-4 -4 -16.5 -8t-26.5 -4q-76 0 -120 48t-44 116z" />
<glyph unicode="-" horiz-adv-x="602" d="M61 483v199h480v-199h-480z" />
<glyph unicode="." horiz-adv-x="575" d="M123 152q0 70 48 117.5t116 47.5q70 0 118 -48t48 -117q0 -68 -48.5 -116t-117.5 -48q-68 0 -116 48t-48 116z" />
<glyph unicode="/" horiz-adv-x="927" d="M-2 -53l745 1732l205 -88l-745 -1732z" />
<glyph unicode="0" d="M90 477v479q0 100 36 191.5t101.5 161t157.5 109.5t207 40t208 -40t159.5 -109.5t102.5 -160.5t36 -192v-479q0 -102 -36 -192t-102.5 -160t-159.5 -110t-208 -40t-207 40t-157.5 110t-101.5 160t-36 192zM326 477q0 -59 18 -111.5t53 -92.5t84 -63.5t111 -23.5 q61 0 111.5 23.5t85 63.5t54 92.5t19.5 111.5v479q0 59 -19.5 111.5t-54 92.5t-85 63.5t-111.5 23.5t-110.5 -23.5t-84.5 -63.5t-53 -92t-18 -112v-479z" />
<glyph unicode="1" horiz-adv-x="749" d="M61 1010v186q98 0 160 13.5t96.5 41t47 72.5t12.5 111h223v-1434h-244v1010h-295z" />
<glyph unicode="2" horiz-adv-x="1079" d="M96 0q0 170 29 284.5t80 194.5t121.5 135.5t152.5 108.5q47 29 97.5 59.5t91.5 68.5t67.5 86t26.5 114q0 104 -59.5 150t-147.5 46q-92 0 -157.5 -56t-65.5 -181h-236q0 109 38 192.5t102.5 140t147.5 86t173 29.5q92 0 173 -26.5t140.5 -81t93 -135t33.5 -187.5 q0 -98 -47 -176t-110.5 -136.5t-128 -99.5t-99.5 -65q-78 -55 -126 -96t-74.5 -78t-35.5 -76t-9 -90h622v-211h-893z" />
<glyph unicode="3" horiz-adv-x="1165" d="M68 479h235q0 -70 21.5 -124t58.5 -92t87 -57.5t108 -19.5q55 0 100 18.5t75.5 49.5t47 72t16.5 84q0 51 -13 94t-43 74.5t-79 50t-123 18.5h-96v209h98q127 0 174 58.5t47 150.5t-56 137t-146 45q-127 0 -177.5 -65.5t-50.5 -171.5h-235q0 100 32.5 182t92 141.5 t141.5 92t180 32.5q92 0 175 -27.5t144.5 -80t98.5 -125t37 -160.5q0 -123 -54.5 -201t-140.5 -114q98 -39 164 -120t66 -218q0 -98 -39 -178t-104.5 -137.5t-154.5 -89.5t-188 -32q-98 0 -188 34t-158.5 98.5t-110.5 157.5t-42 214z" />
<glyph unicode="4" horiz-adv-x="1144" d="M133 430v1004h236v-793h286v430h236v-430h196v-211h-196v-430h-236v430h-522z" />
<glyph unicode="5" horiz-adv-x="1241" d="M131 477h236q0 -59 18 -111.5t53 -92.5t84 -63.5t111 -23.5q61 0 111.5 23.5t86 63.5t54 92.5t18.5 111.5t-18.5 111.5t-54 92.5t-86 63.5t-111.5 23.5q-78 0 -139.5 -38t-102.5 -120h-235v824h870v-211h-659v-398q23 41 59.5 70t79.5 47.5t87 26.5t81 8q115 0 202 -40 t145 -108.5t88 -159.5t30 -192q0 -102 -36 -192t-102.5 -160t-159.5 -110t-208 -40t-207 40t-157.5 110t-101.5 160t-36 192z" />
<glyph unicode="6" horiz-adv-x="1165" d="M76 477q0 82 24.5 157t65.5 140l412 660h270l-301 -457q10 2 31 2q115 0 208 -40t159.5 -109.5t102 -160.5t35.5 -192q0 -102 -35.5 -192t-102 -160t-159.5 -110t-208 -40t-207 40t-158 110t-101.5 160t-35.5 192zM311 477q0 -59 18.5 -111.5t53.5 -92.5t84.5 -63.5 t110.5 -23.5t111 23.5t85 63.5t54.5 92.5t19.5 111.5t-19.5 111.5t-54.5 92.5t-85 63.5t-111 23.5t-110.5 -23.5t-84.5 -63.5t-53.5 -92t-18.5 -112z" />
<glyph unicode="7" horiz-adv-x="980" d="M78 1223v211h913l-610 -1434h-250l528 1223h-581z" />
<glyph unicode="8" horiz-adv-x="1206" d="M113 414q0 51 12 103t37.5 98.5t64.5 83t95 55.5q-96 43 -135.5 127t-39.5 170q0 82 31 156.5t90.5 130t143.5 88t192 32.5q106 0 191.5 -32.5t143.5 -89t89 -130t31 -155.5q0 -86 -39 -170t-135 -127q55 -18 94 -55t64.5 -84.5t38 -99.5t12.5 -101q0 -86 -34 -165 t-96.5 -140.5t-153.5 -97.5t-206 -36t-206 35t-154.5 95.5t-97 139.5t-33.5 169zM348 414q0 -47 17.5 -88t50.5 -72t81 -49.5t107 -18.5t106.5 18.5t80 50.5t50 73t17.5 86q0 43 -16.5 85t-49 73.5t-79.5 51t-109 19.5q-61 0 -109.5 -18.5t-81 -50t-49 -73.5t-16.5 -87z M383 1040q0 -43 15.5 -80.5t43 -66.5t68.5 -45.5t94 -16.5q51 0 92 17.5t69 46.5t43 66.5t15 78.5t-15 78t-43 65.5t-69 46t-92 17.5q-53 0 -94 -16.5t-68.5 -45t-43 -66.5t-15.5 -79z" />
<glyph unicode="9" horiz-adv-x="1165" d="M82 956q0 100 36 191.5t101.5 161t159.5 109.5t209 40q113 0 206 -40t158.5 -109.5t101.5 -160.5t36 -192q0 -84 -26 -157.5t-67 -139.5l-409 -659h-271l301 455q-123 0 -221 37.5t-168.5 104.5t-108.5 159t-38 200zM317 956q0 -59 19.5 -111t54.5 -92t85 -63.5 t112 -23.5q61 0 110.5 23.5t84 63.5t53 92t18.5 111t-18.5 111.5t-53 92.5t-84 63.5t-110.5 23.5t-111.5 -23.5t-85.5 -63.5t-54.5 -92t-19.5 -112z" />
<glyph unicode=":" horiz-adv-x="575" d="M123 152q0 70 48 117.5t116 47.5q70 0 118 -48t48 -117q0 -68 -48.5 -116t-117.5 -48q-68 0 -116 48t-48 116zM123 825q0 70 48 118t116 48q70 0 118 -48t48 -118q0 -68 -48.5 -115.5t-117.5 -47.5q-68 0 -116 47.5t-48 115.5z" />
<glyph unicode=";" horiz-adv-x="595" d="M123 152q0 70 48 117.5t116 47.5q84 0 135 -58t51 -153q0 -94 -23.5 -159.5t-67.5 -106.5t-107.5 -59.5t-143.5 -18.5v105q53 0 89 11t61 30q23 20 34 43.5t15 48.5q-4 -4 -16.5 -8t-26.5 -4q-76 0 -120 48t-44 116zM123 825q0 70 48 118t116 48q70 0 118 -48t48 -118 q0 -68 -48.5 -115.5t-117.5 -47.5q-68 0 -116 47.5t-48 115.5z" />
<glyph unicode="&#x3c;" d="M76 502v157l1038 361v-211l-708 -227l708 -230v-211z" />
<glyph unicode="=" d="M180 322v198h828v-198h-828zM180 641v199h828v-199h-828z" />
<glyph unicode="&#x3e;" d="M74 141v211l708 230l-708 227v211l1038 -361v-157z" />
<glyph unicode="?" horiz-adv-x="1046" d="M49 1010q0 109 37 192.5t98.5 140t143.5 86t172 29.5q92 0 174 -28.5t143.5 -81t97 -127t35.5 -166.5q0 -72 -22.5 -128.5t-56 -100.5t-71.5 -76.5t-67 -57.5q-51 -41 -80.5 -70.5t-45 -61.5t-20.5 -73t-5 -102h-226q0 68 6.5 123t23.5 102t48 89t82 79q31 23 65.5 50.5 t64.5 61.5t49.5 75t19.5 90q0 98 -60.5 145t-154.5 47q-43 0 -82 -13t-69 -43t-47 -75t-17 -106h-236zM297 139q0 35 13.5 67t37 55.5t54 36.5t67.5 13t68.5 -13t55 -36.5t37 -55.5t13.5 -67t-13.5 -66.5t-37 -55t-55 -38t-68.5 -14.5t-67.5 14.5t-54 38t-37 55t-13.5 66.5z " />
<glyph unicode="@" horiz-adv-x="1697" d="M41 422q0 193 64.5 348.5t173 263t252 165.5t303.5 58q195 0 355.5 -50t276 -143t179 -226t63.5 -299q0 -160 -24.5 -274.5t-71.5 -187.5t-114.5 -106.5t-156.5 -33.5q-109 0 -172 58t-92 136q-37 -59 -107.5 -94t-140.5 -35q-92 0 -167.5 34t-130 91t-84 134t-29.5 161 q0 86 29.5 161.5t84 134t130 92.5t167.5 34q70 0 140.5 -34t107.5 -95v108h187v-534q0 -92 26.5 -138.5t85.5 -46.5q27 0 52.5 18.5t46 67t33 132.5t12.5 217q0 125 -50.5 227t-141.5 174t-217 111t-277 39q-121 0 -231.5 -46.5t-193.5 -132.5t-132.5 -209.5t-49.5 -279.5 q0 -125 44 -244t132.5 -211t220.5 -148.5t308 -56.5q57 0 123.5 6.5t138.5 21.5t144.5 40t142.5 64l90 -146q-80 -45 -164 -74.5t-167 -47t-162 -25t-146 -7.5q-223 0 -390 71t-278.5 186.5t-167 264t-55.5 306.5zM606 422q0 -51 16.5 -97t47 -80t73 -54.5t95.5 -20.5 q55 0 99 20.5t74.5 54.5t48 80t17.5 97t-17.5 98t-48 81t-74.5 54.5t-99 20.5q-53 0 -95.5 -20.5t-73 -54.5t-47 -81t-16.5 -98z" />
<glyph unicode="A" horiz-adv-x="1169" d="M6 0l496 1434h166l495 -1434h-248l-61 182h-539l-61 -182h-248zM387 393h395l-196 649z" />
<glyph unicode="B" horiz-adv-x="1224" d="M150 0v1434h489q147 0 237.5 -43t140.5 -105.5t66.5 -133.5t16.5 -126q0 -74 -21.5 -127t-55.5 -89t-74 -56.5t-77 -28.5q31 -8 73 -27.5t79 -55.5t62.5 -91t25.5 -135q0 -55 -16.5 -128t-66.5 -136.5t-140 -107.5t-238 -44h-501zM385 211h266q72 0 116 21.5t68.5 53 t33 66.5t8.5 64q0 27 -9.5 62.5t-35 67.5t-68.5 53.5t-111 21.5h-268v-410zM385 831h254q72 0 116 20.5t68.5 50.5t32.5 63.5t8 60.5t-8 60.5t-32.5 64.5t-68.5 51.5t-116 20.5h-254v-392z" />
<glyph unicode="C" horiz-adv-x="1587" d="M78 719q0 145 50 280.5t145.5 239.5t229.5 166.5t304 62.5q160 0 283.5 -44t212 -118.5t140.5 -176t68 -218.5h-247q-12 74 -48 137.5t-90.5 109.5t-127 72.5t-160.5 26.5q-123 0 -220.5 -45t-163 -119.5t-100.5 -172t-35 -201.5q0 -111 36 -209t104.5 -173t170 -118 t232.5 -43q61 0 124 21.5t116 59.5t93 90t58 114h258q-25 -104 -84 -194.5t-147 -158t-202.5 -105.5t-246.5 -38q-176 0 -315 61.5t-236.5 165t-149.5 239.5t-52 288z" />
<glyph unicode="D" horiz-adv-x="1435" d="M150 0v1434h464q178 0 316.5 -61.5t234 -162t144.5 -229.5t49 -264t-49 -264t-144.5 -229.5t-233.5 -162t-317 -61.5h-464zM385 211h229q119 0 213.5 43t158 113.5t97 162t33.5 187.5t-33.5 187t-97 162t-158 114t-213.5 43h-229v-1012z" />
<glyph unicode="E" horiz-adv-x="1116" d="M150 0v1434h827v-211h-592v-406h592v-211h-592v-395h592v-211h-827z" />
<glyph unicode="F" horiz-adv-x="1101" d="M150 0v1434h827v-211h-592v-455h592v-211h-592v-557h-235z" />
<glyph unicode="G" horiz-adv-x="1716" d="M78 717q0 145 51 281.5t147.5 240.5t232.5 166.5t306 62.5q127 0 234.5 -36.5t188.5 -100t130 -148.5t57 -179h-237q-10 53 -41 99t-80 81t-113.5 54t-138.5 19q-115 0 -207 -45t-156.5 -119.5t-98.5 -173t-34 -202.5t33 -202.5t98.5 -173.5t164 -120t231.5 -45 q92 0 164.5 26.5t125 73t85 106.5t43.5 126h-275v211h682v-211h-158q-25 -121 -81 -220.5t-143 -171t-205.5 -111.5t-268.5 -40q-176 0 -313 62.5t-231.5 167t-143.5 240.5t-49 282z" />
<glyph unicode="H" horiz-adv-x="1361" d="M150 0v1434h235v-617h592v617h235v-1434h-235v606h-592v-606h-235z" />
<glyph unicode="I" horiz-adv-x="542" d="M150 0v1434h243v-1434h-243z" />
<glyph unicode="J" horiz-adv-x="1097" d="M25 467h235q0 -129 56.5 -210t172.5 -81q117 0 175.5 80t58.5 209v969h235v-969q0 -104 -30.5 -195.5t-91 -159t-147.5 -106.5t-200 -39q-111 0 -197.5 39t-146 107.5t-90 159.5t-30.5 196z" />
<glyph unicode="K" horiz-adv-x="1243" d="M150 0v1434h235v-631l533 631h294l-606 -717l606 -717h-294l-533 629v-629h-235z" />
<glyph unicode="L" horiz-adv-x="878" d="M150 0v1434h235v-1223h442v-211h-677z" />
<glyph unicode="M" horiz-adv-x="1665" d="M150 0v1434h225l459 -1067l456 1067h226v-1434h-236v887l-358 -887h-179l-358 887v-887h-235z" />
<glyph unicode="N" horiz-adv-x="1359" d="M150 0v1434h258l567 -1020v1020h235v-1434h-258l-567 1020v-1020h-235z" />
<glyph unicode="O" horiz-adv-x="1638" d="M78 717q0 145 51 281.5t146.5 240.5t233.5 166.5t310 62.5t310.5 -62.5t233.5 -166.5t146.5 -240.5t51.5 -281.5t-51.5 -281.5t-146.5 -241t-233.5 -167t-310.5 -62.5t-310 62.5t-233.5 167t-146.5 240.5t-51 282zM326 717q0 -104 33.5 -201.5t98 -173.5t155.5 -121 t206 -45t206 45t155.5 121t98.5 173t34 202q0 104 -34 201.5t-98.5 173t-155.5 120.5t-206 45t-206 -45t-155.5 -120.5t-98 -173t-33.5 -201.5z" />
<glyph unicode="P" horiz-adv-x="1220" d="M150 0v1434h514q115 0 208 -40t159.5 -110t102 -161t35.5 -191q0 -102 -35.5 -192.5t-102 -160t-160 -109.5t-207.5 -40h-279v-430h-235zM385 641h279q61 0 111 23.5t85 63.5t54.5 92t19.5 112q0 59 -19.5 111.5t-54.5 92.5t-85 63.5t-111 23.5h-279v-582z" />
<glyph unicode="Q" horiz-adv-x="1638" d="M78 717q0 145 51 281.5t146.5 240.5t233.5 166.5t310 62.5t310.5 -62.5t233.5 -166.5t146.5 -240.5t51.5 -281.5q0 -117 -33 -227.5t-95.5 -205t-153.5 -167t-206 -111.5l123 -172l-207 -104l-172 235q-172 0 -309 63.5t-232.5 168t-146.5 239.5t-51 281zM326 717 q0 -104 33.5 -201.5t98 -173.5t155.5 -121t206 -45t206 45t155.5 121t98.5 173t34 202q0 104 -34 201.5t-98.5 173t-155.5 120.5t-206 45t-206 -45t-155.5 -120.5t-98 -173t-33.5 -201.5z" />
<glyph unicode="R" horiz-adv-x="1247" d="M150 0v1434h514q115 0 208 -40t159.5 -110t102 -161t35.5 -191q0 -78 -20.5 -148.5t-60 -131t-96 -108.5t-126.5 -77l285 -467h-268l-262 430h-236v-430h-235zM385 641h279q61 0 111 23.5t85 63.5t54.5 92t19.5 112q0 59 -19.5 111.5t-54.5 92.5t-85 63.5t-111 23.5h-279 v-582z" />
<glyph unicode="S" horiz-adv-x="1165" d="M86 469h236q0 -141 77.5 -217t200.5 -76q49 0 92 15.5t75 43t50.5 66.5t18.5 88q0 55 -21.5 92t-55.5 62.5t-74 43t-77 29.5q-98 35 -184 71t-150.5 86t-101.5 122t-37 180q0 88 36 161t96.5 125t141 79.5t171.5 27.5q96 0 180 -32.5t145.5 -92t96 -141.5t34.5 -182h-235 q0 106 -57.5 171.5t-157.5 65.5q-88 0 -151.5 -45t-63.5 -137q0 -43 17.5 -76.5t47 -58.5t66.5 -43t78 -33q84 -31 171 -65.5t158.5 -85.5t116.5 -123t45 -174q0 -111 -39 -195t-106.5 -141t-156.5 -86t-189 -29q-98 0 -187.5 34t-157 98.5t-108.5 157.5t-41 214z" />
<glyph unicode="T" horiz-adv-x="987" d="M20 1223v211h947v-211h-357v-1223h-235v1223h-355z" />
<glyph unicode="U" horiz-adv-x="1310" d="M139 479v955h236v-955q0 -61 19.5 -116.5t56 -96.5t88 -65.5t114.5 -24.5t115.5 24.5t89.5 65.5t57.5 96.5t20.5 116.5v955h235v-955q0 -104 -36.5 -197.5t-104 -164t-163 -111.5t-214.5 -41q-117 0 -211 41t-161.5 111.5t-104.5 164t-37 197.5z" />
<glyph unicode="V" horiz-adv-x="1165" d="M4 1434h248l332 -1043l329 1043h248l-495 -1434h-166z" />
<glyph unicode="W" horiz-adv-x="2013" d="M10 1434h248l330 -1022l332 1022h174l331 -1022l330 1022h248l-496 -1434h-170l-329 1022l-332 -1022h-170z" />
<glyph unicode="X" horiz-adv-x="1150" d="M16 0l426 717l-426 717h267l292 -514l293 514h267l-426 -717l426 -717h-267l-293 512l-292 -512h-267z" />
<glyph unicode="Y" horiz-adv-x="1232" d="M23 1434h272l383 -617l307 617h258l-711 -1434h-258l285 573z" />
<glyph unicode="Z" horiz-adv-x="1181" d="M27 0l743 1223h-700v211h1091l-743 -1223h739v-211h-1130z" />
<glyph unicode="[" horiz-adv-x="727" d="M150 -479v2107h413v-198h-190v-1713h190v-196h-413z" />
<glyph unicode="\" horiz-adv-x="927" d="M-2 1591l205 88l745 -1732l-205 -88z" />
<glyph unicode="]" horiz-adv-x="727" d="M164 -283h190v1710h-190v199h414v-2105h-414v196z" />
<glyph unicode="^" horiz-adv-x="1327" d="M123 662l459 874h155l467 -874h-252l-290 591l-295 -591h-244z" />
<glyph unicode="_" horiz-adv-x="1146" d="M61 -102h1024v-154h-1024v154z" />
<glyph unicode="`" horiz-adv-x="1173" d="M244 1335l106 174l510 -280l-106 -174z" />
<glyph unicode="a" horiz-adv-x="1234" d="M78 477q0 100 36 191.5t100.5 161t154.5 109.5t198 40q84 0 167 -41t128 -113v129h223v-954h-223v129q-45 -72 -128 -113t-167 -41q-109 0 -198.5 40t-154 110t-100.5 160t-36 192zM301 477q0 -61 19.5 -116.5t56.5 -96.5t88.5 -65.5t114.5 -24.5t115.5 24.5t89 65.5 t57 96.5t20.5 116.5t-20.5 116.5t-57 96.5t-89 65.5t-115.5 24.5t-114.5 -24.5t-88.5 -65.5t-56.5 -96t-19.5 -117z" />
<glyph unicode="b" horiz-adv-x="1239" d="M150 0v1434h223v-609q45 72 128 113t167 41q109 0 198.5 -40t154 -109.5t100.5 -160.5t36 -192q0 -102 -36 -192t-100.5 -160t-154.5 -110t-198 -40q-84 0 -167 41t-128 113v-129h-223zM373 477q0 -61 19.5 -116.5t56 -96.5t88.5 -65.5t118 -24.5q63 0 114.5 24.5 t88.5 65.5t56.5 96.5t19.5 116.5t-19.5 116.5t-56.5 96.5t-88 65.5t-115 24.5q-66 0 -118 -24.5t-88.5 -65.5t-56 -96t-19.5 -117z" />
<glyph unicode="c" horiz-adv-x="1093" d="M82 477q0 96 30.5 187.5t91 161t148.5 111.5t205 42t200 -33t137 -85t82 -118.5t34 -136.5h-224q-10 78 -60 126t-165 48q-66 0 -113 -24.5t-79.5 -66.5t-48 -96t-15.5 -116q0 -61 15.5 -116.5t48 -96.5t84 -65.5t122.5 -24.5q98 0 144.5 41t68.5 113h224 q-12 -74 -45 -138.5t-89.5 -112.5t-135 -75t-183.5 -27q-117 0 -206 42t-149.5 112t-91 160t-30.5 188z" />
<glyph unicode="d" horiz-adv-x="1234" d="M78 477q0 100 36 191.5t100.5 161t154.5 109.5t198 40q84 0 167 -41t128 -113v609h223v-1434h-223v129q-45 -72 -128 -113t-167 -41q-109 0 -198.5 40t-154 110t-100.5 160t-36 192zM301 477q0 -61 19.5 -116.5t56.5 -96.5t88.5 -65.5t114.5 -24.5t115.5 24.5t89 65.5 t57 96.5t20.5 116.5t-20.5 116.5t-57 96.5t-89 65.5t-115.5 24.5t-114.5 -24.5t-88.5 -65.5t-56.5 -96t-19.5 -117z" />
<glyph unicode="e" horiz-adv-x="1087" d="M82 477q0 106 31.5 198.5t91 160t147.5 105.5t201 38q92 0 173 -33t141.5 -91t94 -136t33.5 -170q0 -25 -1 -58.5t-9 -80.5h-676q0 -51 14.5 -96.5t44 -79t77 -53t114.5 -19.5q47 0 81 10t57.5 26.5t39 40t25.5 48.5h225q-12 -61 -46 -117.5t-88 -99.5t-128 -69t-166 -26 q-121 0 -210 42t-148.5 112t-89 160t-29.5 188zM311 575h467q0 100 -64.5 159t-166.5 59q-98 0 -167 -55.5t-69 -162.5z" />
<glyph unicode="f" horiz-adv-x="735" d="M41 768v186h195v119q0 137 37.5 212t92 111t114 43t100.5 7q43 0 76.5 -7t52.5 -18v-188q-23 6 -47.5 10t-51.5 4t-53.5 -2t-48 -16.5t-35.5 -45t-14 -85.5v-144h250v-186h-250v-768h-223v768h-195z" />
<glyph unicode="g" horiz-adv-x="1228" d="M78 477q0 100 36 191.5t100.5 161t154.5 109.5t198 40q84 0 167 -41t128 -113v129h223v-1001q0 -121 -34.5 -207t-101 -141.5t-161 -81t-213.5 -25.5t-206.5 34t-147 89t-91.5 126t-36 144h225q8 -78 72 -136t184 -58q135 0 211 60.5t76 195.5v176q-45 -72 -128 -113 t-167 -41q-109 0 -198.5 40t-154 110t-100.5 160t-36 192zM301 477q0 -61 19.5 -116.5t56.5 -96.5t88 -65.5t115 -24.5q63 0 115.5 24.5t89 65.5t57 96.5t20.5 116.5t-20.5 116.5t-57 96.5t-89 65.5t-115.5 24.5t-114.5 -24.5t-88.5 -65.5t-56.5 -96t-19.5 -117z" />
<glyph unicode="h" horiz-adv-x="1165" d="M150 0v1434h223v-613q45 78 125 118t186 40q104 0 175 -35t112 -94q35 -53 48 -118.5t13 -164.5v-567h-223v494q0 61 -10.5 114.5t-34 91t-63 60t-99.5 22.5q-117 0 -173 -83t-56 -205v-494h-223z" />
<glyph unicode="i" horiz-adv-x="612" d="M141 1303q0 70 48.5 117.5t115.5 47.5q70 0 118 -48t48 -117q0 -68 -48 -116t-118 -48q-68 0 -116 48t-48 116zM195 0v954h223v-954h-223z" />
<glyph unicode="j" horiz-adv-x="604" d="M41 -293q33 -8 48 -10t30 -2q35 0 53 21.5t18 74.5v1163h224v-1177q0 -80 -17.5 -133.5t-46 -85t-64.5 -45t-73 -13.5q-53 0 -101.5 6.5t-70.5 16.5v184zM137 1303q0 70 48 117.5t116 47.5q70 0 118 -48t48 -117q0 -68 -48 -116t-118 -48q-68 0 -116 48t-48 116z" />
<glyph unicode="k" horiz-adv-x="1021" d="M150 0v1434h223v-902l350 422h278l-397 -477l397 -477h-278l-350 420v-420h-223z" />
<glyph unicode="l" horiz-adv-x="522" d="M150 0v1434h223v-1434h-223z" />
<glyph unicode="m" horiz-adv-x="1712" d="M150 0v954h223v-133q31 66 101.5 112t164.5 46q131 0 200.5 -49t100.5 -121q35 72 112.5 121t180.5 49q106 0 174 -34t105.5 -87t51 -119.5t13.5 -134.5v-604h-223v535q0 115 -42 181t-136 66q-43 0 -79 -14t-63.5 -49t-43 -91.5t-15.5 -142.5v-485h-223v537 q0 115 -40 180t-134 65q-43 0 -80 -14t-64.5 -49t-44 -91.5t-16.5 -142.5v-485h-223z" />
<glyph unicode="n" horiz-adv-x="1165" d="M150 0v954h223v-133q45 78 125 118t186 40q104 0 175 -35t112 -94q35 -53 48 -118.5t13 -164.5v-567h-223v494q0 61 -10.5 114.5t-34 91t-63 60t-99.5 22.5q-117 0 -173 -83t-56 -205v-494h-223z" />
<glyph unicode="o" horiz-adv-x="1163" d="M78 477q0 100 36 191.5t101.5 161t157.5 109.5t207 40t208 -40t159.5 -109.5t102 -160.5t35.5 -192q0 -102 -35.5 -192t-102 -160t-159.5 -110t-208 -40t-207 40t-157.5 110t-101.5 160t-36 192zM301 477q0 -61 19.5 -116.5t56.5 -96.5t88.5 -65.5t114.5 -24.5 t115.5 24.5t89 65.5t57 96.5t20.5 116.5t-20.5 116.5t-57 96.5t-89 65.5t-115.5 24.5t-114.5 -24.5t-88.5 -65.5t-56.5 -96t-19.5 -117z" />
<glyph unicode="p" horiz-adv-x="1239" d="M150 -479v1433h223v-129q45 72 128 113t167 41q109 0 198.5 -40t154 -109.5t100.5 -160.5t36 -192q0 -102 -36 -192t-100.5 -160t-154.5 -110t-198 -40q-84 0 -167 41t-128 113v-608h-223zM373 477q0 -61 19.5 -116.5t56 -96.5t89 -65.5t117.5 -24.5q63 0 114.5 24.5 t88.5 65.5t56.5 96.5t19.5 116.5t-19.5 116.5t-56.5 96.5t-88.5 65.5t-114.5 24.5q-66 0 -118 -24.5t-88.5 -65.5t-56 -96t-19.5 -117z" />
<glyph unicode="q" horiz-adv-x="1239" d="M82 477q0 100 36 191.5t100.5 161t154.5 109.5t198 40q84 0 167 -41t128 -113v129h224v-1433h-224v608q-45 -72 -128 -113t-167 -41q-109 0 -198.5 40t-154 110t-100.5 160t-36 192zM305 477q0 -61 19.5 -116.5t56.5 -96.5t88 -65.5t115 -24.5q63 0 115.5 24.5t89 65.5 t57 96.5t20.5 116.5t-20.5 116.5t-57 96.5t-89 65.5t-115.5 24.5t-114.5 -24.5t-88.5 -65.5t-56.5 -96t-19.5 -117z" />
<glyph unicode="r" horiz-adv-x="774" d="M150 0v954h223v-153q16 33 46 62.5t69.5 53t86 37t93.5 13.5q53 0 88 -15v-204q-27 6 -44.5 8t-43.5 2q-143 0 -219 -83t-76 -263v-412h-223z" />
<glyph unicode="s" horiz-adv-x="929" d="M74 322h217q0 -94 52 -132t132 -38q66 0 111 24.5t45 85.5q0 33 -18.5 53.5t-55.5 38t-92 36t-131 46.5q-49 18 -91 40t-73 50.5t-47.5 71.5t-16.5 104q0 68 29 119t78 87t113.5 53.5t138.5 17.5q76 0 142.5 -24.5t115.5 -67.5t77.5 -102.5t28.5 -129.5h-217 q0 68 -35.5 108t-117.5 40q-57 0 -97 -26.5t-40 -78.5q0 -31 16 -50t49 -34.5t82 -32.5t115 -42q49 -18 96 -39t84 -51.5t58.5 -73.5t21.5 -109q0 -74 -30 -129t-82 -91t-121.5 -53.5t-147.5 -17.5t-147.5 22.5t-124 67t-86 109t-31.5 148.5z" />
<glyph unicode="t" horiz-adv-x="718" d="M41 768v186h162v289h223v-289h219v-186h-219v-393q0 -61 9 -98t27.5 -56.5t44 -26t58.5 -6.5q27 0 62 2.5t51 6.5v-197q-27 -4 -72 -8t-94 -4q-41 0 -94 7t-101.5 40t-81 100.5t-32.5 188.5v444h-162z" />
<glyph unicode="u" horiz-adv-x="1165" d="M133 387v567h223v-493q0 -61 10.5 -114.5t34 -91.5t63.5 -60.5t99 -22.5q117 0 173.5 83t56.5 206v493h223v-954h-223v133q-45 -78 -125 -118t-187 -40q-104 0 -174.5 35t-111.5 94q-35 53 -48.5 119t-13.5 164z" />
<glyph unicode="v" horiz-adv-x="1011" d="M2 954h240l262 -635l266 635h240l-432 -954h-150z" />
<glyph unicode="w" horiz-adv-x="1542" d="M0 954h240l206 -604l216 604h219l215 -604l207 604h239l-371 -954h-149l-250 713l-252 -713h-149z" />
<glyph unicode="x" horiz-adv-x="913" d="M16 0l312 481l-305 473h258l176 -299l176 299h258l-305 -473l311 -481h-258l-182 307l-183 -307h-258z" />
<glyph unicode="y" horiz-adv-x="1183" d="M133 -109h217q2 -80 56.5 -137t171.5 -57q121 0 180 58.5t59 199.5v178q-45 -78 -125 -118t-186 -40q-104 0 -175 35t-112 94q-35 53 -48 119t-13 164v567h223v-493q0 -61 10 -114.5t34 -91.5t63.5 -60.5t99.5 -22.5q117 0 173 83t56 206v493h223v-999 q0 -244 -127.5 -350.5t-363.5 -106.5q-92 0 -168 32t-131 86t-86 126t-31 149z" />
<glyph unicode="z" horiz-adv-x="897" d="M45 0l453 756h-441v198h811l-450 -755h450v-199h-823z" />
<glyph unicode="{" horiz-adv-x="942" d="M164 457v182q25 0 57.5 9t61 30.5t49 54.5t20.5 82v526q0 72 25.5 125.5t65.5 89t90.5 53t99.5 17.5h145v-168h-90q-37 0 -58.5 -14t-33.5 -37t-15 -49.5t-3 -52.5v-521q0 -66 -24 -109.5t-55.5 -70t-66.5 -39t-57 -14.5q23 -4 57.5 -15.5t66 -38t55.5 -74.5t24 -126 v-455q0 -25 3 -52.5t15 -50t33.5 -36.5t58.5 -14h90v-168h-145q-49 0 -99.5 17.5t-90.5 52t-65.5 89t-25.5 125.5v461q0 53 -20.5 89t-49 58.5t-61.5 33t-57 10.5z" />
<glyph unicode="|" horiz-adv-x="522" d="M150 -479v2105h223v-2105h-223z" />
<glyph unicode="}" horiz-adv-x="942" d="M164 -311h90q37 0 58.5 14t33.5 36.5t15.5 50.5t3.5 52v455q0 78 22.5 126t55 74.5t67.5 38t57 15.5q-23 2 -57.5 14.5t-67 39t-55 70.5t-22.5 109v521q0 27 -3.5 53t-15.5 49t-33.5 37t-58.5 14h-90v168h145q49 0 99.5 -17.5t90.5 -53t65.5 -89t25.5 -125.5v-526 q0 -49 20.5 -82t49 -54.5t61.5 -30.5t57 -9v-182q-25 0 -57.5 -10.5t-61 -33t-49 -58.5t-20.5 -89v-461q0 -72 -25.5 -126t-65.5 -88.5t-90.5 -52t-99.5 -17.5h-145v168z" />
<glyph unicode="~" horiz-adv-x="1079" d="M82 395v191q51 68 112.5 94.5t114.5 26.5q55 0 116.5 -19.5t125.5 -46.5q59 -25 118.5 -49.5t102.5 -24.5q70 0 127 36t98 77v-191q-51 -68 -112.5 -94t-114.5 -26q-59 0 -113.5 19.5t-107.5 47.5q-53 29 -114.5 50.5t-135.5 21.5q-63 0 -119.5 -36t-97.5 -77z" />
<glyph unicode="&#xa1;" horiz-adv-x="632" d="M154 1290q0 70 49 119t116 49q70 0 119 -49t49 -119q0 -68 -49 -117t-119 -49q-68 0 -116.5 49t-48.5 117zM199 0v967h243v-967h-243z" />
<glyph unicode="&#xa2;" d="M119 715q0 86 23.5 167t70.5 146.5t116.5 112.5t162.5 65v224h208v-222q88 -14 151.5 -50t104.5 -86t63.5 -108.5t27.5 -119.5h-224q-10 78 -60 126t-165 48q-66 0 -113 -24.5t-79.5 -66.5t-48 -96.5t-15.5 -115.5t15.5 -116.5t48 -96.5t84 -65.5t122.5 -24.5 q98 0 144.5 41t68.5 112h224q-20 -129 -105.5 -224t-243.5 -120v-219h-208v221q-92 18 -162 64.5t-117 113t-70.5 147.5t-23.5 167z" />
<glyph unicode="&#xa3;" d="M88 645v211h139q0 66 -1 119t-1 90q0 88 37 160.5t98.5 125t143.5 80t172 27.5q98 0 180 -32.5t142.5 -92t94 -141.5t33.5 -182h-235q0 106 -51.5 171.5t-173.5 65.5q-90 0 -147.5 -45t-57.5 -137q0 -29 1 -84t1 -125h293v-211h-293q-2 -74 -5 -146.5t-10.5 -132 t-18.5 -100.5t-28 -55h611v-211h-877v174q25 20 41.5 68.5t27.5 112t16 138t7 152.5h-139z" />
<glyph unicode="&#xa4;" horiz-adv-x="1472" d="M180 344l133 133q-80 127 -80 281q0 78 20.5 148.5t59.5 129.5l-131 133l140 142l131 -133q59 39 129.5 60.5t152.5 21.5q84 0 155 -21.5t130 -60.5l131 131l141 -140l-133 -133q82 -123 82 -278q0 -158 -82 -281l131 -131l-139 -141l-131 131q-121 -80 -285 -80 q-160 0 -280 80l-133 -131zM457 758q0 -61 19.5 -116.5t56 -96.5t88 -65.5t114.5 -24.5t115.5 24.5t89.5 65.5t57.5 96t20.5 117q0 61 -20.5 116.5t-57.5 96.5t-89 65.5t-116 24.5q-63 0 -114.5 -24.5t-88 -65.5t-56 -96.5t-19.5 -116.5z" />
<glyph unicode="&#xa5;" d="M-61 1434h272l385 -617l381 617h272l-504 -813h267v-187h-312v-110h312v-187h-312v-137h-211v137h-305v187h305v110h-305v187h260z" />
<glyph unicode="&#xa6;" horiz-adv-x="522" d="M150 461h223v-940h-223v940zM150 684v942h223v-942h-223z" />
<glyph unicode="&#xa7;" d="M78 539q0 123 59.5 206.5t175.5 118.5q-78 49 -113.5 122t-35.5 165q0 82 37 149.5t99 115.5t145 74t173 26q94 0 177.5 -30t144.5 -85t97 -132t36 -169h-237q0 98 -61.5 159.5t-156.5 61.5q-90 0 -153.5 -43t-63.5 -127q0 -41 17.5 -71.5t47.5 -53t67.5 -40t78.5 -30.5 q84 -29 172 -60.5t160 -77.5t118 -112.5t46 -160.5q0 -61 -20.5 -116.5t-54.5 -99.5t-76 -73t-85 -37q78 -51 114 -122.5t36 -164.5q0 -84 -37 -150.5t-99.5 -114.5t-145.5 -73.5t-173 -25.5q-94 0 -177 29.5t-144.5 85t-97 132t-35.5 169.5h237q0 -98 61.5 -160t155.5 -62 q45 0 84 10.5t69 32t47 53t17 74.5q0 41 -17 72t-47 53.5t-68 40t-79 29.5q-84 27 -172 59.5t-159.5 78.5t-117.5 111.5t-46 162.5zM315 563q0 -53 32 -92t83 -68t111.5 -49t117.5 -37q92 8 151.5 62.5t59.5 140.5q0 51 -23.5 85t-68.5 63q-45 27 -108.5 49t-145.5 47 q-90 -8 -149.5 -61.5t-59.5 -139.5z" />
<glyph unicode="&#xa8;" horiz-adv-x="1218" d="M201 1300q0 66 45 112t110 46q66 0 112 -46t46 -112t-46 -110.5t-112 -44.5t-110.5 44.5t-44.5 110.5zM670 1300q0 66 45 112t110 46q66 0 112 -46t46 -112t-46 -110.5t-112 -44.5t-110.5 44.5t-44.5 110.5z" />
<glyph unicode="&#xa9;" horiz-adv-x="1646" d="M82 717q0 145 51 281.5t146.5 240.5t233.5 166.5t310 62.5t310.5 -62.5t233.5 -166.5t146.5 -240.5t51.5 -281.5t-51.5 -281.5t-146.5 -241t-233.5 -167t-310.5 -62.5t-310 62.5t-233.5 167t-146.5 240.5t-51 282zM289 717q0 -113 36.5 -218.5t105.5 -186.5t168 -129 t224 -48t223.5 48t168 129t106.5 186.5t37 218.5t-37 218t-106.5 186t-168 129t-223.5 48t-224 -48t-168 -129t-105.5 -186.5t-36.5 -217.5zM377 719q0 90 30.5 173t89 147.5t142.5 103.5t188 39q98 0 175 -27t130.5 -74t86 -110.5t43.5 -134.5h-170q-20 84 -85 141t-180 57 q-66 0 -118 -26.5t-88.5 -69.5t-56 -100.5t-19.5 -118.5q0 -63 20.5 -121.5t58.5 -102.5t93 -70t127 -26q88 0 152.5 45t90.5 113h175q-14 -66 -51 -121t-91.5 -96t-125 -64.5t-150.5 -23.5q-111 0 -197 38t-146.5 102.5t-92 148.5t-31.5 178z" />
<glyph unicode="&#xaa;" horiz-adv-x="1234" d="M78 477q0 100 36 191.5t100.5 161t154.5 109.5t198 40q84 0 167 -41t128 -113v129h223v-954h-223v129q-45 -72 -128 -113t-167 -41q-109 0 -198.5 40t-154 110t-100.5 160t-36 192zM301 477q0 -61 19.5 -116.5t56.5 -96.5t88.5 -65.5t114.5 -24.5t115.5 24.5t89 65.5 t57 96.5t20.5 116.5t-20.5 116.5t-57 96.5t-89 65.5t-115.5 24.5t-114.5 -24.5t-88.5 -65.5t-56.5 -96t-19.5 -117z" />
<glyph unicode="&#xab;" horiz-adv-x="966" d="M82 530v132l401 335v-215l-223 -186l223 -186v-215zM483 530v132l402 335v-215l-223 -186l223 -186v-215z" />
<glyph unicode="&#xac;" d="M180 641v199h828v-512h-224v313h-604z" />
<glyph unicode="&#xad;" horiz-adv-x="602" d="M61 483v199h480v-199h-480z" />
<glyph unicode="&#xae;" horiz-adv-x="1646" d="M82 717q0 145 51 281.5t146.5 240.5t233.5 166.5t310 62.5t310.5 -62.5t233.5 -166.5t146.5 -240.5t51.5 -281.5t-51.5 -281.5t-146.5 -241t-233.5 -167t-310.5 -62.5t-310 62.5t-233.5 167t-146.5 240.5t-51 282zM289 717q0 -113 36.5 -218.5t105.5 -186.5t168 -129 t224 -48t223.5 48t168 129t106.5 186.5t37 218.5t-37 218t-106.5 186t-168 129t-223.5 48t-224 -48t-168 -129t-105.5 -186.5t-36.5 -217.5zM545 332v833h340q68 0 121 -23.5t92 -63.5t59.5 -93t20.5 -113q0 -90 -46.5 -161.5t-130.5 -106.5l166 -272h-176l-151 250h-138 v-250h-157zM702 719h166q66 0 104 45t38 108t-38 109.5t-104 46.5h-166v-309z" />
<glyph unicode="&#xaf;" horiz-adv-x="1136" d="M201 1481v198h733v-198h-733z" />
<glyph unicode="&#xb0;" horiz-adv-x="667" d="M41 1176q0 61 22.5 114t62.5 93t93 62.5t115 22.5q61 0 114.5 -22.5t93.5 -62.5t62.5 -93t22.5 -114t-22.5 -114.5t-62.5 -93.5t-93.5 -62.5t-114.5 -22.5t-114.5 22.5t-93.5 62.5t-62.5 93t-22.5 115zM199 1176q0 -57 40 -97.5t95 -40.5t95 40.5t40 97.5q0 55 -40 97 t-95 42t-95 -42t-40 -97z" />
<glyph unicode="&#xb1;" d="M180 0v199h828v-199h-828zM180 756v198h301v316h224v-316h303v-198h-303v-314h-224v314h-301z" />
<glyph unicode="&#xb2;" horiz-adv-x="772" d="M113 645q0 96 15 161.5t43 111t65.5 76t85.5 59.5q70 41 116.5 76.5t46.5 95.5q0 47 -25.5 67.5t-64.5 20.5q-43 0 -71.5 -26.5t-28.5 -88.5h-180q0 109 72.5 180.5t207.5 71.5q53 0 102.5 -13.5t86.5 -43t58.5 -74.5t21.5 -107q0 -51 -21.5 -91t-52.5 -71.5t-67 -55 t-64 -42.5q-41 -27 -67.5 -46t-43 -36.5t-23 -35t-6.5 -41.5h340v-148h-546z" />
<glyph unicode="&#xb3;" horiz-adv-x="800" d="M98 909h181q0 -66 33.5 -100.5t86.5 -34.5q51 0 78 32t27 73q0 49 -25.5 78.5t-91.5 29.5h-70v141h70q61 0 83 27t22 70q0 47 -25 67.5t-66 20.5q-59 0 -79.5 -31t-20.5 -84h-180q0 51 15.5 96t49 80t86 55.5t125.5 20.5q55 0 104.5 -14.5t87.5 -42t60.5 -68.5t22.5 -96 q0 -66 -35 -112t-82 -62q53 -18 91 -66.5t38 -122.5q0 -57 -23.5 -101t-62.5 -75t-90 -46t-107 -15q-147 0 -225 77.5t-78 202.5z" />
<glyph unicode="&#xb4;" horiz-adv-x="1173" d="M164 1229l510 280l106 -174l-510 -280z" />
<glyph unicode="&#xb5;" d="M152 -479v1433h223v-493q0 -61 10 -114.5t33.5 -91.5t63.5 -60.5t100 -22.5q117 0 173 83t56 206v493h223v-954h-223v133q-45 -78 -125 -118t-186 -40q-66 0 -125 17v-471h-223z" />
<glyph unicode="&#xb6;" horiz-adv-x="1368" d="M31 1065q0 90 25.5 154.5t67.5 109.5t95 73t109.5 42t112 19t100.5 5h678v-184h-109v-1587h-211v1585h-215v-1585h-211v977q-94 0 -175 23.5t-140.5 71.5t-93 122t-33.5 174z" />
<glyph unicode="&#xb7;" horiz-adv-x="575" d="M123 639q0 70 48 118t116 48q70 0 118 -48t48 -118q0 -68 -48.5 -116t-117.5 -48q-68 0 -116 48t-48 116z" />
<glyph unicode="&#xb8;" horiz-adv-x="1136" d="M360 -303h132q18 -61 75 -62q35 0 56.5 23t21.5 61q0 35 -22.5 55.5t-53.5 20.5q-43 0 -63 -37h-111v242h144v-131q27 27 75 27q27 0 55.5 -11.5t52 -34t39 -55.5t15.5 -76q0 -35 -12 -70.5t-39 -64t-65.5 -46t-92.5 -17.5q-12 0 -42.5 4t-63.5 21.5t-62.5 53t-38.5 97.5 z" />
<glyph unicode="&#xb9;" horiz-adv-x="577" d="M94 1167v129q57 0 93 8.5t56.5 25t29 43t8.5 61.5h159v-789h-184v522h-162z" />
<glyph unicode="&#xba;" horiz-adv-x="1163" d="M78 477q0 100 36 191.5t101.5 161t157.5 109.5t207 40t208 -40t159.5 -109.5t102 -160.5t35.5 -192q0 -102 -35.5 -192t-102 -160t-159.5 -110t-208 -40t-207 40t-157.5 110t-101.5 160t-36 192zM301 477q0 -61 19.5 -116.5t56.5 -96.5t88.5 -65.5t114.5 -24.5 t115.5 24.5t89 65.5t57 96.5t20.5 116.5t-20.5 116.5t-57 96.5t-89 65.5t-115.5 24.5t-114.5 -24.5t-88.5 -65.5t-56.5 -96t-19.5 -117z" />
<glyph unicode="&#xbb;" horiz-adv-x="966" d="M82 195v215l223 186l-223 186v215l401 -335v-132zM483 195v215l224 186l-224 186v215l402 -335v-132z" />
<glyph unicode="&#xbc;" horiz-adv-x="1945" d="M147 1167v129q57 0 93 8.5t56.5 25t29 43t8.5 61.5h160v-789h-185v522h-162zM303 -2l895 1542l178 -102l-895 -1542zM1157 219v569h180v-417h133v219h181v-219h96v-152h-96v-219h-181v219h-313z" />
<glyph unicode="&#xbd;" horiz-adv-x="1945" d="M147 1167v129q57 0 93 8.5t56.5 25t29 43t8.5 61.5h160v-789h-185v522h-162zM303 -2l895 1542l178 -102l-895 -1542zM1153 0q0 96 15.5 161.5t43 110.5t65.5 76t85 60q70 41 117 76.5t47 95.5q0 47 -25.5 67.5t-64.5 20.5q-43 0 -72 -27t-29 -88h-180q0 109 72.5 180.5 t208.5 71.5q53 0 102 -13.5t86 -43t58.5 -74.5t21.5 -107q0 -51 -21.5 -91t-52.5 -71.5t-66.5 -55t-64.5 -42.5q-41 -27 -67.5 -46t-43 -36.5t-22.5 -35t-6 -42.5h340v-147h-547z" />
<glyph unicode="&#xbe;" horiz-adv-x="1945" d="M92 909h180q0 -66 34 -100.5t87 -34.5q51 0 78 32t27 73q0 49 -26 78.5t-91 29.5h-70v141h70q61 0 82.5 27t21.5 70q0 47 -24.5 67.5t-65.5 20.5q-59 0 -79.5 -31t-20.5 -84h-180q0 51 15 96t49 80t86 55.5t126 20.5q55 0 104.5 -14.5t87.5 -42t60.5 -68.5t22.5 -96 q0 -66 -35 -112t-82 -62q53 -18 91 -66.5t38 -122.5q0 -57 -23.5 -101t-62.5 -75t-90 -46t-107 -15q-147 0 -225 77.5t-78 202.5zM303 -2l895 1542l178 -102l-895 -1542zM1157 219v569h180v-417h133v219h181v-219h96v-152h-96v-219h-181v219h-313z" />
<glyph unicode="&#xbf;" horiz-adv-x="1046" d="M96 379q0 72 22.5 128t56.5 100t72 77t66 57q51 41 81 71t45.5 61.5t20.5 72.5t5 103h225q0 -68 -6 -123.5t-23.5 -103.5t-48 -89t-82.5 -78q-31 -23 -65.5 -50t-64 -61t-49 -75t-19.5 -90q0 -98 60.5 -145.5t154.5 -47.5q43 0 82 13.5t68.5 43t47 74.5t17.5 107h235 q0 -109 -36.5 -193t-98 -141t-143.5 -86t-172 -29q-92 0 -174 29t-143.5 81t-97.5 127t-36 167zM403 1294q0 35 13.5 67t37 55.5t55.5 37.5t69 14t67.5 -14t54 -37.5t37 -55.5t13.5 -67t-13.5 -66.5t-37 -55t-54.5 -37t-67 -13.5q-37 0 -69 13.5t-55.5 37t-37 55.5t-13.5 66 z" />
<glyph unicode="&#xc0;" horiz-adv-x="1169" d="M6 0l496 1434h166l495 -1434h-248l-61 182h-539l-61 -182h-248zM324 1815l106 174l510 -281l-106 -174zM387 393h395l-196 649z" />
<glyph unicode="&#xc1;" horiz-adv-x="1169" d="M6 0l496 1434h166l495 -1434h-248l-61 182h-539l-61 -182h-248zM279 1669l509 281l107 -174l-510 -281zM387 393h395l-196 649z" />
<glyph unicode="&#xc2;" horiz-adv-x="1169" d="M6 0l496 1434h166l495 -1434h-248l-61 182h-539l-61 -182h-248zM217 1694l367 297l370 -297l-139 -156l-229 184l-228 -182zM387 393h395l-196 649z" />
<glyph unicode="&#xc3;" horiz-adv-x="1169" d="M6 0l496 1434h166l495 -1434h-248l-61 182h-539l-61 -182h-248zM219 1782q45 29 79 45t58.5 23.5t42 8.5t31.5 1q20 0 61 -8.5t85.5 -19.5t83 -19.5t59.5 -8.5q16 0 30.5 2t32 8.5t41 16.5t60.5 29l88 -142q-80 -66 -138.5 -79t-84.5 -13q-23 0 -63 8t-84 18.5t-83 18.5 t-59 8q-41 0 -74 -13t-70 -30zM387 393h395l-196 649z" />
<glyph unicode="&#xc4;" horiz-adv-x="1169" d="M6 0l496 1434h166l495 -1434h-248l-61 182h-539l-61 -182h-248zM188 1751q0 70 48.5 118t115.5 48q70 0 118 -48t48 -118q0 -68 -48 -116t-118 -48q-68 0 -116 48t-48 116zM387 393h395l-196 649zM657 1751q0 70 48.5 118t115.5 48q70 0 118 -48t48 -118q0 -68 -48 -116 t-118 -48q-68 0 -116 48t-48 116z" />
<glyph unicode="&#xc5;" horiz-adv-x="1169" d="M6 0l496 1434h166l495 -1434h-248l-61 182h-539l-61 -182h-248zM334 1747q0 51 19.5 97t54 81t80 54.5t98.5 19.5q51 0 97 -20.5t81 -54.5t54.5 -80t19.5 -97t-19.5 -97t-54.5 -80t-81 -54.5t-97 -20.5q-53 0 -98.5 20.5t-80 54.5t-54 80t-19.5 97zM387 393h395l-196 649 zM496 1747q0 -35 26.5 -61.5t63.5 -26.5t63.5 26.5t26.5 63.5t-25.5 63.5t-64.5 26.5t-64.5 -27.5t-25.5 -64.5z" />
<glyph unicode="&#xc6;" horiz-adv-x="1808" d="M4 0l696 1434h959v-211h-592v-406h592v-211h-592v-395h592v-211h-828v184h-485l-86 -184h-256zM446 395h385v817z" />
<glyph unicode="&#xc7;" horiz-adv-x="1587" d="M78 719q0 145 50 280.5t145.5 239.5t229.5 166.5t304 62.5q160 0 283.5 -44t212 -118.5t140.5 -176t68 -218.5h-247q-12 74 -48 137.5t-90.5 109.5t-127 72.5t-160.5 26.5q-123 0 -220.5 -45t-163 -119.5t-100.5 -172t-35 -201.5q0 -111 36 -209t104.5 -173t170 -118 t232.5 -43q61 0 124 21.5t116 59.5t93 90t58 114h258q-23 -100 -79 -188.5t-140 -154t-190.5 -105.5t-231.5 -46v-67q27 27 76 26q27 0 55.5 -11t52 -33.5t39 -55.5t15.5 -76q0 -35 -12.5 -70.5t-39 -64.5t-65.5 -46.5t-92 -17.5q-12 0 -43 4.5t-63.5 21.5t-62.5 53t-38 98 h131q18 -61 76 -62q35 0 56.5 22.5t21.5 61.5q0 35 -22.5 55.5t-53.5 20.5q-43 0 -63 -37h-111v182q-154 18 -273.5 85t-203.5 167.5t-128 228.5t-44 267z" />
<glyph unicode="&#xc8;" horiz-adv-x="1116" d="M150 0v1434h827v-211h-592v-406h592v-211h-592v-395h592v-211h-827zM293 1778l106 174l510 -281l-106 -174z" />
<glyph unicode="&#xc9;" horiz-adv-x="1116" d="M150 0v1434h827v-211h-592v-406h592v-211h-592v-395h592v-211h-827zM252 1708l510 281l106 -174l-510 -281z" />
<glyph unicode="&#xca;" horiz-adv-x="1116" d="M150 0v1434h827v-211h-592v-406h592v-211h-592v-395h592v-211h-827zM205 1694l366 297l371 -297l-139 -156l-230 184l-227 -182z" />
<glyph unicode="&#xcb;" horiz-adv-x="1116" d="M150 0v1434h827v-211h-592v-406h592v-211h-592v-395h592v-211h-827zM197 1751q0 70 48 118t115 48q70 0 118 -48t48 -118q0 -68 -48 -116t-118 -48q-68 0 -115.5 48t-47.5 116zM666 1751q0 70 48 118t115 48q70 0 118 -48t48 -118q0 -68 -48 -116t-118 -48 q-68 0 -115.5 48t-47.5 116z" />
<glyph unicode="&#xcc;" horiz-adv-x="542" d="M-37 1776l107 174l510 -281l-107 -174zM150 0v1434h243v-1434h-243z" />
<glyph unicode="&#xcd;" horiz-adv-x="542" d="M-37 1669l510 281l107 -174l-510 -281zM150 0v1434h243v-1434h-243z" />
<glyph unicode="&#xce;" horiz-adv-x="542" d="M-96 1694l366 297l371 -297l-139 -156l-230 184l-227 -182zM150 0v1434h243v-1434h-243z" />
<glyph unicode="&#xcf;" horiz-adv-x="542" d="M-102 1751q0 70 48 118t115 48q70 0 118 -48t48 -118q0 -68 -48 -116t-118 -48q-68 0 -115.5 48t-47.5 116zM150 0v1434h243v-1434h-243zM367 1751q0 70 48 118t115 48q70 0 118 -48t48 -118q0 -68 -48 -116t-118 -48q-68 0 -115.5 48t-47.5 116z" />
<glyph unicode="&#xd0;" horiz-adv-x="1435" d="M-94 618v199h244v617h464q176 0 314.5 -61.5t233.5 -162t145.5 -229.5t50.5 -264t-50.5 -264t-145.5 -229.5t-233 -162t-315 -61.5h-464v618h-244zM385 211h229q119 0 213.5 43t158 113.5t97 162t33.5 187.5t-33.5 187t-97 162t-158 114t-213.5 43h-229v-406h254v-199 h-254v-407z" />
<glyph unicode="&#xd1;" horiz-adv-x="1359" d="M150 0v1434h258l567 -1020v1020h235v-1434h-258l-567 1020v-1020h-235zM287 1782q45 29 78.5 45t58.5 23.5t42 8.5t32 1q20 0 61 -8.5t85 -19.5t83 -19.5t59 -8.5q16 0 30.5 2t32 8.5t41 16.5t60.5 29l88 -142q-80 -66 -138 -79t-85 -13q-23 0 -62.5 8t-83.5 18.5 t-83 18.5t-60 8q-41 0 -73.5 -13t-69.5 -30z" />
<glyph unicode="&#xd2;" horiz-adv-x="1638" d="M78 717q0 145 51 281.5t146.5 240.5t233.5 166.5t310 62.5t310.5 -62.5t233.5 -166.5t146.5 -240.5t51.5 -281.5t-51.5 -281.5t-146.5 -241t-233.5 -167t-310.5 -62.5t-310 62.5t-233.5 167t-146.5 240.5t-51 282zM326 717q0 -104 33.5 -201.5t98 -173.5t155.5 -121 t206 -45t206 45t155.5 121t98.5 173t34 202q0 104 -34 201.5t-98.5 173t-155.5 120.5t-206 45t-206 -45t-155.5 -120.5t-98 -173t-33.5 -201.5zM547 1815l106 174l510 -281l-106 -174z" />
<glyph unicode="&#xd3;" horiz-adv-x="1638" d="M78 717q0 145 51 281.5t146.5 240.5t233.5 166.5t310 62.5t310.5 -62.5t233.5 -166.5t146.5 -240.5t51.5 -281.5t-51.5 -281.5t-146.5 -241t-233.5 -167t-310.5 -62.5t-310 62.5t-233.5 167t-146.5 240.5t-51 282zM326 717q0 -104 33.5 -201.5t98 -173.5t155.5 -121 t206 -45t206 45t155.5 121t98.5 173t34 202q0 104 -34 201.5t-98.5 173t-155.5 120.5t-206 45t-206 -45t-155.5 -120.5t-98 -173t-33.5 -201.5zM467 1708l510 281l106 -174l-510 -281z" />
<glyph unicode="&#xd4;" horiz-adv-x="1638" d="M78 717q0 145 51 281.5t146.5 240.5t233.5 166.5t310 62.5t310.5 -62.5t233.5 -166.5t146.5 -240.5t51.5 -281.5t-51.5 -281.5t-146.5 -241t-233.5 -167t-310.5 -62.5t-310 62.5t-233.5 167t-146.5 240.5t-51 282zM326 717q0 -104 33.5 -201.5t98 -173.5t155.5 -121 t206 -45t206 45t155.5 121t98.5 173t34 202q0 104 -34 201.5t-98.5 173t-155.5 120.5t-206 45t-206 -45t-155.5 -120.5t-98 -173t-33.5 -201.5zM453 1694l366 297l371 -297l-139 -156l-230 184l-227 -182z" />
<glyph unicode="&#xd5;" horiz-adv-x="1638" d="M78 717q0 145 51 281.5t146.5 240.5t233.5 166.5t310 62.5t310.5 -62.5t233.5 -166.5t146.5 -240.5t51.5 -281.5t-51.5 -281.5t-146.5 -241t-233.5 -167t-310.5 -62.5t-310 62.5t-233.5 167t-146.5 240.5t-51 282zM326 717q0 -104 33.5 -201.5t98 -173.5t155.5 -121 t206 -45t206 45t155.5 121t98.5 173t34 202q0 104 -34 201.5t-98.5 173t-155.5 120.5t-206 45t-206 -45t-155.5 -120.5t-98 -173t-33.5 -201.5zM442 1782q45 29 79 45t58.5 23.5t42 8.5t31.5 1q20 0 61.5 -8.5t85.5 -19.5t83 -19.5t59 -8.5q16 0 30.5 2t32 8.5t41 16.5 t60.5 29l88 -142q-80 -66 -138.5 -79t-84.5 -13q-23 0 -63 8t-84 18.5t-83 18.5t-59 8q-41 0 -74 -13t-69 -30z" />
<glyph unicode="&#xd6;" horiz-adv-x="1638" d="M78 717q0 145 51 281.5t146.5 240.5t233.5 166.5t310 62.5t310.5 -62.5t233.5 -166.5t146.5 -240.5t51.5 -281.5t-51.5 -281.5t-146.5 -241t-233.5 -167t-310.5 -62.5t-310 62.5t-233.5 167t-146.5 240.5t-51 282zM326 717q0 -104 33.5 -201.5t98 -173.5t156 -121 t205.5 -45q115 0 206 45t155.5 121t98.5 173t34 202q0 104 -34 201.5t-98.5 173t-155.5 120.5t-206 45t-206 -45t-155.5 -120.5t-98 -173t-33.5 -201.5zM420 1751q0 70 48 118t116 48q70 0 118 -48t48 -118q0 -68 -48 -116t-118 -48q-68 0 -116 48t-48 116zM889 1751 q0 70 48 118t116 48q70 0 118 -48t48 -118q0 -68 -48.5 -116t-117.5 -48q-68 0 -116 48t-48 116z" />
<glyph unicode="&#xd7;" d="M221 371l221 221l-211 213l140 141l213 -213l223 223l158 -157l-224 -224l215 -215l-141 -139l-213 213l-223 -221z" />
<glyph unicode="&#xd8;" horiz-adv-x="1638" d="M78 717q0 145 51 281.5t146.5 240.5t233.5 166.5t310 62.5q102 0 193 -24l84 194l200 -86l-84 -190q166 -104 257.5 -276.5t91.5 -368.5q0 -145 -51.5 -281.5t-146.5 -241t-233.5 -167t-310.5 -62.5q-106 0 -194 25l-72 -170l-199 84l70 168q-166 104 -256 276t-90 369z M326 717q0 -127 48 -241t140 -191l412 960q-49 12 -107 12q-115 0 -206 -45t-155.5 -120.5t-98 -173t-33.5 -201.5zM709 188q51 -12 110 -12q115 0 206 45t155.5 121t98.5 173t34 202q0 127 -49.5 240.5t-141.5 191.5z" />
<glyph unicode="&#xd9;" horiz-adv-x="1310" d="M139 479v955h236v-955q0 -61 19.5 -116.5t56 -96.5t88 -65.5t114.5 -24.5t115.5 24.5t89.5 65.5t57.5 96.5t20.5 116.5v955h235v-955q0 -104 -36.5 -197.5t-104 -164t-163 -111.5t-214.5 -41q-117 0 -211 41t-161.5 111.5t-104.5 164t-37 197.5zM377 1815l106 174 l510 -281l-106 -174z" />
<glyph unicode="&#xda;" horiz-adv-x="1310" d="M139 479v955h236v-955q0 -61 19.5 -116.5t56 -96.5t88 -65.5t114.5 -24.5t115.5 24.5t89.5 65.5t57.5 96.5t20.5 116.5v955h235v-955q0 -104 -36.5 -197.5t-104 -164t-163 -111.5t-214.5 -41q-117 0 -211 41t-161.5 111.5t-104.5 164t-37 197.5zM297 1708l510 281 l106 -174l-510 -281z" />
<glyph unicode="&#xdb;" horiz-adv-x="1310" d="M139 479v955h236v-955q0 -61 19.5 -116.5t56 -96.5t88 -65.5t114.5 -24.5t115.5 24.5t89.5 65.5t57.5 96.5t20.5 116.5v955h235v-955q0 -104 -36.5 -197.5t-104 -164t-163 -111.5t-214.5 -41q-117 0 -211 41t-161.5 111.5t-104.5 164t-37 197.5zM276 1694l367 297 l371 -297l-140 -156l-229 184l-227 -182z" />
<glyph unicode="&#xdc;" horiz-adv-x="1310" d="M139 479v955h236v-955q0 -61 19.5 -116.5t56 -96.5t88 -65.5t114.5 -24.5t115.5 24.5t89.5 65.5t57.5 96.5t20.5 116.5v955h235v-955q0 -104 -36.5 -197.5t-104 -164t-163 -111.5t-214.5 -41q-117 0 -211 41t-161.5 111.5t-104.5 164t-37 197.5zM254 1751q0 70 48 118 t116 48q70 0 118 -48t48 -118q0 -68 -48.5 -116t-117.5 -48q-68 0 -116 48t-48 116zM723 1751q0 70 48 118t116 48q70 0 118 -48t48 -118q0 -68 -48.5 -116t-117.5 -48q-68 0 -116 48t-48 116z" />
<glyph unicode="&#xdd;" horiz-adv-x="1232" d="M23 1434h272l383 -617l307 617h258l-711 -1434h-258l285 573zM391 1708l510 281l107 -174l-510 -281z" />
<glyph unicode="&#xde;" horiz-adv-x="1026" d="M150 0v1434h210v-269h123q117 0 206 -39t150.5 -103.5t93.5 -147t32 -168.5t-32 -169t-93.5 -147.5t-150.5 -103.5t-206 -39h-123v-248h-210zM360 434h123q66 0 116 23.5t85 61.5t52.5 87t17.5 101q0 51 -17.5 100t-52.5 87t-85 61.5t-116 23.5h-123v-545z" />
<glyph unicode="&#xdf;" horiz-adv-x="1157" d="M139 0v1010q0 100 33 182t92.5 141.5t141 92t180.5 32.5q90 0 172 -27.5t145.5 -80t100 -125t36.5 -160.5q0 -129 -58 -201.5t-153 -113.5q49 -18 93.5 -50t78 -75t54 -95.5t20.5 -113.5q0 -115 -43 -199t-110.5 -137t-152.5 -79t-169 -26q-51 0 -94 8.5t-64 16.5v193 q39 -8 85 -13.5t73 -5.5q45 0 90 14.5t81 44t58.5 74.5t22.5 109q0 33 -13.5 73.5t-44 76.5t-80.5 60.5t-122 24.5h-80v199h74q63 0 108 17.5t72 47t39 68.5t12 82t-18.5 79t-51 61.5t-74.5 40t-87 14.5q-98 0 -161 -70t-63 -180v-1010h-223z" />
<glyph unicode="&#xe0;" horiz-adv-x="1234" d="M78 477q0 100 36 191.5t100.5 161t154.5 109.5t198 40q84 0 167 -41t128 -113v129h223v-954h-223v129q-45 -72 -128 -113t-167 -41q-109 0 -198.5 40t-154 110t-100.5 160t-36 192zM266 1294l107 174l510 -280l-107 -174zM301 477q0 -61 19.5 -116.5t56.5 -96.5 t88.5 -65.5t114.5 -24.5t115.5 24.5t89 65.5t57 96.5t20.5 116.5t-20.5 116.5t-57 96.5t-89 65.5t-115.5 24.5t-114.5 -24.5t-88.5 -65.5t-56.5 -96t-19.5 -117z" />
<glyph unicode="&#xe1;" horiz-adv-x="1234" d="M78 477q0 100 36 191.5t100.5 161t154.5 109.5t198 40q84 0 167 -41t128 -113v129h223v-954h-223v129q-45 -72 -128 -113t-167 -41q-109 0 -198.5 40t-154 110t-100.5 160t-36 192zM207 1188l510 280l106 -174l-510 -280zM301 477q0 -61 19.5 -116.5t56.5 -96.5 t88.5 -65.5t114.5 -24.5t115.5 24.5t89 65.5t57 96.5t20.5 116.5t-20.5 116.5t-57 96.5t-89 65.5t-115.5 24.5t-114.5 -24.5t-88.5 -65.5t-56.5 -96t-19.5 -117z" />
<glyph unicode="&#xe2;" horiz-adv-x="1234" d="M78 477q0 100 36 191.5t100.5 161t154.5 109.5t198 40q84 0 167 -41t128 -113v129h223v-954h-223v129q-45 -72 -128 -113t-167 -41q-109 0 -198.5 40t-154 110t-100.5 160t-36 192zM213 1212l367 297l370 -297l-139 -155l-229 184l-228 -182zM301 477q0 -61 19.5 -116.5 t56.5 -96.5t88.5 -65.5t114.5 -24.5t115.5 24.5t89 65.5t57 96.5t20.5 116.5t-20.5 116.5t-57 96.5t-89 65.5t-115.5 24.5t-114.5 -24.5t-88.5 -65.5t-56.5 -96t-19.5 -117z" />
<glyph unicode="&#xe3;" horiz-adv-x="1234" d="M78 477q0 100 36 191.5t100.5 161t154.5 109.5t198 40q84 0 167 -41t128 -113v129h223v-954h-223v129q-45 -72 -128 -113t-167 -41q-109 0 -198.5 40t-154 110t-100.5 160t-36 192zM211 1356q45 29 79 45t58.5 23.5t42 8.5t31.5 1q20 0 61 -8.5t85 -19.5t83 -19.5 t60 -8.5q16 0 30.5 2t32 8.5t41 16.5t59.5 29l89 -142q-80 -66 -138.5 -79t-85.5 -13q-23 0 -62.5 8.5t-83.5 18.5t-83 18t-59 8q-41 0 -74 -13t-70 -30zM301 477q0 -61 19.5 -116.5t56.5 -96.5t88.5 -65.5t114.5 -24.5t115.5 24.5t89 65.5t57 96.5t20.5 116.5t-20.5 116.5 t-57 96.5t-89 65.5t-115.5 24.5t-114.5 -24.5t-88.5 -65.5t-56.5 -96t-19.5 -117z" />
<glyph unicode="&#xe4;" horiz-adv-x="1234" d="M78 477q0 100 36 191.5t100.5 161t154.5 109.5t198 40q84 0 167 -41t128 -113v129h223v-954h-223v129q-45 -72 -128 -113t-167 -41q-109 0 -198.5 40t-154 110t-100.5 160t-36 192zM178 1257q0 70 48 118t116 48q70 0 118 -48t48 -118q0 -68 -48 -115.5t-118 -47.5 q-68 0 -116 48t-48 115zM301 477q0 -61 19.5 -116.5t56.5 -96.5t88 -65.5t115 -24.5q63 0 115.5 24.5t89 65.5t57 96.5t20.5 116.5t-20.5 116.5t-57 96.5t-89 65.5t-115.5 24.5t-114.5 -24.5t-88.5 -65.5t-56.5 -96.5t-19.5 -116.5zM647 1257q0 70 48 118t116 48 q70 0 118 -48t48 -118q0 -68 -48 -115.5t-118 -47.5q-68 0 -116 48t-48 115z" />
<glyph unicode="&#xe5;" horiz-adv-x="1234" d="M78 477q0 100 36 191.5t100.5 161t154.5 109.5t198 40q84 0 167 -41t128 -113v129h223v-954h-223v129q-45 -72 -128 -113t-167 -41q-109 0 -198.5 40t-154 110t-100.5 160t-36 192zM301 477q0 -61 19.5 -116.5t56.5 -96.5t88.5 -65.5t114.5 -24.5t115.5 24.5t89 65.5 t57 96.5t20.5 116.5t-20.5 116.5t-57 96.5t-89 65.5t-115.5 24.5t-114.5 -24.5t-88.5 -65.5t-56.5 -96t-19.5 -117zM360 1294q0 51 19.5 97.5t54.5 81t80 54t98 19.5q51 0 97.5 -20.5t81 -54t54 -79.5t19.5 -98q0 -51 -19.5 -97t-54 -80t-80.5 -54.5t-98 -20.5 q-53 0 -98 20.5t-80 54.5t-54.5 80t-19.5 97zM522 1294q0 -35 26.5 -61.5t63.5 -26.5t63.5 27t26.5 63q0 37 -25.5 63.5t-64.5 26.5t-64.5 -27.5t-25.5 -64.5z" />
<glyph unicode="&#xe6;" horiz-adv-x="1867" d="M78 477q0 100 36 191.5t100.5 161t154.5 109.5t198 40q84 0 167 -41t128 -113v129h223v-36q51 29 114 45t134 16q92 0 173 -33t141.5 -91t94.5 -136t34 -170q0 -25 -1 -58.5t-10 -80.5h-675q0 -51 14 -96.5t44 -79t77 -53t114 -19.5q47 0 81 10t57.5 26.5t39 40 t25.5 48.5h225q-12 -61 -45.5 -117.5t-88 -99.5t-128 -69t-166.5 -26q-78 0 -140 17.5t-114 46.5v-39h-223v129q-45 -72 -128 -113t-167 -41q-109 0 -198.5 40t-154 110t-100.5 160t-36 192zM301 477q0 -61 19.5 -116.5t56.5 -96.5t88.5 -65.5t114.5 -24.5t115.5 24.5 t89 65.5t57 96.5t20.5 116.5q0 63 -20.5 118.5t-57 96.5t-89 64.5t-115.5 23.5t-114.5 -24.5t-88.5 -65.5t-56.5 -96t-19.5 -117zM1092 575h467q0 98 -65 158t-167 60q-98 0 -166.5 -55.5t-68.5 -162.5z" />
<glyph unicode="&#xe7;" horiz-adv-x="1093" d="M82 477q0 96 30.5 187.5t91 161t148.5 111.5t205 42t200 -33t137 -85t82 -118.5t34 -136.5h-224q-10 78 -60 126t-165 48q-66 0 -113 -24.5t-79.5 -66.5t-48 -96t-15.5 -116q0 -61 15.5 -116.5t48 -96.5t84 -65.5t122.5 -24.5q98 0 144.5 41t68.5 113h224 q-12 -72 -43 -133.5t-81 -107.5t-122 -74.5t-166 -35.5v-63q27 27 76 27q27 0 55.5 -11.5t52 -34t39 -55.5t15.5 -76q0 -35 -12.5 -70.5t-39 -64t-65.5 -46t-92 -17.5q-12 0 -43 4t-64 21.5t-62.5 53.5t-37.5 97h131q18 -61 76 -61q35 0 56.5 22.5t21.5 60.5 q0 35 -22.5 55.5t-53.5 20.5q-43 0 -64 -37h-110v183q-92 18 -162 64t-118 112.5t-71.5 147.5t-23.5 167z" />
<glyph unicode="&#xe8;" horiz-adv-x="1087" d="M82 477q0 106 31.5 198.5t91 160t147.5 105.5t201 38q92 0 173 -33t141.5 -91t94 -136t33.5 -170q0 -25 -1 -58.5t-9 -80.5h-676q0 -51 14.5 -96.5t44 -79t77 -53t114.5 -19.5q47 0 81 10t57.5 26.5t39 40t25.5 48.5h225q-12 -61 -46 -117.5t-88 -99.5t-128 -69t-166 -26 q-121 0 -210 42t-148.5 112t-89 160t-29.5 188zM297 1294l106 174l510 -280l-106 -174zM311 575h467q0 100 -64.5 159t-166.5 59q-98 0 -167 -55.5t-69 -162.5z" />
<glyph unicode="&#xe9;" horiz-adv-x="1087" d="M82 477q0 106 31.5 198.5t91 160t147.5 105.5t201 38q92 0 173 -33t141.5 -91t94 -136t33.5 -170q0 -25 -1 -58.5t-9 -80.5h-676q0 -51 14.5 -96.5t44 -79t77 -53t114.5 -19.5q47 0 81 10t57.5 26.5t39 40t25.5 48.5h225q-12 -61 -46 -117.5t-88 -99.5t-128 -69t-166 -26 q-121 0 -210 42t-148.5 112t-89 160t-29.5 188zM229 1188l510 280l107 -174l-510 -280zM311 575h467q0 100 -64.5 159t-166.5 59q-98 0 -167 -55.5t-69 -162.5z" />
<glyph unicode="&#xea;" horiz-adv-x="1087" d="M82 477q0 106 31.5 198.5t91 160t147.5 105.5t201 38q92 0 173 -33t141.5 -91t94 -136t33.5 -170q0 -25 -1 -58.5t-9 -80.5h-676q0 -51 14.5 -96.5t44 -79t77 -53t114.5 -19.5q47 0 81 10t57.5 26.5t39 40t25.5 48.5h225q-12 -61 -46 -117.5t-88 -99.5t-128 -69t-166 -26 q-121 0 -210 42t-148.5 112t-89 160t-29.5 188zM182 1212l367 297l371 -297l-140 -155l-229 184l-227 -182zM311 575h467q0 100 -64.5 159t-166.5 59q-98 0 -167 -55.5t-69 -162.5z" />
<glyph unicode="&#xeb;" horiz-adv-x="1087" d="M82 477q0 106 31.5 198.5t91 160t147.5 105.5t201 38q92 0 173 -33t141.5 -91t94 -136t33.5 -170q0 -25 -1 -58.5t-9 -80.5h-676q0 -51 14.5 -96.5t44 -79t77 -53t114.5 -19.5q47 0 81 10t57.5 26.5t39 40t25.5 48.5h225q-12 -61 -46 -117.5t-88 -99.5t-128 -69t-166 -26 q-121 0 -210 42t-148.5 112t-89 160t-29.5 188zM150 1257q0 70 48 118t115 48q70 0 118 -48t48 -118q0 -68 -48 -115.5t-118 -47.5q-68 0 -115.5 47.5t-47.5 115.5zM311 575h467q0 100 -64.5 159t-166.5 59q-98 0 -167 -55.5t-69 -162.5zM618 1257q0 70 48.5 118t115.5 48 q70 0 118 -48t48 -118q0 -68 -48 -115.5t-118 -47.5q-68 0 -116 47.5t-48 115.5z" />
<glyph unicode="&#xec;" horiz-adv-x="612" d="M-2 1335l106 174l510 -280l-106 -174zM195 0v954h223v-954h-223z" />
<glyph unicode="&#xed;" horiz-adv-x="612" d="M-2 1229l510 280l106 -174l-510 -280zM195 0v954h223v-954h-223z" />
<glyph unicode="&#xee;" horiz-adv-x="612" d="M-61 1212l366 297l371 -297l-139 -155l-230 184l-227 -182zM197 0v954h223v-954h-223z" />
<glyph unicode="&#xef;" horiz-adv-x="612" d="M-92 1257q0 70 48 118t116 48q70 0 118 -48t48 -118q0 -68 -48.5 -115.5t-117.5 -47.5q-68 0 -116 47.5t-48 115.5zM172 0v954h223v-954h-223zM377 1257q0 70 48 118t116 48q70 0 118 -48t48 -118q0 -68 -48.5 -115.5t-117.5 -47.5q-68 0 -116 47.5t-48 115.5z" />
<glyph unicode="&#xf0;" horiz-adv-x="1159" d="M78 477q0 100 36 191.5t101.5 161t157.5 109.5t207 40h18l-57 92l-209 -110l-88 165l192 105l-123 203h271l55 -95l178 95l90 -166l-168 -88l254 -406q41 -66 66.5 -140.5t25.5 -156.5q0 -102 -35.5 -192t-102 -160t-159.5 -110t-208 -40t-207 40t-157.5 110t-101.5 160 t-36 192zM301 477q0 -61 19.5 -116.5t56.5 -96.5t88.5 -65.5t114.5 -24.5t115.5 24.5t89 65.5t57 96.5t20.5 116.5t-20.5 116.5t-57 96.5t-89 65.5t-115.5 24.5t-114.5 -24.5t-88.5 -65.5t-56.5 -96t-19.5 -117z" />
<glyph unicode="&#xf1;" horiz-adv-x="1165" d="M150 0v954h223v-133q45 78 125 118t186 40q104 0 175 -35t112 -94q35 -53 48 -118.5t13 -164.5v-567h-223v494q0 61 -10.5 114.5t-34 91t-63 60t-99.5 22.5q-117 0 -173 -83t-56 -205v-494h-223zM197 1356q45 29 78.5 45t58 23.5t42 8.5t32.5 1q20 0 61 -8.5t85 -19.5 t83 -19.5t59 -8.5q16 0 30.5 2t32 8.5t41 16.5t60.5 29l88 -142q-80 -66 -138 -79t-85 -13q-23 0 -62.5 8.5t-83.5 18.5t-83 18t-60 8q-41 0 -73.5 -13t-69.5 -30z" />
<glyph unicode="&#xf2;" horiz-adv-x="1163" d="M78 477q0 100 36 191.5t101.5 161t157.5 109.5t207 40t208 -40t159.5 -109.5t102 -160.5t35.5 -192q0 -102 -35.5 -192t-102 -160t-159.5 -110t-208 -40t-207 40t-157.5 110t-101.5 160t-36 192zM293 1294l106 174l510 -280l-106 -174zM301 477q0 -61 19.5 -116.5 t56.5 -96.5t88.5 -65.5t114.5 -24.5t115.5 24.5t89 65.5t57 96.5t20.5 116.5t-20.5 116.5t-57 96.5t-89 65.5t-115.5 24.5t-114.5 -24.5t-88.5 -65.5t-56.5 -96t-19.5 -117z" />
<glyph unicode="&#xf3;" horiz-adv-x="1163" d="M78 477q0 100 36 191.5t101.5 161t157.5 109.5t207 40t208 -40t159.5 -109.5t102 -160.5t35.5 -192q0 -102 -35.5 -192t-102 -160t-159.5 -110t-208 -40t-207 40t-157.5 110t-101.5 160t-36 192zM213 1188l510 280l106 -174l-510 -280zM301 477q0 -61 19.5 -116.5 t56.5 -96.5t88.5 -65.5t114.5 -24.5t115.5 24.5t89 65.5t57 96.5t20.5 116.5t-20.5 116.5t-57 96.5t-89 65.5t-115.5 24.5t-114.5 -24.5t-88.5 -65.5t-56.5 -96t-19.5 -117z" />
<glyph unicode="&#xf4;" horiz-adv-x="1163" d="M78 477q0 100 36 191.5t101.5 161t157.5 109.5t207 40t208 -40t159.5 -109.5t102 -160.5t35.5 -192q0 -102 -35.5 -192t-102 -160t-159.5 -110t-208 -40t-207 40t-157.5 110t-101.5 160t-36 192zM215 1212l367 297l370 -297l-139 -155l-229 184l-228 -182zM301 477 q0 -61 19.5 -116.5t56.5 -96.5t88.5 -65.5t114.5 -24.5t115.5 24.5t89 65.5t57 96.5t20.5 116.5t-20.5 116.5t-57 96.5t-89 65.5t-115.5 24.5t-114.5 -24.5t-88.5 -65.5t-56.5 -96t-19.5 -117z" />
<glyph unicode="&#xf5;" horiz-adv-x="1163" d="M78 477q0 100 36 191.5t101.5 161t157.5 109.5t207 40t208 -40t159.5 -109.5t102 -160.5t35.5 -192q0 -102 -35.5 -192t-102 -160t-159.5 -110t-208 -40t-207 40t-157.5 110t-101.5 160t-36 192zM188 1305q45 29 79 45t58.5 23t42 8t31.5 1q20 0 61.5 -8t85.5 -19.5 t83 -19.5t59 -8q16 0 30.5 2t32 8t41 16.5t60.5 28.5l88 -141q-80 -66 -138.5 -79t-84.5 -13q-23 0 -63 8t-84 18.5t-82.5 18.5t-59.5 8q-41 0 -73.5 -13t-69.5 -30zM301 477q0 -61 19.5 -116.5t56.5 -96.5t88.5 -65.5t114.5 -24.5t115.5 24.5t89 65.5t57 96.5t20.5 116.5 t-20.5 116.5t-57 96.5t-89 65.5t-115.5 24.5t-114.5 -24.5t-88.5 -65.5t-56.5 -96t-19.5 -117z" />
<glyph unicode="&#xf6;" horiz-adv-x="1163" d="M78 477q0 100 36 191.5t101.5 161t157.5 109.5t207 40t208 -40t159.5 -109.5t102 -160.5t35.5 -192q0 -102 -35.5 -192t-102 -160t-159.5 -110t-208 -40t-207 40t-157.5 110t-101.5 160t-36 192zM182 1257q0 70 48.5 118t115.5 48q70 0 118 -48t48 -118q0 -68 -48 -115.5 t-118 -47.5q-68 0 -116 48t-48 115zM301 477q0 -61 19.5 -116.5t56.5 -96.5t88.5 -65.5t114.5 -24.5t115.5 24.5t89 65.5t57 96.5t20.5 116.5t-20.5 116.5t-57 96.5t-89 65.5t-115.5 24.5t-114.5 -24.5t-88.5 -65.5t-56.5 -96t-19.5 -117zM651 1257q0 70 48.5 118t115.5 48 q70 0 118 -48t48 -118q0 -68 -48 -115.5t-118 -47.5q-68 0 -116 47.5t-48 115.5z" />
<glyph unicode="&#xf7;" d="M180 381v199h828v-199h-828zM430 152q0 70 48 117.5t116 47.5q70 0 118 -48t48 -117q0 -68 -48 -116t-118 -48q-68 0 -116 48t-48 116zM430 825q0 70 48 118t116 48q70 0 118 -48t48 -118q0 -68 -48 -115.5t-118 -47.5q-68 0 -116 47.5t-48 115.5z" />
<glyph unicode="&#xf8;" horiz-adv-x="1163" d="M78 477q0 100 36 191.5t101.5 161t157.5 109.5t207 40q27 0 51 -2t47 -6l74 170l188 -82l-70 -164q102 -70 158.5 -179.5t56.5 -238.5q0 -102 -35.5 -192t-102 -160t-160 -110t-207.5 -40q-49 0 -101 11l-73 -168l-189 82l70 161q-98 70 -153.5 178.5t-55.5 237.5z M301 477q0 -125 74 -211l221 514h-16q-63 0 -114.5 -24.5t-88.5 -65.5t-56.5 -96.5t-19.5 -116.5zM561 174h19q63 0 115.5 24.5t89 65.5t57 96.5t20.5 116.5t-20.5 117.5t-59.5 97.5z" />
<glyph unicode="&#xf9;" horiz-adv-x="1165" d="M133 387v567h223v-493q0 -61 10.5 -114.5t34 -91.5t63.5 -60.5t99 -22.5q117 0 173.5 83t56.5 206v493h223v-954h-223v133q-45 -78 -125 -118t-187 -40q-104 0 -174.5 35t-111.5 94q-35 53 -48.5 119t-13.5 164zM274 1294l107 174l510 -280l-107 -174z" />
<glyph unicode="&#xfa;" horiz-adv-x="1165" d="M133 387v567h223v-493q0 -61 10.5 -114.5t34 -91.5t63.5 -60.5t99 -22.5q117 0 173.5 83t56.5 206v493h223v-954h-223v133q-45 -78 -125 -118t-187 -40q-104 0 -174.5 35t-111.5 94q-35 53 -48.5 119t-13.5 164zM262 1188l510 280l107 -174l-510 -280z" />
<glyph unicode="&#xfb;" horiz-adv-x="1165" d="M133 387v567h223v-493q0 -61 10.5 -114.5t34 -91.5t63.5 -60.5t99 -22.5q117 0 173.5 83t56.5 206v493h223v-954h-223v133q-45 -78 -125 -118t-187 -40q-104 0 -174.5 35t-111.5 94q-35 53 -48.5 119t-13.5 164zM197 1212l366 297l371 -297l-139 -155l-230 184l-227 -182 z" />
<glyph unicode="&#xfc;" horiz-adv-x="1165" d="M133 387v567h223v-493q0 -61 10.5 -114.5t34 -91.5t63.5 -60.5t99 -22.5q117 0 173.5 83t56.5 206v493h223v-954h-223v133q-45 -78 -125 -118t-187 -40q-104 0 -174.5 35t-111.5 94q-35 53 -48.5 119t-13.5 164zM178 1257q0 70 48 118t116 48q70 0 118 -48t48 -118 q0 -68 -48 -115.5t-118 -47.5q-68 0 -116 47.5t-48 115.5zM647 1257q0 70 48 118t116 48q70 0 118 -48t48 -118q0 -68 -48 -115.5t-118 -47.5q-68 0 -116 47.5t-48 115.5z" />
<glyph unicode="&#xfd;" horiz-adv-x="1183" d="M133 -109h217q2 -80 56.5 -137t171.5 -57q121 0 180 58.5t59 199.5v178q-45 -78 -125 -118t-186 -40q-104 0 -175 35t-112 94q-35 53 -48 119t-13 164v567h223v-493q0 -61 10 -114.5t34 -91.5t63.5 -60.5t99.5 -22.5q117 0 173 83t56 206v493h223v-999 q0 -244 -127.5 -350.5t-363.5 -106.5q-92 0 -168 32t-131 86t-86 126t-31 149zM287 1188l510 280l106 -174l-510 -280z" />
<glyph unicode="&#xfe;" horiz-adv-x="1226" d="M150 -479v1913h223v-609q45 72 128 113t167 41q109 0 198.5 -40t154 -109.5t100.5 -160.5t36 -192q0 -102 -36 -192t-100.5 -160t-154.5 -110t-198 -40q-84 0 -167 41t-128 113v-608h-223zM373 477q0 -61 19.5 -116.5t56 -96.5t88.5 -65.5t118 -24.5q63 0 114.5 24.5 t88.5 65.5t56.5 96.5t19.5 116.5t-19.5 116.5t-56.5 96.5t-88 65.5t-115 24.5q-66 0 -118 -24.5t-88.5 -65.5t-56 -96t-19.5 -117z" />
<glyph unicode="&#xff;" horiz-adv-x="1183" d="M133 -109h217q2 -80 56.5 -137t171.5 -57q121 0 180 58.5t59 199.5v178q-45 -78 -125 -118t-186 -40q-104 0 -175 35t-112 94q-35 53 -48 119t-13 164v567h223v-493q0 -61 10 -114.5t34 -91.5t63.5 -60.5t99.5 -22.5q117 0 173 83t56 206v493h223v-999 q0 -244 -127.5 -350.5t-363.5 -106.5q-92 0 -168 32t-131 86t-86 126t-31 149zM221 1257q0 66 45 112t111 46t112 -46t46 -112t-46.5 -110.5t-111.5 -44.5q-66 0 -111 44.5t-45 110.5zM690 1257q0 66 45 112t111 46t112 -46t46 -112t-46.5 -110.5t-111.5 -44.5 q-66 0 -111 44.5t-45 110.5z" />
<glyph unicode="&#x100;" horiz-adv-x="1169" d="M6 0l496 1434h166l495 -1434h-248l-61 182h-539l-61 -182h-248zM217 1645v198h733v-198h-733zM387 393h395l-196 649z" />
<glyph unicode="&#x101;" horiz-adv-x="1234" d="M78 477q0 100 36 191.5t100.5 161t154.5 109.5t198 40q84 0 167 -41t128 -113v129h223v-954h-223v129q-45 -72 -128 -113t-167 -41q-109 0 -198.5 40t-154 110t-100.5 160t-36 192zM199 1159v199h733v-199h-733zM301 477q0 -61 19.5 -116.5t56.5 -96.5t88.5 -65.5 t114.5 -24.5t115.5 24.5t89 65.5t57 96.5t20.5 116.5t-20.5 116.5t-57 96.5t-89 65.5t-115.5 24.5t-114.5 -24.5t-88.5 -65.5t-56.5 -96t-19.5 -117z" />
<glyph unicode="&#x102;" horiz-adv-x="1169" d="M6 0l496 1434h166l495 -1434h-248l-61 182h-539l-61 -182h-248zM170 1843h209q51 -121 205 -121q78 0 129 34t73 87h211q-8 -68 -45 -126t-93 -101t-128 -67.5t-147 -24.5q-78 0 -147.5 24.5t-125 67.5t-92.5 101.5t-49 125.5zM387 393h395l-196 649z" />
<glyph unicode="&#x103;" horiz-adv-x="1234" d="M78 477q0 100 36 191.5t100.5 161t154.5 109.5t198 40q84 0 167 -41t128 -113v129h223v-954h-223v129q-45 -72 -128 -113t-167 -41q-109 0 -198.5 40t-154 110t-100.5 160t-36 192zM141 1434h209q51 -121 205 -121q78 0 129 33.5t74 87.5h211q-8 -68 -45 -126.5 t-93.5 -101.5t-128 -67.5t-147.5 -24.5q-78 0 -147.5 24.5t-125 67.5t-92 101.5t-49.5 126.5zM301 477q0 -61 19.5 -116.5t56.5 -96.5t88.5 -65.5t114.5 -24.5t115.5 24.5t89 65.5t57 96.5t20.5 116.5t-20.5 116.5t-57 96.5t-89 65.5t-115.5 24.5t-114.5 -24.5t-88.5 -65.5 t-56.5 -96t-19.5 -117z" />
<glyph unicode="&#x104;" horiz-adv-x="1169" d="M6 0l496 1434h166l495 -1434h-82q-20 -14 -40.5 -29.5t-37 -34t-26.5 -42t-10 -54.5q0 -43 24.5 -75.5t69.5 -32.5q25 0 55.5 6t59.5 18v-159q-33 -10 -83.5 -20.5t-103.5 -10.5q-117 0 -176 58.5t-59 139.5q0 66 40 121.5t121 114.5l-61 182h-539l-61 -182h-248z M387 393h395l-196 649z" />
<glyph unicode="&#x105;" horiz-adv-x="1234" d="M78 477q0 100 36 191.5t100.5 161t154.5 109.5t198 40q84 0 167 -41t128 -113v129h223v-954h-57q-20 -14 -40.5 -29.5t-37 -34t-27 -42t-10.5 -54.5q0 -43 25 -75.5t70 -32.5q25 0 55.5 6t58.5 18v-159q-33 -10 -83 -20.5t-103 -10.5q-117 0 -176.5 58.5t-59.5 139.5 q0 66 40 121.5t122 114.5v129q-45 -72 -128 -113t-167 -41q-109 0 -198.5 40t-154 110t-100.5 160t-36 192zM301 477q0 -61 19.5 -116.5t56.5 -96.5t88.5 -65.5t114.5 -24.5t115.5 24.5t89 65.5t57 96.5t20.5 116.5t-20.5 116.5t-57 96.5t-89 65.5t-115.5 24.5t-114.5 -24.5 t-88.5 -65.5t-56.5 -96t-19.5 -117z" />
<glyph unicode="&#x106;" horiz-adv-x="1587" d="M78 719q0 145 50 280.5t145.5 239.5t229.5 166.5t304 62.5q160 0 283.5 -44t212 -118.5t140.5 -176t68 -218.5h-247q-12 74 -48 137.5t-90.5 109.5t-127 72.5t-160.5 26.5q-123 0 -220.5 -45t-163 -119.5t-100.5 -172t-35 -201.5q0 -111 36 -209t104.5 -173t170 -118 t232.5 -43q61 0 124 21.5t116 59.5t93 90t58 114h258q-25 -104 -84 -194.5t-147 -158t-202.5 -105.5t-246.5 -38q-176 0 -315 61.5t-236.5 165t-149.5 239.5t-52 288zM485 1708l510 281l107 -174l-510 -281z" />
<glyph unicode="&#x107;" horiz-adv-x="1093" d="M82 477q0 96 30.5 187.5t91 161t148.5 111.5t205 42t200 -33t137 -85t82 -118.5t34 -136.5h-224q-10 78 -60 126t-165 48q-66 0 -113 -24.5t-79.5 -66.5t-48 -96t-15.5 -116q0 -61 15.5 -116.5t48 -96.5t84 -65.5t122.5 -24.5q98 0 144.5 41t68.5 113h224 q-12 -74 -45 -138.5t-89.5 -112.5t-135 -75t-183.5 -27q-117 0 -206 42t-149.5 112t-91 160t-30.5 188zM238 1188l510 280l106 -174l-510 -280z" />
<glyph unicode="&#x108;" horiz-adv-x="1587" d="M78 719q0 145 50 280.5t145.5 239.5t229.5 166.5t304 62.5q160 0 283.5 -44t212 -118.5t140.5 -176t68 -218.5h-247q-12 74 -48 137.5t-90.5 109.5t-127 72.5t-160.5 26.5q-123 0 -220.5 -45t-163 -119.5t-100.5 -172t-35 -201.5q0 -111 36 -209t104.5 -173t170 -118 t232.5 -43q61 0 124 21.5t116 59.5t93 90t58 114h258q-25 -104 -84 -194.5t-147 -158t-202.5 -105.5t-246.5 -38q-176 0 -315 61.5t-236.5 165t-149.5 239.5t-52 288zM442 1696l369 297l369 -297l-140 -156l-229 184l-227 -182z" />
<glyph unicode="&#x109;" horiz-adv-x="1093" d="M82 477q0 96 30.5 187.5t91 161t148.5 111.5t205 42t200 -33t137 -85t82 -118.5t34 -136.5h-224q-10 78 -60 126t-165 48q-66 0 -113 -24.5t-79.5 -66.5t-48 -96t-15.5 -116q0 -61 15.5 -116.5t48 -96.5t84 -65.5t122.5 -24.5q98 0 144.5 41t68.5 113h224 q-12 -74 -45 -138.5t-89.5 -112.5t-135 -75t-183.5 -27q-117 0 -206 42t-149.5 112t-91 160t-30.5 188zM178 1212l369 297l368 -297l-139 -155l-229 184l-228 -182z" />
<glyph unicode="&#x10a;" horiz-adv-x="1587" d="M78 719q0 145 50 280.5t145.5 239.5t229.5 166.5t304 62.5q160 0 283.5 -44t212 -118.5t140.5 -176t68 -218.5h-247q-12 74 -48 137.5t-90.5 109.5t-127 72.5t-160.5 26.5q-123 0 -220.5 -45t-163 -119.5t-100.5 -172t-35 -201.5q0 -111 36 -209t104.5 -173t170 -118 t232.5 -43q61 0 124 21.5t116 59.5t93 90t58 114h258q-25 -104 -84 -194.5t-147 -158t-202.5 -105.5t-246.5 -38q-176 0 -315 61.5t-236.5 165t-149.5 239.5t-52 288zM643 1772q0 70 48 117.5t116 47.5q70 0 118 -48t48 -117q0 -68 -48 -116t-118 -48q-68 0 -116 48t-48 116 z" />
<glyph unicode="&#x10b;" horiz-adv-x="1093" d="M82 477q0 96 30.5 187.5t91 161t148.5 111.5t205 42t200 -33t137 -85t82 -118.5t34 -136.5h-224q-10 78 -60 126t-165 48q-66 0 -113 -24.5t-79.5 -66.5t-48 -96t-15.5 -116q0 -61 15.5 -116.5t48 -96.5t84 -65.5t122.5 -24.5q98 0 144.5 41t68.5 113h224 q-12 -74 -45 -138.5t-89.5 -112.5t-135 -75t-183.5 -27q-117 0 -206 42t-149.5 112t-91 160t-30.5 188zM395 1255q0 70 48.5 118t115.5 48q70 0 118 -48t48 -118q0 -68 -48 -115.5t-118 -47.5q-68 0 -116 47.5t-48 115.5z" />
<glyph unicode="&#x10c;" horiz-adv-x="1587" d="M78 719q0 145 50 280.5t145.5 239.5t229.5 166.5t304 62.5q160 0 283.5 -44t212 -118.5t140.5 -176t68 -218.5h-247q-12 74 -48 137.5t-90.5 109.5t-127 72.5t-160.5 26.5q-123 0 -220.5 -45t-163 -119.5t-100.5 -172t-35 -201.5q0 -111 36 -209t104.5 -173t170 -118 t232.5 -43q61 0 124 21.5t116 59.5t93 90t58 114h258q-25 -104 -84 -194.5t-147 -158t-202.5 -105.5t-246.5 -38q-176 0 -315 61.5t-236.5 165t-149.5 239.5t-52 288zM465 1835l119 156l207 -197l208 197l121 -156l-329 -297z" />
<glyph unicode="&#x10d;" horiz-adv-x="1093" d="M82 477q0 96 30.5 187.5t91 161t148.5 111.5t205 42t200 -33t137 -85t82 -118.5t34 -136.5h-224q-10 78 -60 126t-165 48q-66 0 -113 -24.5t-79.5 -66.5t-48 -96t-15.5 -116q0 -61 15.5 -116.5t48 -96.5t84 -65.5t122.5 -24.5q98 0 144.5 41t68.5 113h224 q-12 -74 -45 -138.5t-89.5 -112.5t-135 -75t-183.5 -27q-117 0 -206 42t-149.5 112t-91 160t-30.5 188zM233 1354l119 155l207 -196l209 196l121 -155l-330 -297z" />
<glyph unicode="&#x10e;" horiz-adv-x="1435" d="M150 0v1434h464q178 0 316.5 -61.5t234 -162t144.5 -229.5t49 -264t-49 -264t-144.5 -229.5t-233.5 -162t-317 -61.5h-464zM348 1835l119 156l207 -197l209 197l121 -156l-330 -297zM385 211h229q119 0 213.5 43t158 113.5t97 162t33.5 187.5t-33.5 187t-97 162t-158 114 t-213.5 43h-229v-1012z" />
<glyph unicode="&#x10f;" horiz-adv-x="1538" d="M78 477q0 100 36 191.5t100.5 161t154.5 109.5t198 40q84 0 167 -41t128 -113v609h223v-1434h-223v129q-45 -72 -128 -113t-167 -41q-109 0 -198.5 40t-154 110t-100.5 160t-36 192zM301 477q0 -61 19.5 -116.5t56.5 -96.5t88.5 -65.5t114.5 -24.5t115.5 24.5t89 65.5 t57 96.5t20.5 116.5t-20.5 116.5t-57 96.5t-89 65.5t-115.5 24.5t-114.5 -24.5t-88.5 -65.5t-56.5 -96t-19.5 -117zM1204 1350q0 66 46 112.5t112 46.5q80 0 128 -55t48 -147q0 -180 -85 -253t-241 -75v100q51 0 85 11.5t57 29.5t34 41t15 45q-4 -4 -16.5 -7t-24.5 -3 q-72 0 -115 44t-43 110z" />
<glyph unicode="&#x110;" horiz-adv-x="1435" d="M-94 618v199h244v617h464q178 0 316.5 -61.5t234 -162t144.5 -229.5t49 -264t-49 -264t-144.5 -229.5t-233.5 -162t-317 -61.5h-464v618h-244zM385 211h229q119 0 213.5 43t158 113.5t97 162t33.5 187.5t-33.5 187t-97 162t-158 114t-213.5 43h-229v-406h254v-199h-254 v-407z" />
<glyph unicode="&#x111;" horiz-adv-x="1234" d="M78 477q0 100 36 191.5t100.5 161t154.5 109.5t198 40q84 0 167 -41t128 -113v234h-172v198h172v177h223v-177h84v-198h-84v-1059h-223v129q-45 -72 -128 -113t-167 -41q-109 0 -198.5 40t-154 110t-100.5 160t-36 192zM301 477q0 -61 19.5 -116.5t56.5 -96.5t88.5 -65.5 t114.5 -24.5t115.5 24.5t89 65.5t57 96.5t20.5 116.5t-20.5 116.5t-57 96.5t-89 65.5t-115.5 24.5t-114.5 -24.5t-88.5 -65.5t-56.5 -96t-19.5 -117z" />
<glyph unicode="&#x112;" horiz-adv-x="1116" d="M150 0v1434h827v-211h-592v-406h592v-211h-592v-395h592v-211h-827zM193 1645v198h733v-198h-733z" />
<glyph unicode="&#x113;" horiz-adv-x="1087" d="M82 477q0 106 31.5 198.5t91 160t147.5 105.5t201 38q92 0 173 -33t141.5 -91t94 -136t33.5 -170q0 -25 -1 -58.5t-9 -80.5h-676q0 -51 14.5 -96.5t44 -79t77 -53t114.5 -19.5q47 0 81 10t57.5 26.5t39 40t25.5 48.5h225q-12 -61 -46 -117.5t-88 -99.5t-128 -69t-166 -26 q-121 0 -210 42t-148.5 112t-89 160t-29.5 188zM178 1235v199h733v-199h-733zM311 575h467q0 100 -64.5 159t-166.5 59q-98 0 -167 -55.5t-69 -162.5z" />
<glyph unicode="&#x114;" horiz-adv-x="1116" d="M145 1841h209q51 -121 205 -121q78 0 129 34t74 87h211q-8 -68 -45 -126t-93.5 -101t-128 -67.5t-147.5 -24.5q-78 0 -147.5 24.5t-125 67.5t-92 101.5t-49.5 125.5zM150 0v1434h827v-211h-592v-406h592v-211h-592v-395h592v-211h-827z" />
<glyph unicode="&#x115;" horiz-adv-x="1087" d="M82 477q0 106 31.5 198.5t91 160t147.5 105.5t201 38q92 0 173 -33t141.5 -91t94 -136t33.5 -170q0 -25 -1 -58.5t-9 -80.5h-676q0 -51 14.5 -96.5t44 -79t77 -53t114.5 -19.5q47 0 81 10t57.5 26.5t39 40t25.5 48.5h225q-12 -61 -46 -117.5t-88 -99.5t-128 -69t-166 -26 q-121 0 -210 42t-148.5 112t-89 160t-29.5 188zM131 1434h209q51 -121 205 -121q78 0 129 33.5t74 87.5h210q-8 -68 -44.5 -126.5t-93 -101.5t-128 -67.5t-147.5 -24.5q-78 0 -147.5 24.5t-125 67.5t-92.5 101.5t-49 126.5zM311 575h467q0 100 -64.5 159t-166.5 59 q-98 0 -167 -55.5t-69 -162.5z" />
<glyph unicode="&#x116;" horiz-adv-x="1116" d="M150 0v1434h827v-211h-592v-406h592v-211h-592v-395h592v-211h-827zM393 1772q0 70 48 117.5t116 47.5q70 0 118 -48t48 -117q0 -68 -48 -116t-118 -48q-68 0 -116 48t-48 116z" />
<glyph unicode="&#x117;" horiz-adv-x="1087" d="M82 477q0 106 31.5 198.5t91 160t147.5 105.5t201 38q92 0 173 -33t141.5 -91t94 -136t33.5 -170q0 -25 -1 -58.5t-9 -80.5h-676q0 -51 14.5 -96.5t44 -79t77 -53t114.5 -19.5q47 0 81 10t57.5 26.5t39 40t25.5 48.5h225q-12 -61 -46 -117.5t-88 -99.5t-128 -69t-166 -26 q-121 0 -210 42t-148.5 112t-89 160t-29.5 188zM311 575h467q0 100 -64.5 159t-166.5 59q-98 0 -167 -55.5t-69 -162.5zM379 1255q0 70 48 118t116 48q70 0 118 -48t48 -118q0 -68 -48.5 -115.5t-117.5 -47.5q-68 0 -116 47.5t-48 115.5z" />
<glyph unicode="&#x118;" horiz-adv-x="1116" d="M150 0v1434h827v-211h-592v-406h592v-211h-592v-395h592v-211q-20 -14 -41 -29.5t-37 -34t-26.5 -42t-10.5 -54.5q0 -43 24.5 -75.5t69.5 -32.5q25 0 55.5 6t59.5 18v-159q-33 -10 -83 -20.5t-103 -10.5q-117 0 -176.5 58.5t-59.5 139.5q0 66 40 121.5t122 114.5h-661z " />
<glyph unicode="&#x119;" horiz-adv-x="1087" d="M82 477q0 106 31.5 198.5t91 160t147.5 105.5t201 38q92 0 173 -33t141.5 -91t94 -136t33.5 -170q0 -25 -1 -58.5t-9 -80.5h-676q0 -51 14.5 -96.5t44 -79t77 -53t114.5 -19.5q47 0 81 10t57.5 26.5t39 40t25.5 48.5h225q-10 -55 -38.5 -106.5t-75 -93.5t-107.5 -70.5 t-137 -36.5q-35 -25 -60.5 -58t-25.5 -82q0 -43 24.5 -75.5t69.5 -32.5q25 0 55.5 6t59.5 18v-159q-33 -10 -83.5 -20.5t-103.5 -10.5q-117 0 -176 58.5t-59 139.5q0 61 33.5 113.5t103.5 106.5q-98 14 -170 60t-120 112.5t-71.5 149.5t-23.5 171zM311 575h467 q0 100 -64.5 159t-166.5 59q-98 0 -167 -55.5t-69 -162.5z" />
<glyph unicode="&#x11a;" horiz-adv-x="1116" d="M150 0v1434h827v-211h-592v-406h592v-211h-592v-395h592v-211h-827zM229 1835l119 156l207 -197l209 197l121 -156l-330 -297z" />
<glyph unicode="&#x11b;" horiz-adv-x="1087" d="M82 477q0 106 31.5 198.5t91 160t147.5 105.5t201 38q92 0 173 -33t141.5 -91t94 -136t33.5 -170q0 -25 -1 -58.5t-9 -80.5h-676q0 -51 14.5 -96.5t44 -79t77 -53t114.5 -19.5q47 0 81 10t57.5 26.5t39 40t25.5 48.5h225q-12 -61 -46 -117.5t-88 -99.5t-128 -69t-166 -26 q-121 0 -210 42t-148.5 112t-89 160t-29.5 188zM215 1354l119 155l207 -196l209 196l120 -155l-329 -297zM311 575h467q0 100 -64.5 159t-166.5 59q-98 0 -167 -55.5t-69 -162.5z" />
<glyph unicode="&#x11c;" horiz-adv-x="1716" d="M78 717q0 145 51 281.5t147.5 240.5t232.5 166.5t306 62.5q127 0 234.5 -36.5t188.5 -100t130 -148.5t57 -179h-237q-10 53 -41 99t-80 81t-113.5 54t-138.5 19q-115 0 -207 -45t-156.5 -119.5t-98.5 -173t-34 -202.5t33 -202.5t98.5 -173.5t164 -120t231.5 -45 q92 0 164.5 26.5t125 73t85 106.5t43.5 126h-275v211h682v-211h-158q-25 -121 -81 -220.5t-143 -171t-205.5 -111.5t-268.5 -40q-176 0 -313 62.5t-231.5 167t-143.5 240.5t-49 282zM449 1702l368 297l369 -297l-139 -156l-230 185l-227 -183z" />
<glyph unicode="&#x11d;" horiz-adv-x="1228" d="M78 477q0 100 36 191.5t100.5 161t154.5 109.5t198 40q84 0 167 -41t128 -113v129h223v-1001q0 -121 -34.5 -207t-101 -141.5t-161 -81t-213.5 -25.5t-206.5 34t-147 89t-91.5 126t-36 144h225q8 -78 72 -136t184 -58q135 0 211 60.5t76 195.5v176q-45 -72 -128 -113 t-167 -41q-109 0 -198.5 40t-154 110t-100.5 160t-36 192zM199 1212l368 297l369 -297l-139 -155l-230 184l-227 -182zM301 477q0 -61 19.5 -116.5t56.5 -96.5t88 -65.5t115 -24.5q63 0 115.5 24.5t89 65.5t57 96.5t20.5 116.5t-20.5 116.5t-57 96.5t-89 65.5t-115.5 24.5 t-114.5 -24.5t-88.5 -65.5t-56.5 -96t-19.5 -117z" />
<glyph unicode="&#x11e;" horiz-adv-x="1716" d="M78 717q0 145 51 281.5t147.5 240.5t232.5 166.5t306 62.5q127 0 234.5 -36.5t188.5 -100t130 -148.5t57 -179h-237q-10 53 -41 99t-80 81t-113.5 54t-138.5 19q-115 0 -207 -45t-156.5 -119.5t-98.5 -173t-34 -202.5t33 -202.5t98.5 -173.5t164 -120t231.5 -45 q92 0 164.5 26.5t125 73t85 106.5t43.5 126h-275v211h682v-211h-158q-25 -121 -81 -220.5t-143 -171t-205.5 -111.5t-268.5 -40q-176 0 -313 62.5t-231.5 167t-143.5 240.5t-49 282zM401 1845h209q51 -121 205 -121q78 0 129 34t74 87h211q-8 -68 -45 -126t-93.5 -101 t-128 -67.5t-147.5 -24.5q-78 0 -147.5 24.5t-125 67.5t-92 101.5t-49.5 125.5z" />
<glyph unicode="&#x11f;" horiz-adv-x="1228" d="M78 477q0 100 36 191.5t100.5 161t154.5 109.5t198 40q84 0 167 -41t128 -113v129h223v-1001q0 -121 -34.5 -207t-101 -141.5t-161 -81t-213.5 -25.5t-206.5 34t-147 89t-91.5 126t-36 144h225q8 -78 72 -136t184 -58q135 0 211 60.5t76 195.5v176q-45 -72 -128 -113 t-167 -41q-109 0 -198.5 40t-154 110t-100.5 160t-36 192zM154 1434h208q51 -121 205 -121q78 0 129.5 33.5t73.5 87.5h211q-8 -68 -45 -126.5t-93.5 -101.5t-128 -67.5t-147.5 -24.5q-78 0 -147.5 24.5t-124.5 67.5t-92 101.5t-49 126.5zM301 477q0 -61 19.5 -116.5 t56.5 -96.5t88 -65.5t115 -24.5q63 0 115.5 24.5t89 65.5t57 96.5t20.5 116.5t-20.5 116.5t-57 96.5t-89 65.5t-115.5 24.5t-114.5 -24.5t-88.5 -65.5t-56.5 -96t-19.5 -117z" />
<glyph unicode="&#x120;" horiz-adv-x="1716" d="M78 717q0 145 51 281.5t147.5 240.5t232.5 166.5t306 62.5q127 0 234.5 -36.5t188.5 -100t130 -148.5t57 -179h-237q-10 53 -41 99t-80 81t-113.5 54t-138.5 19q-115 0 -207 -45t-156.5 -119.5t-98.5 -173t-34 -202.5t33 -202.5t98.5 -173.5t164 -120t231.5 -45 q92 0 164.5 26.5t125 73t85 106.5t43.5 126h-275v211h682v-211h-158q-25 -121 -81 -220.5t-143 -171t-205.5 -111.5t-268.5 -40q-176 0 -313 62.5t-231.5 167t-143.5 240.5t-49 282zM651 1772q0 70 48.5 117.5t115.5 47.5q70 0 118 -48t48 -117q0 -68 -48 -116t-118 -48 q-68 0 -116 48t-48 116z" />
<glyph unicode="&#x121;" horiz-adv-x="1228" d="M78 477q0 100 36 191.5t100.5 161t154.5 109.5t198 40q84 0 167 -41t128 -113v129h223v-1001q0 -121 -34.5 -207t-101 -141.5t-161 -81t-213.5 -25.5t-206.5 34t-147 89t-91.5 126t-36 144h225q8 -78 72 -136t184 -58q135 0 211 60.5t76 195.5v176q-45 -72 -128 -113 t-167 -41q-109 0 -198.5 40t-154 110t-100.5 160t-36 192zM301 477q0 -61 19.5 -116.5t56.5 -96.5t88 -65.5t115 -24.5q63 0 115.5 24.5t89 65.5t57 96.5t20.5 116.5t-20.5 116.5t-57 96.5t-89 65.5t-115.5 24.5t-114.5 -24.5t-88.5 -65.5t-56.5 -96t-19.5 -117zM387 1255 q0 70 48 118t116 48q70 0 118 -48t48 -118q0 -68 -48 -115.5t-118 -47.5q-68 0 -116 47.5t-48 115.5z" />
<glyph unicode="&#x122;" horiz-adv-x="1716" d="M78 717q0 145 51 281.5t147.5 240.5t232.5 166.5t306 62.5q127 0 234.5 -36.5t188.5 -100t130 -148.5t57 -179h-237q-10 53 -41 99t-80 81t-113.5 54t-138.5 19q-115 0 -207 -45t-156.5 -119.5t-98.5 -173t-34 -202.5t33 -202.5t98.5 -173.5t164 -120t231.5 -45 q92 0 164.5 26.5t125 73t85 106.5t43.5 126h-275v211h682v-211h-158q-25 -121 -81 -220.5t-143 -171t-205.5 -111.5t-268.5 -40q-176 0 -313 62.5t-231.5 167t-143.5 240.5t-49 282zM684 -190q0 55 39 94t92 39q66 0 108 -47.5t42 -122.5q0 -152 -73 -212.5t-202 -62.5v84 q43 0 72 8.5t49 24.5q35 29 39 74q-4 -4 -14.5 -7.5t-20.5 -3.5q-59 0 -95 39.5t-36 92.5z" />
<glyph unicode="&#x123;" horiz-adv-x="1228" d="M78 477q0 100 36 191.5t100.5 161t154.5 109.5t198 40q84 0 167 -41t128 -113v129h223v-1001q0 -121 -34.5 -207t-101 -141.5t-161 -81t-213.5 -25.5t-206.5 34t-147 89t-91.5 126t-36 144h225q8 -78 72 -136t184 -58q135 0 211 60.5t76 195.5v176q-45 -72 -128 -113 t-167 -41q-109 0 -198.5 40t-154 110t-100.5 160t-36 192zM301 477q0 -61 19.5 -116.5t56.5 -96.5t88.5 -65.5t114.5 -24.5t115.5 24.5t89 65.5t57 96.5t20.5 116.5t-20.5 116.5t-57 96.5t-89 65.5t-115.5 24.5t-114.5 -24.5t-88.5 -65.5t-56.5 -96t-19.5 -117zM387 1298 q0 180 85 253t241 75v-100q-94 0 -142 -41q-23 -16 -34 -40t-15 -46q4 4 16.5 7t24.5 3q72 0 115 -44t43 -110t-46 -112.5t-112 -46.5q-80 0 -128 55t-48 147z" />
<glyph unicode="&#x124;" horiz-adv-x="1361" d="M150 0v1434h235v-617h592v617h235v-1434h-235v606h-592v-606h-235zM311 1696l369 297l369 -297l-140 -156l-229 184l-227 -182z" />
<glyph unicode="&#x125;" horiz-adv-x="1165" d="M150 0v1434h223v-613q45 78 125 118t186 40q104 0 175 -35t112 -94q35 -53 48 -118.5t13 -164.5v-567h-223v494q0 61 -10.5 114.5t-34 91t-63 60t-99.5 22.5q-117 0 -173 -83t-56 -205v-494h-223zM264 1696l369 297l368 -297l-139 -156l-229 184l-227 -182z" />
<glyph unicode="&#x126;" horiz-adv-x="1361" d="M150 0v1434h235v-220h592v220h235v-1434h-235v606h-592v-606h-235zM385 817h592v199h-592v-199z" />
<glyph unicode="&#x127;" horiz-adv-x="1165" d="M0 1059v198h150v177h223v-177h360v-198h-360v-238q45 78 125 118t186 40q104 0 175 -35t112 -94q35 -53 48 -118.5t13 -164.5v-567h-223v494q0 61 -10.5 114.5t-34 91t-63 60t-99.5 22.5q-117 0 -173 -83t-56 -205v-494h-223v1059h-150z" />
<glyph unicode="&#x128;" horiz-adv-x="542" d="M-104 1782q45 29 78.5 45t58 23.5t42 8.5t31.5 1q20 0 61.5 -8.5t85.5 -19.5t83 -19.5t59 -8.5q16 0 30.5 2t32 8.5t41 16.5t60.5 29l88 -142q-80 -66 -138 -79t-85 -13q-23 0 -62.5 8t-84 18.5t-83 18.5t-59.5 8q-41 0 -73.5 -13t-69.5 -30zM150 0v1434h243v-1434h-243z " />
<glyph unicode="&#x129;" horiz-adv-x="612" d="M-70 1296q45 29 79 45.5t58.5 23.5t42 8t31.5 1q20 0 61.5 -8t85.5 -19.5t83 -19.5t59 -8q16 0 30.5 2t32 8t41 16.5t60.5 28.5l88 -141q-80 -66 -138.5 -79t-84.5 -13q-23 0 -63 8t-84 18.5t-83 18.5t-59 8q-41 0 -74 -13.5t-69 -29.5zM195 0v954h223v-954h-223z" />
<glyph unicode="&#x12a;" horiz-adv-x="542" d="M-94 1645v198h733v-198h-733zM150 0v1434h243v-1434h-243z" />
<glyph unicode="&#x12b;" horiz-adv-x="612" d="M-59 1157v199h733v-199h-733zM197 0v954h223v-954h-223z" />
<glyph unicode="&#x12c;" horiz-adv-x="542" d="M-141 1843h209q51 -121 204 -121q78 0 129.5 34t73.5 87h211q-8 -68 -45 -126t-93 -101t-128 -67.5t-148 -24.5q-78 0 -147.5 24.5t-124.5 67.5t-92 101.5t-49 125.5zM150 0v1434h243v-1434h-243z" />
<glyph unicode="&#x12d;" horiz-adv-x="612" d="M-106 1434h208q51 -121 205 -121q78 0 129 33.5t74 87.5h211q-8 -68 -45 -126.5t-93.5 -101.5t-128 -67.5t-147.5 -24.5q-78 0 -147.5 24.5t-124.5 67.5t-92 101.5t-49 126.5zM197 0v954h223v-954h-223z" />
<glyph unicode="&#x12e;" horiz-adv-x="542" d="M-12 -236q0 66 40 121.5t122 114.5v1434h243v-1434h-78q-20 -14 -40.5 -29.5t-37 -34t-26.5 -42t-10 -54.5q0 -43 24.5 -75.5t69.5 -32.5q25 0 55.5 6t59.5 18v-159q-33 -10 -83.5 -20.5t-103.5 -10.5q-117 0 -176 58.5t-59 139.5z" />
<glyph unicode="&#x12f;" horiz-adv-x="612" d="M86 -236q0 66 40 121.5t122 114.5v954h223v-954h-57q-20 -14 -41 -29.5t-37.5 -34t-26.5 -42t-10 -54.5q0 -43 24.5 -75.5t69.5 -32.5q25 0 55.5 6t59.5 18v-159q-33 -10 -83 -20.5t-103 -10.5q-117 0 -176.5 58.5t-59.5 139.5zM195 1303q0 70 48 117.5t115 47.5 q70 0 118 -48t48 -117q0 -68 -48 -116t-118 -48q-68 0 -115.5 48t-47.5 116z" />
<glyph unicode="&#x130;" horiz-adv-x="542" d="M106 1772q0 70 48.5 117.5t115.5 47.5q70 0 118 -48t48 -117q0 -68 -48 -116t-118 -48q-68 0 -116 48t-48 116zM150 0v1434h243v-1434h-243z" />
<glyph unicode="&#x131;" horiz-adv-x="487" d="M133 0v954h223v-954h-223z" />
<glyph unicode="&#x132;" horiz-adv-x="1640" d="M150 0v1434h243v-1434h-243zM567 467h236q0 -129 56 -210t173 -81t175.5 80t58.5 209v969h235v-969q0 -104 -30.5 -195.5t-91 -159t-147.5 -106.5t-200 -39q-111 0 -197.5 39t-146 107.5t-90.5 159.5t-31 196z" />
<glyph unicode="&#x133;" horiz-adv-x="1216" d="M141 1303q0 70 48.5 117.5t115.5 47.5q70 0 118 -48t48 -117q0 -68 -48 -116t-118 -48q-68 0 -116 48t-48 116zM195 0v954h223v-954h-223zM653 -293q33 -8 48.5 -10t29.5 -2q35 0 53.5 21.5t18.5 74.5v1163h223v-1177q0 -80 -17.5 -133.5t-46 -85t-64.5 -45t-73 -13.5 q-53 0 -101 6.5t-71 16.5v184zM750 1303q0 70 48 117.5t115 47.5q70 0 118 -48t48 -117q0 -68 -48 -116t-118 -48q-68 0 -115.5 48t-47.5 116z" />
<glyph unicode="&#x134;" horiz-adv-x="1097" d="M25 467h235q0 -129 56.5 -210t172.5 -81q117 0 175.5 80t58.5 209v969h235v-969q0 -104 -30.5 -195.5t-91 -159t-147.5 -106.5t-200 -39q-111 0 -197.5 39t-146 107.5t-90 159.5t-30.5 196zM471 1694l369 297l368 -297l-139 -156l-229 184l-228 -182z" />
<glyph unicode="&#x135;" horiz-adv-x="604" d="M-59 1329l368 297l369 -297l-139 -155l-230 184l-227 -182zM41 -293q33 -8 48 -10t30 -2q35 0 53 21.5t18 74.5v1163h224v-1177q0 -80 -17.5 -133.5t-46 -85t-64.5 -45t-73 -13.5q-53 0 -101.5 6.5t-70.5 16.5v184z" />
<glyph unicode="&#x136;" horiz-adv-x="1243" d="M150 0v1434h235v-631l533 631h294l-606 -717l606 -717h-294l-533 629v-629h-235zM496 -168q0 55 38.5 94t92.5 39q66 0 107.5 -47t41.5 -123q0 -152 -72.5 -212t-201.5 -62v84q43 0 71.5 8t49.5 25q35 29 39 73q-4 -4 -14.5 -7t-20.5 -3q-59 0 -95 39t-36 92z" />
<glyph unicode="&#x137;" horiz-adv-x="1021" d="M150 0v1434h223v-902l350 422h278l-397 -477l397 -477h-278l-350 420v-420h-223zM373 -168q0 55 39 94t92 39q66 0 107.5 -47t41.5 -123q0 -152 -72.5 -212t-201.5 -62v84q43 0 71.5 8t49.5 25q35 29 39 73q-4 -4 -14.5 -7t-20.5 -3q-59 0 -95 39t-36 92z" />
<glyph unicode="&#x138;" horiz-adv-x="1021" d="M150 0v954h223v-422l350 422h278l-397 -477l397 -477h-278l-350 420v-420h-223z" />
<glyph unicode="&#x139;" horiz-adv-x="878" d="M-35 1708l510 281l107 -174l-510 -281zM150 0v1434h235v-1223h442v-211h-677z" />
<glyph unicode="&#x13a;" horiz-adv-x="522" d="M-47 1712l510 281l106 -174l-510 -281zM150 0v1434h223v-1434h-223z" />
<glyph unicode="&#x13b;" horiz-adv-x="878" d="M150 0v1434h235v-1223h442v-211h-677zM299 -168q0 55 39 94t92 39q66 0 108 -47t42 -123q0 -152 -73 -212t-202 -62v84q43 0 72 8t49 25q35 29 39 73q-10 -10 -35 -10q-59 0 -95 39t-36 92z" />
<glyph unicode="&#x13c;" horiz-adv-x="522" d="M121 -168q0 55 39 94t92 39q66 0 107.5 -47t41.5 -123q0 -152 -72.5 -212t-201.5 -62v84q43 0 71.5 8t49.5 25q35 29 39 73q-10 -10 -35 -10q-59 0 -95 39t-36 92zM150 0v1434h223v-1434h-223z" />
<glyph unicode="&#x13d;" horiz-adv-x="878" d="M-63 1835l118 156l207 -197l209 197l121 -156l-330 -297zM150 0v1434h235v-1223h442v-211h-677z" />
<glyph unicode="&#x13e;" horiz-adv-x="825" d="M150 0v1434h223v-1434h-223zM492 1356q0 66 46 113t111 47q80 0 128 -55.5t48 -147.5q0 -180 -85 -253t-240 -75v100q51 0 84.5 11.5t56.5 29.5t34 41t15 45q-4 -4 -16 -7t-25 -3q-72 0 -114.5 44t-42.5 110z" />
<glyph unicode="&#x13f;" horiz-adv-x="878" d="M150 0v1434h235v-1223h442v-211h-677zM549 639q0 70 48 118t116 48q70 0 118 -48t48 -118q0 -68 -48.5 -116t-117.5 -48q-68 0 -116 48t-48 116z" />
<glyph unicode="&#x140;" horiz-adv-x="741" d="M150 0v1434h223v-1434h-223zM412 639q0 70 48 118t115 48q70 0 118 -48t48 -118q0 -68 -48 -116t-118 -48q-68 0 -115.5 48t-47.5 116z" />
<glyph unicode="&#x141;" horiz-adv-x="878" d="M59 485v213l91 37v699h235v-603l342 144v-213l-342 -144v-407h442v-211h-677v522z" />
<glyph unicode="&#x142;" horiz-adv-x="522" d="M14 485v213l136 72v664h243v-535l142 76v-213l-142 -76v-686h-243v557z" />
<glyph unicode="&#x143;" horiz-adv-x="1359" d="M150 0v1434h258l567 -1020v1020h235v-1434h-258l-567 1020v-1020h-235zM371 1708l510 281l106 -174l-510 -281z" />
<glyph unicode="&#x144;" horiz-adv-x="1165" d="M150 0v954h223v-133q45 78 125 118t186 40q104 0 175 -35t112 -94q35 -53 48 -118.5t13 -164.5v-567h-223v494q0 61 -10.5 114.5t-34 91t-63 60t-99.5 22.5q-117 0 -173 -83t-56 -205v-494h-223zM274 1188l510 280l107 -174l-510 -280z" />
<glyph unicode="&#x145;" horiz-adv-x="1359" d="M150 0v1434h258l567 -1020v1020h235v-1434h-258l-567 1020v-1020h-235zM539 -168q0 55 38.5 94t92.5 39q66 0 107.5 -47t41.5 -123q0 -152 -72.5 -212t-201.5 -62v84q43 0 71.5 8t49.5 25q35 29 39 73q-4 -4 -14.5 -7t-20.5 -3q-59 0 -95 39t-36 92z" />
<glyph unicode="&#x146;" horiz-adv-x="1165" d="M150 0v954h223v-133q45 78 125 118t186 40q104 0 175 -35t112 -94q35 -53 48 -118.5t13 -164.5v-567h-223v494q0 61 -10.5 114.5t-34 91t-63 60t-99.5 22.5q-117 0 -173 -83t-56 -205v-494h-223zM473 -168q0 55 39 94t92 39q66 0 108 -47t42 -123q0 -152 -73 -212 t-202 -62v84q43 0 72 8t49 25q35 29 39 73q-4 -4 -14.5 -7t-20.5 -3q-59 0 -95 39t-36 92z" />
<glyph unicode="&#x147;" horiz-adv-x="1359" d="M150 0v1434h258l567 -1020v1020h235v-1434h-258l-567 1020v-1020h-235zM352 1835l119 156l207 -197l209 197l121 -156l-330 -297z" />
<glyph unicode="&#x148;" horiz-adv-x="1165" d="M150 0v954h223v-133q45 78 125 118t186 40q104 0 175 -35t112 -94q35 -53 48 -118.5t13 -164.5v-567h-223v494q0 61 -10.5 114.5t-34 91t-63 60t-99.5 22.5q-117 0 -173 -83t-56 -205v-494h-223zM285 1468l118 156l207 -197l209 197l121 -156l-330 -297z" />
<glyph unicode="&#x149;" horiz-adv-x="1165" d="M119 1376q0 55 39 94t92 39q66 0 107.5 -47t41.5 -123q0 -152 -72.5 -212t-201.5 -62v84q43 0 71.5 9t49.5 24q35 29 39 73q-4 -4 -14.5 -7t-20.5 -3q-59 0 -95 39t-36 92zM150 0v954h223v-133q45 78 125 118t186 40q104 0 175 -35t112 -94q35 -53 48 -118.5t13 -164.5 v-567h-223v494q0 61 -10.5 114.5t-34 91t-63 60t-99.5 22.5q-117 0 -173 -83t-56 -205v-494h-223z" />
<glyph unicode="&#x14a;" horiz-adv-x="1359" d="M150 0v1434h235l590 -1020v1020h235v-1436q0 -104 -30.5 -195.5t-91 -159t-147.5 -106.5t-200 -39q-115 0 -197.5 46t-142.5 118l154 148q43 -43 82 -72t104 -29q117 0 175.5 80t58.5 209l-590 1022v-1020h-235z" />
<glyph unicode="&#x14b;" horiz-adv-x="1165" d="M150 0v954h223v-133q45 78 125 118t186 40q104 0 175 -35t112 -94q35 -53 48 -118.5t13 -164.5v-598q0 -98 -28.5 -184t-85 -149.5t-139.5 -100.5t-189 -37q-109 0 -186.5 44t-135.5 112l146 139q41 -41 76.5 -67.5t99.5 -26.5q111 0 165 74.5t54 195.5v525 q0 61 -10.5 114.5t-34 91t-63 60t-99.5 22.5q-117 0 -173 -83t-56 -205v-494h-223z" />
<glyph unicode="&#x14c;" horiz-adv-x="1638" d="M78 717q0 145 51 281.5t146.5 240.5t233.5 166.5t310 62.5t310.5 -62.5t233.5 -166.5t146.5 -240.5t51.5 -281.5t-51.5 -281.5t-146.5 -241t-233.5 -167t-310.5 -62.5t-310 62.5t-233.5 167t-146.5 240.5t-51 282zM326 717q0 -104 33.5 -201.5t98 -173.5t155.5 -121 t206 -45t206 45t155.5 121t98.5 173t34 202q0 104 -34 201.5t-98.5 173t-155.5 120.5t-206 45t-206 -45t-155.5 -120.5t-98 -173t-33.5 -201.5zM453 1645v198h733v-198h-733z" />
<glyph unicode="&#x14d;" horiz-adv-x="1163" d="M78 477q0 100 36 191.5t101.5 161t157.5 109.5t207 40t208 -40t159.5 -109.5t102 -160.5t35.5 -192q0 -102 -35.5 -192t-102 -160t-159.5 -110t-208 -40t-207 40t-157.5 110t-101.5 160t-36 192zM215 1157v199h733v-199h-733zM301 477q0 -61 19.5 -116.5t56.5 -96.5 t88.5 -65.5t114.5 -24.5t115.5 24.5t89 65.5t57 96.5t20.5 116.5t-20.5 116.5t-57 96.5t-89 65.5t-115.5 24.5t-114.5 -24.5t-88.5 -65.5t-56.5 -96t-19.5 -117z" />
<glyph unicode="&#x14e;" horiz-adv-x="1638" d="M78 717q0 145 51 281.5t146.5 240.5t233.5 166.5t310 62.5t310.5 -62.5t233.5 -166.5t146.5 -240.5t51.5 -281.5t-51.5 -281.5t-146.5 -241t-233.5 -167t-310.5 -62.5t-310 62.5t-233.5 167t-146.5 240.5t-51 282zM326 717q0 -104 33.5 -201.5t98 -173.5t155.5 -121 t206 -45t206 45t155.5 121t98.5 173t34 202q0 104 -34 201.5t-98.5 173t-155.5 120.5t-206 45t-206 -45t-155.5 -120.5t-98 -173t-33.5 -201.5zM406 1841h208q51 -121 205 -121q78 0 129 34t74 87h211q-8 -68 -45 -126t-93.5 -101t-128 -67.5t-147.5 -24.5 q-78 0 -147.5 24.5t-124.5 67.5t-92 101.5t-49 125.5z" />
<glyph unicode="&#x14f;" horiz-adv-x="1163" d="M78 477q0 100 36 191.5t101.5 161t157.5 109.5t207 40t208 -40t159.5 -109.5t102 -160.5t35.5 -192q0 -102 -35.5 -192t-102 -160t-159.5 -110t-208 -40t-207 40t-157.5 110t-101.5 160t-36 192zM168 1434h209q51 -121 205 -121q78 0 129 33.5t73 87.5h211 q-8 -68 -45 -126.5t-93 -101.5t-128 -67.5t-147 -24.5q-78 0 -147.5 24.5t-125 67.5t-92.5 101.5t-49 126.5zM301 477q0 -61 19.5 -116.5t56.5 -96.5t88.5 -65.5t114.5 -24.5t115.5 24.5t89 65.5t57 96.5t20.5 116.5t-20.5 116.5t-57 96.5t-89 65.5t-115.5 24.5 t-114.5 -24.5t-88.5 -65.5t-56.5 -96t-19.5 -117z" />
<glyph unicode="&#x150;" horiz-adv-x="1638" d="M78 717q0 145 51 281.5t146.5 240.5t233.5 166.5t310 62.5t310.5 -62.5t233.5 -166.5t146.5 -240.5t51.5 -281.5t-51.5 -281.5t-146.5 -241t-233.5 -167t-310.5 -62.5t-310 62.5t-233.5 167t-146.5 240.5t-51 282zM326 717q0 -104 33.5 -201.5t98 -173.5t155.5 -121 t206 -45t206 45t155.5 121t98.5 173t34 202q0 104 -34 201.5t-98.5 173t-155.5 120.5t-206 45t-206 -45t-155.5 -120.5t-98 -173t-33.5 -201.5zM449 1642l256 340l196 -98l-346 -299zM848 1642l256 340l196 -98l-346 -299z" />
<glyph unicode="&#x151;" horiz-adv-x="1163" d="M78 477q0 100 36 191.5t101.5 161t157.5 109.5t207 40t208 -40t159.5 -109.5t102 -160.5t35.5 -192q0 -102 -35.5 -192t-102 -160t-159.5 -110t-208 -40t-207 40t-157.5 110t-101.5 160t-36 192zM238 1163l256 340l196 -98l-346 -299zM301 477q0 -61 19.5 -116.5 t56.5 -96.5t88 -65.5t115 -24.5q63 0 115.5 24.5t89 65.5t57 96.5t20.5 116.5t-20.5 116.5t-57 96.5t-89 65.5t-115.5 24.5t-114.5 -24.5t-88.5 -65.5t-56.5 -96.5t-19.5 -116.5zM637 1163l256 340l197 -98l-347 -299z" />
<glyph unicode="&#x152;" horiz-adv-x="2281" d="M78 713q0 145 51 281t146.5 240.5t233.5 167t310 62.5q154 0 279 -49t217 -135v154h827v-211h-592v-406h592v-211h-592v-395h592v-211h-827v145q-92 -86 -217 -135t-279 -49q-172 0 -310 62.5t-233.5 167t-146.5 240.5t-51 282zM326 713q0 -104 33.5 -201.5t98 -173.5 t155.5 -121t206 -45t206 45t155.5 121t98.5 173t34 202q0 104 -34 201.5t-98.5 173t-155.5 120.5t-206 45t-206 -45t-155.5 -120.5t-98 -173t-33.5 -201.5z" />
<glyph unicode="&#x153;" horiz-adv-x="1867" d="M78 477q0 100 36 191.5t101.5 161t157.5 109.5t207 40q123 0 220 -45t163 -123q59 78 153 123t217 45q92 0 173 -33t141.5 -91t94.5 -136t34 -170q0 -25 -1 -58.5t-10 -80.5h-675q0 -51 14 -96.5t44 -79t77 -53t114 -19.5q47 0 81 10t57.5 26.5t39 40t25.5 48.5h225 q-12 -61 -45.5 -117.5t-88 -99.5t-128 -69t-166.5 -26q-129 0 -221 46.5t-151 123.5q-66 -78 -165.5 -124t-221.5 -46q-115 0 -207 40t-157.5 110t-101.5 160t-36 192zM301 477q0 -61 19.5 -116.5t56.5 -96.5t88.5 -65.5t114.5 -24.5t115.5 23.5t89 63.5t57 95.5t20.5 120.5 q0 63 -20.5 118.5t-57 96.5t-89 64.5t-115.5 23.5t-114.5 -24.5t-88.5 -65.5t-56.5 -96t-19.5 -117zM1092 575h467q0 100 -65 159t-167 59q-98 0 -166.5 -55.5t-68.5 -162.5z" />
<glyph unicode="&#x154;" horiz-adv-x="1247" d="M150 0v1434h514q115 0 208 -40t159.5 -110t102 -161t35.5 -191q0 -78 -20.5 -148.5t-60 -131t-96 -108.5t-126.5 -77l285 -467h-268l-262 430h-236v-430h-235zM315 1708l510 281l107 -174l-510 -281zM385 641h279q61 0 111 23.5t85 63.5t54.5 92t19.5 112 q0 59 -19.5 111.5t-54.5 92.5t-85 63.5t-111 23.5h-279v-582z" />
<glyph unicode="&#x155;" horiz-adv-x="774" d="M80 1229l510 280l106 -174l-510 -280zM150 0v954h223v-153q16 33 46 62.5t69.5 53t86 37t93.5 13.5q53 0 88 -15v-204q-27 6 -44.5 8t-43.5 2q-143 0 -219 -83t-76 -263v-412h-223z" />
<glyph unicode="&#x156;" horiz-adv-x="1247" d="M150 0v1434h514q115 0 208 -40t159.5 -110t102 -161t35.5 -191q0 -78 -20.5 -148.5t-60 -131t-96 -108.5t-126.5 -77l285 -467h-268l-262 430h-236v-430h-235zM385 641h279q61 0 111 23.5t85 63.5t54.5 92t19.5 112q0 59 -19.5 111.5t-54.5 92.5t-85 63.5t-111 23.5h-279 v-582zM483 -168q0 55 39 94t92 39q66 0 108 -47t42 -123q0 -152 -73 -212t-202 -62v84q84 0 120 32.5t40 73.5q-4 -4 -14 -7t-21 -3q-59 0 -95 39t-36 92z" />
<glyph unicode="&#x157;" horiz-adv-x="774" d="M121 -168q0 55 39 94t92 39q66 0 107.5 -47t41.5 -123q0 -152 -72.5 -212t-201.5 -62v84q43 0 71.5 8t49.5 25q35 29 39 73q-10 -10 -35 -10q-59 0 -95 39t-36 92zM150 0v954h223v-153q16 33 46 62.5t69.5 53t86 37t93.5 13.5q53 0 88 -15v-204q-27 6 -44.5 8t-43.5 2 q-143 0 -219 -83t-76 -263v-412h-223z" />
<glyph unicode="&#x158;" horiz-adv-x="1247" d="M150 0v1434h514q115 0 208 -40t159.5 -110t102 -161t35.5 -191q0 -78 -20.5 -148.5t-60 -131t-96 -108.5t-126.5 -77l285 -467h-268l-262 430h-236v-430h-235zM254 1839l119 156l207 -197l208 197l121 -156l-329 -297zM385 641h279q61 0 111 23.5t85 63.5t54.5 92 t19.5 112q0 59 -19.5 111.5t-54.5 92.5t-85 63.5t-111 23.5h-279v-582z" />
<glyph unicode="&#x159;" horiz-adv-x="774" d="M59 1470l119 156l207 -196l209 196l121 -156l-330 -296zM150 0v954h223v-153q16 33 46 62.5t69.5 53t86 37t93.5 13.5q53 0 88 -15v-204q-27 6 -44.5 8t-43.5 2q-143 0 -219 -83t-76 -263v-412h-223z" />
<glyph unicode="&#x15a;" horiz-adv-x="1165" d="M86 469h236q0 -141 77.5 -217t200.5 -76q49 0 92 15.5t75 43t50.5 66.5t18.5 88q0 55 -21.5 92t-55.5 62.5t-74 43t-77 29.5q-98 35 -184 71t-150.5 86t-101.5 122t-37 180q0 88 36 161t96.5 125t141 79.5t171.5 27.5q96 0 180 -32.5t145.5 -92t96 -141.5t34.5 -182h-235 q0 106 -57.5 171.5t-157.5 65.5q-88 0 -151.5 -45t-63.5 -137q0 -43 17.5 -76.5t47 -58.5t66.5 -43t78 -33q84 -31 171 -65.5t158.5 -85.5t116.5 -123t45 -174q0 -111 -39 -195t-106.5 -141t-156.5 -86t-189 -29q-98 0 -187.5 34t-157 98.5t-108.5 157.5t-41 214zM274 1708 l510 281l107 -174l-510 -281z" />
<glyph unicode="&#x15b;" horiz-adv-x="929" d="M74 322h217q0 -94 52 -132t132 -38q66 0 111 24.5t45 85.5q0 33 -18.5 53.5t-55.5 38t-92 36t-131 46.5q-49 18 -91 40t-73 50.5t-47.5 71.5t-16.5 104q0 68 29 119t78 87t113.5 53.5t138.5 17.5q76 0 142.5 -24.5t115.5 -67.5t77.5 -102.5t28.5 -129.5h-217 q0 68 -35.5 108t-117.5 40q-57 0 -97 -26.5t-40 -78.5q0 -31 16 -50t49 -34.5t82 -32.5t115 -42q49 -18 96 -39t84 -51.5t58.5 -73.5t21.5 -109q0 -74 -30 -129t-82 -91t-121.5 -53.5t-147.5 -17.5t-147.5 22.5t-124 67t-86 109t-31.5 148.5zM158 1188l510 280l106 -174 l-510 -280z" />
<glyph unicode="&#x15c;" horiz-adv-x="1165" d="M86 469h236q0 -141 77.5 -217t200.5 -76q49 0 92 15.5t75 43t50.5 66.5t18.5 88q0 55 -21.5 92t-55.5 62.5t-74 43t-77 29.5q-98 35 -184 71t-150.5 86t-101.5 122t-37 180q0 88 36 161t96.5 125t141 79.5t171.5 27.5q96 0 180 -32.5t145.5 -92t96 -141.5t34.5 -182h-235 q0 106 -57.5 171.5t-157.5 65.5q-88 0 -151.5 -45t-63.5 -137q0 -43 17.5 -76.5t47 -58.5t66.5 -43t78 -33q84 -31 171 -65.5t158.5 -85.5t116.5 -123t45 -174q0 -111 -39 -195t-106.5 -141t-156.5 -86t-189 -29q-98 0 -187.5 34t-157 98.5t-108.5 157.5t-41 214zM213 1696 l369 297l368 -297l-139 -156l-229 184l-228 -182z" />
<glyph unicode="&#x15d;" horiz-adv-x="929" d="M74 322h217q0 -94 52 -132t132 -38q66 0 111 24.5t45 85.5q0 33 -18.5 53.5t-55.5 38t-92 36t-131 46.5q-49 18 -91 40t-73 50.5t-47.5 71.5t-16.5 104q0 68 29 119t78 87t113.5 53.5t138.5 17.5q76 0 142.5 -24.5t115.5 -67.5t77.5 -102.5t28.5 -129.5h-217 q0 68 -35.5 108t-117.5 40q-57 0 -97 -26.5t-40 -78.5q0 -31 16 -50t49 -34.5t82 -32.5t115 -42q49 -18 96 -39t84 -51.5t58.5 -73.5t21.5 -109q0 -74 -30 -129t-82 -91t-121.5 -53.5t-147.5 -17.5t-147.5 22.5t-124 67t-86 109t-31.5 148.5zM96 1212l369 297l369 -297 l-140 -155l-229 184l-227 -182z" />
<glyph unicode="&#x15e;" horiz-adv-x="1165" d="M86 469h236q0 -141 77.5 -217t200.5 -76q49 0 92 15.5t75 43t50.5 66.5t18.5 88q0 55 -21.5 92t-55.5 62.5t-74 43t-77 29.5q-98 35 -184 71t-150.5 86t-101.5 122t-37 180q0 88 36 161t96.5 125t141 79.5t171.5 27.5q96 0 180 -32.5t145.5 -92t96 -141.5t34.5 -182h-235 q0 106 -57.5 171.5t-157.5 65.5q-88 0 -151.5 -45t-63.5 -137q0 -43 17.5 -76.5t47 -58.5t66.5 -43t78 -33q84 -31 171 -65.5t158.5 -85.5t116.5 -123t45 -174q0 -100 -32.5 -179t-89 -135.5t-132.5 -89t-164 -43.5v-100q27 27 76 27q27 0 55.5 -11.5t52 -34t39 -55.5 t15.5 -76q0 -35 -12.5 -70.5t-39 -64t-65.5 -46t-92 -17.5q-12 0 -43 4t-63.5 21.5t-62.5 53t-38 97.5h131q18 -61 76 -62q35 0 56.5 23t21.5 61q0 35 -22.5 55.5t-53.5 20.5q-43 0 -63 -37h-111v211q-86 12 -164 50t-135 101.5t-91 150.5t-34 198z" />
<glyph unicode="&#x15f;" horiz-adv-x="929" d="M74 322h217q0 -94 52 -132t132 -38q66 0 111 24.5t45 85.5q0 33 -18.5 53.5t-55.5 38t-92 36t-131 46.5q-49 18 -91 40t-73 50.5t-47.5 71.5t-16.5 104q0 68 29 119t78 87t113.5 53.5t138.5 17.5q76 0 142.5 -24.5t115.5 -67.5t77.5 -102.5t28.5 -129.5h-217 q0 68 -35.5 108t-117.5 40q-57 0 -97 -26.5t-40 -78.5q0 -31 16 -50t49 -34.5t82 -33t115 -41.5q49 -18 96 -39t84 -51.5t58.5 -73.5t21.5 -109q0 -68 -24.5 -119t-68.5 -86.5t-103.5 -55t-127.5 -25.5v-111q27 27 76 27q27 0 55.5 -11.5t52 -34t39 -55.5t15.5 -76 q0 -35 -12.5 -70.5t-39 -64t-65.5 -46t-92 -17.5q-12 0 -43 4t-63.5 21.5t-62.5 53t-38 97.5h131q18 -61 76 -62q35 0 56.5 23t21.5 61q0 35 -22.5 55.5t-53.5 20.5q-43 0 -64 -37h-110v226q-63 10 -118.5 36.5t-96.5 69.5t-64.5 100.5t-23.5 131.5z" />
<glyph unicode="&#x160;" horiz-adv-x="1165" d="M86 469h236q0 -141 77.5 -217t200.5 -76q49 0 92 15.5t75 43t50.5 66.5t18.5 88q0 55 -21.5 92t-55.5 62.5t-74 43t-77 29.5q-98 35 -184 71t-150.5 86t-101.5 122t-37 180q0 88 37 161t98.5 125t143.5 79.5t172 27.5q96 0 179 -32.5t143.5 -92t94 -141.5t33.5 -182h-235 q0 106 -57.5 171.5t-157.5 65.5q-88 0 -151.5 -45t-63.5 -137q0 -43 17.5 -76.5t47 -58.5t66.5 -43t78 -33q84 -31 171 -65.5t158.5 -85.5t116.5 -123t45 -174q0 -111 -39 -195t-106.5 -141t-156.5 -86t-189 -29q-98 0 -187.5 34t-157 98.5t-108.5 157.5t-41 214zM260 1862 l119 155l207 -196l209 196l120 -155l-329 -297z" />
<glyph unicode="&#x161;" horiz-adv-x="929" d="M74 322h217q0 -94 52 -132t132 -38q66 0 111 24.5t45 85.5q0 33 -18.5 53.5t-55.5 38t-92 36t-131 46.5q-49 18 -91 40t-73 50.5t-47.5 71.5t-16.5 104q0 68 29 119t78 87t113.5 53.5t138.5 17.5q76 0 142.5 -24.5t115.5 -67.5t77.5 -102.5t28.5 -129.5h-217 q0 68 -35.5 108t-117.5 40q-57 0 -97 -26.5t-40 -78.5q0 -31 16 -50t49 -34.5t82 -32.5t115 -42q49 -18 96 -39t84 -51.5t58.5 -73.5t21.5 -109q0 -74 -30 -129t-82 -91t-121.5 -53.5t-147.5 -17.5t-147.5 22.5t-124 67t-86 109t-31.5 148.5zM139 1341l119 156l207 -197 l209 197l121 -156l-330 -297z" />
<glyph unicode="&#x162;" horiz-adv-x="987" d="M20 1223v211h947v-211h-357v-1223h-235v1223h-355zM360 -168q0 55 39 94t93 39q66 0 107.5 -47t41.5 -123q0 -152 -72.5 -212t-201.5 -62v84q84 0 119.5 32.5t39.5 73.5q-10 -10 -34 -10q-59 0 -95.5 39t-36.5 92z" />
<glyph unicode="&#x163;" horiz-adv-x="718" d="M41 768v186h162v289h223v-289h219v-186h-219v-393q0 -61 9 -98t27.5 -56.5t44 -26t58.5 -6.5q27 0 62 2.5t51 6.5v-197q-27 -4 -72 -8t-94 -4q-41 0 -94 7t-101.5 40t-81 100.5t-32.5 188.5v444h-162zM219 -168q0 55 39 94t92 39q66 0 108 -47t42 -123q0 -152 -73 -212 t-202 -62v84q43 0 72 8t49 25q35 29 39 73q-10 -10 -35 -10q-59 0 -95 39t-36 92z" />
<glyph unicode="&#x164;" horiz-adv-x="987" d="M20 1223v211h947v-211h-357v-1223h-235v1223h-355zM166 1839l119 156l207 -197l208 197l121 -156l-329 -297z" />
<glyph unicode="&#x165;" horiz-adv-x="1155" d="M41 768v186h162v289h223v-289h219v-186h-219v-393q0 -61 9 -98t27.5 -56.5t44 -26t58.5 -6.5q27 0 62 2.5t51 6.5v-197q-27 -4 -72 -8t-94 -4q-41 0 -94 7t-101.5 40t-81 100.5t-32.5 188.5v444h-162zM688 1309q0 66 46 112.5t112 46.5q80 0 128 -55t48 -147 q0 -180 -85 -253t-241 -75v100q51 0 85 11.5t57 29.5t34 41t15 45q-4 -4 -16.5 -7t-24.5 -3q-72 0 -115 44t-43 110z" />
<glyph unicode="&#x166;" horiz-adv-x="987" d="M20 1223v211h947v-211h-357v-199h250v-199h-250v-825h-235v825h-248v199h248v199h-355z" />
<glyph unicode="&#x167;" horiz-adv-x="718" d="M41 393v189h162v186h-162v186h162v289h223v-289h219v-186h-219v-186h219v-189h-219v-18q0 -61 9 -98t27.5 -56.5t44 -26t58.5 -6.5q27 0 62 2.5t51 6.5v-197q-27 -4 -72 -8t-94 -4q-41 0 -94 7t-101.5 40t-81 100.5t-32.5 188.5v69h-162z" />
<glyph unicode="&#x168;" horiz-adv-x="1310" d="M139 479v955h236v-955q0 -61 19.5 -116.5t56 -96.5t88 -65.5t114.5 -24.5t115.5 24.5t89.5 65.5t57.5 96.5t20.5 116.5v955h235v-955q0 -104 -36.5 -197.5t-104 -164t-163 -111.5t-214.5 -41q-117 0 -211 41t-161.5 111.5t-104.5 164t-37 197.5zM279 1782q45 29 78.5 45 t58 23.5t42 8.5t31.5 1q20 0 61.5 -8.5t85.5 -19.5t83 -19.5t59 -8.5q16 0 30.5 2t32 8.5t41 16.5t60.5 29l88 -142q-80 -66 -138 -79t-85 -13q-23 0 -62.5 8t-84 18.5t-83 18.5t-59.5 8q-41 0 -73.5 -13t-69.5 -30z" />
<glyph unicode="&#x169;" horiz-adv-x="1165" d="M133 387v567h223v-493q0 -61 10.5 -114.5t34 -91.5t63.5 -60.5t99 -22.5q117 0 173.5 83t56.5 206v493h223v-954h-223v133q-45 -78 -125 -118t-187 -40q-104 0 -174.5 35t-111.5 94q-35 53 -48.5 119t-13.5 164zM207 1294q45 29 78.5 45.5t58.5 23.5t42 8t32 1 q20 0 61 -8t85 -19.5t83 -19.5t60 -8q16 0 30.5 2t31.5 8t41 16.5t60 28.5l88 -141q-80 -66 -138 -79t-85 -13q-23 0 -62.5 8t-83.5 18.5t-83 18.5t-60 8q-41 0 -73.5 -13.5t-69.5 -29.5z" />
<glyph unicode="&#x16a;" horiz-adv-x="1310" d="M139 479v955h236v-955q0 -61 19.5 -116.5t56 -96.5t88 -65.5t114.5 -24.5t115.5 24.5t89.5 65.5t57.5 96.5t20.5 116.5v955h235v-955q0 -104 -36.5 -197.5t-104 -164t-163 -111.5t-214.5 -41q-117 0 -211 41t-161.5 111.5t-104.5 164t-37 197.5zM289 1645v198h733v-198 h-733z" />
<glyph unicode="&#x16b;" horiz-adv-x="1165" d="M133 387v567h223v-493q0 -61 10.5 -114.5t34 -91.5t63.5 -60.5t99 -22.5q117 0 173.5 83t56.5 206v493h223v-954h-223v133q-45 -78 -125 -118t-187 -40q-104 0 -174.5 35t-111.5 94q-35 53 -48.5 119t-13.5 164zM215 1157v199h733v-199h-733z" />
<glyph unicode="&#x16c;" horiz-adv-x="1310" d="M139 479v955h236v-955q0 -61 19.5 -116.5t56 -96.5t88 -65.5t114.5 -24.5t115.5 24.5t89.5 65.5t57.5 96.5t20.5 116.5v955h235v-955q0 -104 -36.5 -197.5t-104 -164t-163 -111.5t-214.5 -41q-117 0 -211 41t-161.5 111.5t-104.5 164t-37 197.5zM242 1847h209 q51 -121 204 -121q78 0 129.5 34t73.5 87h211q-8 -68 -45 -126t-93.5 -101t-128 -67.5t-147.5 -24.5q-78 0 -147.5 24.5t-124.5 67.5t-92 101.5t-49 125.5z" />
<glyph unicode="&#x16d;" horiz-adv-x="1165" d="M133 387v567h223v-493q0 -61 10.5 -114.5t34 -91.5t63.5 -60.5t99 -22.5q117 0 173.5 83t56.5 206v493h223v-954h-223v133q-45 -78 -125 -118t-187 -40q-104 0 -174.5 35t-111.5 94q-35 53 -48.5 119t-13.5 164zM168 1434h209q51 -121 205 -121q78 0 129 33.5t73 87.5 h211q-8 -68 -45 -126.5t-93 -101.5t-128 -67.5t-147 -24.5q-78 0 -147.5 24.5t-125 67.5t-92.5 101.5t-49 126.5z" />
<glyph unicode="&#x16e;" horiz-adv-x="1310" d="M139 479v955h236v-955q0 -61 19.5 -116.5t56 -96.5t88 -65.5t114.5 -24.5t115.5 24.5t89.5 65.5t57.5 96.5t20.5 116.5v955h235v-955q0 -104 -36.5 -197.5t-104 -164t-163 -111.5t-214.5 -41q-117 0 -211 41t-161.5 111.5t-104.5 164t-37 197.5zM403 1747q0 51 19.5 97 t54.5 81t80 54.5t98 19.5q51 0 97.5 -20.5t81 -54.5t54 -80t19.5 -97t-19.5 -97t-54 -80t-80.5 -54.5t-98 -20.5q-53 0 -98 20.5t-80 54.5t-54.5 80t-19.5 97zM565 1747q0 -35 26.5 -61.5t63.5 -26.5t63.5 26.5t26.5 63.5t-25.5 63.5t-64.5 26.5t-64.5 -27.5t-25.5 -64.5z " />
<glyph unicode="&#x16f;" horiz-adv-x="1165" d="M133 387v567h223v-493q0 -61 10.5 -114.5t34 -91.5t63.5 -60.5t99 -22.5q117 0 173.5 83t56.5 206v493h223v-954h-223v133q-45 -78 -125 -118t-187 -40q-104 0 -174.5 35t-111.5 94q-35 53 -48.5 119t-13.5 164zM319 1294q0 51 19.5 97.5t54.5 81t80 54t98 19.5 q51 0 97.5 -20.5t81 -54t54 -79.5t19.5 -98q0 -51 -19.5 -97t-54 -80t-80.5 -54.5t-98 -20.5q-53 0 -98 20.5t-80 54.5t-54.5 80t-19.5 97zM481 1294q0 -35 27 -61.5t63 -26.5q37 0 64 27t27 63q0 37 -26 63.5t-65 26.5t-64.5 -27.5t-25.5 -64.5z" />
<glyph unicode="&#x170;" horiz-adv-x="1310" d="M139 479v955h236v-955q0 -61 19.5 -116.5t56 -96.5t88 -65.5t114.5 -24.5t115.5 24.5t89.5 65.5t57.5 96.5t20.5 116.5v955h235v-955q0 -104 -36.5 -197.5t-104 -164t-163 -111.5t-214.5 -41q-117 0 -211 41t-161.5 111.5t-104.5 164t-37 197.5zM315 1642l256 340 l197 -98l-346 -299zM715 1642l256 340l196 -98l-346 -299z" />
<glyph unicode="&#x171;" horiz-adv-x="1165" d="M133 387v567h223v-493q0 -61 10.5 -114.5t34 -91.5t63.5 -60.5t99 -22.5q117 0 173.5 83t56.5 206v493h223v-954h-223v133q-45 -78 -125 -118t-187 -40q-104 0 -174.5 35t-111.5 94q-35 53 -48.5 119t-13.5 164zM219 1116l256 340l197 -98l-346 -299zM618 1116l256 340 l197 -98l-346 -299z" />
<glyph unicode="&#x172;" horiz-adv-x="1310" d="M139 479v955h236v-955q0 -61 19.5 -116.5t56 -96.5t88 -65.5t114.5 -24.5t115.5 24.5t89.5 65.5t57.5 96.5t20.5 116.5v955h235v-955q0 -98 -31.5 -186t-92 -156.5t-145.5 -112.5t-189 -55q-29 -23 -50.5 -53.5t-21.5 -75.5q0 -43 24.5 -75.5t69.5 -32.5q25 0 55.5 6 t59.5 18v-159q-33 -10 -83 -20.5t-103 -10.5q-117 0 -176.5 58.5t-59.5 139.5q0 59 30.5 108.5t96.5 100.5q-96 16 -173 62.5t-130 114t-83 152.5t-30 177z" />
<glyph unicode="&#x173;" horiz-adv-x="1165" d="M133 387v567h223v-493q0 -61 10.5 -114.5t34 -91.5t63.5 -60.5t99 -22.5q117 0 173.5 83t56.5 206v493h223v-954h-58q-20 -14 -40.5 -29.5t-37 -34t-26.5 -42t-10 -54.5q0 -43 24.5 -75.5t69.5 -32.5q25 0 55.5 6t59.5 18v-159q-33 -10 -83 -20.5t-104 -10.5 q-117 0 -176 58.5t-59 139.5q0 66 40 121.5t122 114.5v133q-45 -78 -125 -118t-187 -40q-104 0 -174.5 35t-111.5 94q-35 53 -48.5 119t-13.5 164z" />
<glyph unicode="&#x174;" horiz-adv-x="2013" d="M10 1434h248l330 -1022l332 1022h174l331 -1022l330 1022h248l-496 -1434h-170l-329 1022l-332 -1022h-170zM637 1696l369 297l368 -297l-139 -156l-229 184l-228 -182z" />
<glyph unicode="&#x175;" horiz-adv-x="1542" d="M0 954h240l206 -604l216 604h219l215 -604l207 604h239l-371 -954h-149l-250 713l-252 -713h-149zM401 1212l369 297l369 -297l-140 -155l-229 184l-227 -182z" />
<glyph unicode="&#x176;" horiz-adv-x="1232" d="M23 1434h272l383 -617l307 617h258l-711 -1434h-258l285 573zM248 1696l368 297l369 -297l-139 -156l-230 184l-227 -182z" />
<glyph unicode="&#x177;" horiz-adv-x="1183" d="M133 -109h217q2 -80 56.5 -137t171.5 -57q121 0 180 58.5t59 199.5v178q-45 -78 -125 -118t-186 -40q-104 0 -175 35t-112 94q-35 53 -48 119t-13 164v567h223v-493q0 -61 10 -114.5t34 -91.5t63.5 -60.5t99.5 -22.5q117 0 173 83t56 206v493h223v-999 q0 -244 -127.5 -350.5t-363.5 -106.5q-92 0 -168 32t-131 86t-86 126t-31 149zM223 1212l369 297l369 -297l-140 -155l-229 184l-227 -182z" />
<glyph unicode="&#x178;" horiz-adv-x="1232" d="M23 1434h272l383 -617l307 617h258l-711 -1434h-258l285 573zM287 1751q0 66 45 112t110 46q66 0 112 -46t46 -112t-46 -111t-112 -45t-110.5 45t-44.5 111zM756 1751q0 66 45 112t110 46q66 0 112 -46t46 -112t-46 -111t-112 -45t-110.5 45t-44.5 111z" />
<glyph unicode="&#x179;" horiz-adv-x="1181" d="M27 0l743 1223h-700v211h1091l-743 -1223h739v-211h-1130zM283 1708l510 281l106 -174l-510 -281z" />
<glyph unicode="&#x17a;" horiz-adv-x="897" d="M45 0l453 756h-441v198h811l-450 -755h450v-199h-823zM141 1186l510 280l107 -174l-510 -280z" />
<glyph unicode="&#x17b;" horiz-adv-x="1181" d="M27 0l743 1223h-700v211h1091l-743 -1223h739v-211h-1130zM426 1772q0 70 48 117.5t116 47.5q70 0 118 -48t48 -117q0 -68 -48.5 -116t-117.5 -48q-68 0 -116 48t-48 116z" />
<glyph unicode="&#x17c;" horiz-adv-x="897" d="M45 0l453 756h-441v198h811l-450 -755h450v-199h-823zM285 1255q0 70 48 118t116 48q70 0 117.5 -48t47.5 -118q0 -68 -48 -115.5t-117 -47.5q-68 0 -116 47.5t-48 115.5z" />
<glyph unicode="&#x17d;" horiz-adv-x="1181" d="M27 0l743 1223h-700v211h1091l-743 -1223h739v-211h-1130zM262 1794l119 156l207 -197l209 197l121 -156l-330 -297z" />
<glyph unicode="&#x17e;" horiz-adv-x="897" d="M45 0l453 756h-441v198h811l-450 -755h450v-199h-823zM141 1313l119 155l207 -196l209 196l121 -155l-330 -297z" />
<glyph unicode="&#x17f;" horiz-adv-x="735" d="M41 768v186h195v119q0 137 37.5 212t92 111t114 43t100.5 7q43 0 76.5 -7t52.5 -18v-188q-23 6 -47.5 10t-51.5 4t-53.5 -2t-48 -16.5t-35.5 -45t-14 -85.5v-1098h-223v768h-195z" />
<glyph unicode="&#x192;" horiz-adv-x="903" d="M-123 -348l33 188q23 -6 46.5 -10t49.5 -4q27 0 51.5 3t48 17.5t43 44t35.5 84.5l140 793h-195l33 186h194l21 119q25 137 76 212t111.5 111t120.5 43t101 7q43 0 76 -7t49 -18l-32 -188q-23 6 -46.5 10t-50.5 4t-53.5 -2t-51 -16.5t-44 -45t-29.5 -85.5l-24 -144h249 l-32 -186h-250l-135 -768q-25 -137 -76 -212t-111.5 -110.5t-121 -43t-101.5 -7.5q-43 0 -75.5 7.5t-49.5 17.5z" />
<glyph unicode="&#x1fa;" horiz-adv-x="1169" d="M6 0l494 1430q-59 39 -60 114q0 57 41 98t101 41q57 0 98 -41t41 -98q0 -35 -15.5 -63.5t-37.5 -46.5l495 -1434h-248l-61 182h-539l-61 -182h-248zM264 1710l510 281l68 -107l-510 -280zM387 393h395l-196 649zM530 1544q0 -20 14.5 -34.5t37.5 -14.5q20 0 34.5 14.5 t14.5 34.5t-13 35.5t-36 15.5t-37.5 -15t-14.5 -36z" />
<glyph unicode="&#x1fb;" horiz-adv-x="1234" d="M78 477q0 100 36 191.5t100.5 161t154.5 109.5t198 40q84 0 167 -41t128 -113v129h223v-954h-223v129q-45 -72 -128 -113t-167 -41q-109 0 -198.5 40t-154 110t-100.5 160t-36 192zM240 1608l510 280l106 -174l-510 -280zM301 477q0 -61 19.5 -116.5t56.5 -96.5t88 -65.5 t115 -24.5q63 0 115.5 24.5t89 65.5t57 96.5t20.5 116.5t-20.5 116.5t-57 96.5t-89 65.5t-115.5 24.5t-114.5 -24.5t-88.5 -65.5t-56.5 -96.5t-19.5 -116.5zM315 1241q0 51 19.5 97t54.5 81t80 54.5t98 19.5q51 0 97.5 -20.5t81 -54.5t54 -80t19.5 -97t-19.5 -97t-54 -80 t-81 -54.5t-97.5 -20.5q-53 0 -98 20.5t-80 54.5t-54.5 80t-19.5 97zM477 1241q0 -35 26.5 -61.5t63.5 -26.5t63.5 26.5t26.5 63.5t-25.5 63.5t-64.5 26.5t-64.5 -27.5t-25.5 -64.5z" />
<glyph unicode="&#x1fc;" horiz-adv-x="1808" d="M4 0l696 1434h959v-211h-592v-406h592v-211h-592v-395h592v-211h-828v184h-485l-86 -184h-256zM446 395h385v817zM702 1708l510 281l107 -174l-510 -281z" />
<glyph unicode="&#x1fd;" horiz-adv-x="1867" d="M78 477q0 100 36 191.5t100.5 161t154.5 109.5t198 40q84 0 167 -41t128 -113v129h223v-36q51 29 114 45t134 16q92 0 173 -33t141.5 -91t94.5 -136t34 -170q0 -25 -1 -58.5t-10 -80.5h-675q0 -51 14 -96.5t44 -79t77 -53t114 -19.5q47 0 81 10t57.5 26.5t39 40 t25.5 48.5h225q-12 -61 -45.5 -117.5t-88 -99.5t-128 -69t-166.5 -26q-78 0 -140 17.5t-114 46.5v-39h-223v129q-45 -72 -128 -113t-167 -41q-109 0 -198.5 40t-154 110t-100.5 160t-36 192zM301 477q0 -61 19.5 -116.5t56.5 -96.5t88.5 -65.5t114.5 -24.5t115.5 24.5 t89 65.5t57 96.5t20.5 116.5q0 63 -20.5 118.5t-57 96.5t-89 64.5t-115.5 23.5t-114.5 -24.5t-88.5 -65.5t-56.5 -96t-19.5 -117zM625 1153l510 281l106 -174l-510 -281zM1092 575h467q0 98 -65 158t-167 60q-98 0 -166.5 -55.5t-68.5 -162.5z" />
<glyph unicode="&#x1fe;" horiz-adv-x="1638" d="M78 717q0 145 51 281.5t146.5 240.5t233.5 166.5t310 62.5q102 0 193 -24l84 194l200 -86l-84 -190q166 -104 257.5 -276.5t91.5 -368.5q0 -145 -51.5 -281.5t-146.5 -241t-233.5 -167t-310.5 -62.5q-106 0 -194 25l-72 -170l-199 84l70 168q-166 104 -256 276t-90 369z M326 717q0 -127 48 -241t140 -191l412 960q-49 12 -107 12q-115 0 -206 -45t-155.5 -120.5t-98 -173t-33.5 -201.5zM510 1708l510 281l106 -174l-510 -281zM709 188q51 -12 110 -12q115 0 206 45t155.5 121t98.5 173.5t34 201.5q0 127 -49.5 240.5t-141.5 191.5z" />
<glyph unicode="&#x1ff;" horiz-adv-x="1163" d="M78 477q0 100 36 191.5t101.5 161t157.5 109.5t207 40q27 0 51 -2t47 -6l74 170l188 -82l-70 -164q102 -70 158.5 -179.5t56.5 -238.5q0 -102 -35.5 -192t-102 -160t-160 -110t-207.5 -40q-49 0 -101 11l-73 -168l-189 82l70 161q-98 70 -153.5 178.5t-55.5 237.5z M272 1188l510 280l107 -174l-510 -280zM301 477q0 -125 74 -211l221 514h-16q-63 0 -114.5 -24.5t-88.5 -65.5t-56.5 -96.5t-19.5 -116.5zM561 174h19q63 0 115.5 24.5t89 65.5t57 96.5t20.5 116.5t-20.5 117.5t-59.5 97.5z" />
<glyph unicode="&#x218;" horiz-adv-x="1165" d="M86 469h236q0 -141 77.5 -217t200.5 -76q49 0 92 15.5t75 43t50.5 66.5t18.5 88q0 55 -21.5 92t-55.5 62.5t-74 43t-77 29.5q-98 35 -184 71t-150.5 86t-101.5 122t-37 180q0 88 36 161t96.5 125t141 79.5t171.5 27.5q96 0 180 -32.5t145.5 -92t96 -141.5t34.5 -182h-235 q0 106 -57.5 171.5t-157.5 65.5q-88 0 -151.5 -45t-63.5 -137q0 -43 17.5 -76.5t47 -58.5t66.5 -43t78 -33q84 -31 171 -65.5t158.5 -85.5t116.5 -123t45 -174q0 -111 -39 -195t-106.5 -141t-156.5 -86t-189 -29q-98 0 -187.5 34t-157 98.5t-108.5 157.5t-41 214zM442 -190 q0 55 39 94t92 39q66 0 108 -47.5t42 -122.5q0 -152 -72.5 -212.5t-201.5 -62.5v84q84 0 119.5 33t39.5 74q-4 -4 -14 -7.5t-21 -3.5q-59 0 -95 39.5t-36 92.5z" />
<glyph unicode="&#x219;" horiz-adv-x="929" d="M74 322h217q0 -94 52 -132t132 -38q66 0 111 24.5t45 85.5q0 33 -18.5 53.5t-55.5 38t-92 36t-131 46.5q-49 18 -91 40t-73 50.5t-47.5 71.5t-16.5 104q0 68 29 119t78 87t113.5 53.5t138.5 17.5q76 0 142.5 -24.5t115.5 -67.5t77.5 -102.5t28.5 -129.5h-217 q0 68 -35.5 108t-117.5 40q-57 0 -97 -26.5t-40 -78.5q0 -31 16 -50t49 -34.5t82 -33t115 -41.5q49 -18 96 -39t84 -51.5t58.5 -73.5t21.5 -109q0 -74 -30 -129t-82 -91t-121.5 -53.5t-147.5 -17.5t-147.5 22.5t-124 67t-86 109t-31.5 148.5zM332 -168q0 55 39 94t92 39 q66 0 107.5 -47t41.5 -123q0 -152 -72.5 -212t-201.5 -62v84q43 0 71.5 8t49.5 25q35 29 39 73q-10 -10 -35 -10q-59 0 -95 39t-36 92z" />
<glyph unicode="&#x21a;" horiz-adv-x="987" d="M20 1223v211h947v-211h-357v-1223h-235v1223h-355zM360 -168q0 55 39 94t93 39q66 0 107.5 -47t41.5 -123q0 -152 -72.5 -212t-201.5 -62v84q84 0 119.5 32.5t39.5 73.5q-10 -10 -34 -10q-59 0 -95.5 39t-36.5 92z" />
<glyph unicode="&#x21b;" horiz-adv-x="718" d="M41 768v186h162v289h223v-289h219v-186h-219v-393q0 -61 9 -98t27.5 -56.5t44 -26t58.5 -6.5q27 0 62 2.5t51 6.5v-197q-27 -4 -72 -8t-94 -4q-41 0 -94 7t-101.5 40t-81 100.5t-32.5 188.5v444h-162zM219 -168q0 55 39 94t92 39q66 0 108 -47t42 -123q0 -152 -73 -212 t-202 -62v84q43 0 72 8t49 25q35 29 39 73q-10 -10 -35 -10q-59 0 -95 39t-36 92z" />
<glyph unicode="&#x2bc;" horiz-adv-x="579" d="M123 1356q0 66 46 113t112 47q80 0 128 -55.5t48 -147.5q0 -180 -85 -253t-241 -75v100q51 0 85 11.5t56 29.5q23 18 34 41t16 45q-4 -4 -16.5 -7t-24.5 -3q-72 0 -115 44t-43 110z" />
<glyph unicode="&#x2c6;" horiz-adv-x="1007" d="M129 1427l369 297l368 -297l-139 -155l-229 184l-228 -182z" />
<glyph unicode="&#x2c7;" horiz-adv-x="925" d="M135 1534l119 156l207 -197l209 197l121 -156l-330 -297z" />
<glyph unicode="&#x2d8;" horiz-adv-x="1136" d="M154 1753h208q51 -121 205 -121q78 0 129.5 34t73.5 87h211q-8 -68 -45 -126t-93.5 -101t-128 -67.5t-147.5 -24.5q-78 0 -147.5 24.5t-124.5 67.5t-92 101.5t-49 125.5z" />
<glyph unicode="&#x2d9;" horiz-adv-x="1206" d="M438 1292q0 70 48.5 118t115.5 48q70 0 118 -48t48 -118q0 -68 -48 -116t-118 -48q-68 0 -116 48t-48 116z" />
<glyph unicode="&#x2da;" horiz-adv-x="1161" d="M328 1458q0 51 19.5 97.5t54 81t80 54t98.5 19.5q51 0 97 -20.5t81 -54t54 -80t19 -97.5t-19 -97t-54 -80t-81 -54.5t-97 -20.5q-53 0 -98.5 20.5t-80 54.5t-54 80t-19.5 97zM489 1458q0 -35 27 -61.5t64 -26.5t63.5 26.5t26.5 63.5t-25.5 63.5t-64.5 26.5t-65 -27.5 t-26 -64.5z" />
<glyph unicode="&#x2db;" horiz-adv-x="1163" d="M371 -236q0 66 40 121.5t121 114.5h166q-20 -14 -40.5 -29.5t-37 -34t-26.5 -42t-10 -54.5q0 -43 24.5 -75.5t69.5 -32.5q25 0 55.5 6t59.5 18v-159q-33 -10 -83.5 -20.5t-103.5 -10.5q-117 0 -176 58.5t-59 139.5z" />
<glyph unicode="&#x2dc;" horiz-adv-x="1079" d="M164 1356q45 29 78.5 45t58.5 23.5t42 8.5t32 1q20 0 61 -8.5t85 -19.5t83 -19.5t60 -8.5q16 0 30.5 2t31.5 8.5t41 16.5t60 29l88 -142q-80 -66 -138 -79t-85 -13q-23 0 -62.5 8.5t-83.5 18.5t-83 18t-60 8q-41 0 -73.5 -13t-69.5 -30z" />
<glyph unicode="&#x2dd;" horiz-adv-x="1075" d="M180 1163l256 340l197 -98l-346 -299zM580 1163l256 340l196 -98l-346 -299z" />
<glyph unicode="&#x394;" horiz-adv-x="1169" d="M6 0l496 1434h166l495 -1434h-1157zM332 211h506l-252 831z" />
<glyph unicode="&#x3a9;" horiz-adv-x="1466" d="M92 817q0 127 44 243t127 205t202 141t268 52q150 0 268.5 -52t201.5 -141t127 -205t44 -243q0 -96 -25.5 -184t-72.5 -162t-118 -132t-159 -93v-35h338v-211h-522v371q86 18 147.5 62t100.5 105.5t57.5 135.5t18.5 153q0 82 -26 158t-76 134.5t-127 93t-177 34.5 q-102 0 -178 -34.5t-126 -93t-75.5 -134.5t-25.5 -158q0 -80 18.5 -153.5t57 -135t100 -105.5t147.5 -62v-371h-522v211h338v37q-90 35 -159.5 92t-117 131t-73 162t-25.5 184z" />
<glyph unicode="&#x3bc;" d="M152 -479v1433h223v-493q0 -61 10 -114.5t33.5 -91.5t63.5 -60.5t100 -22.5q117 0 173 83t56 206v493h223v-954h-223v133q-45 -78 -125 -118t-186 -40q-66 0 -125 17v-471h-223z" />
<glyph unicode="&#x3c0;" d="M66 756v198h1056v-198h-143v-756h-223v756h-324v-756h-223v756h-143z" />
<glyph unicode="&#x1e80;" horiz-adv-x="2013" d="M10 1434h248l330 -1022l332 1022h174l331 -1022l330 1022h248l-496 -1434h-170l-329 1022l-332 -1022h-170zM698 1815l107 174l510 -281l-107 -174z" />
<glyph unicode="&#x1e81;" horiz-adv-x="1542" d="M0 954h240l206 -604l216 604h219l215 -604l207 604h239l-371 -954h-149l-250 713l-252 -713h-149zM463 1294l106 174l510 -280l-106 -174z" />
<glyph unicode="&#x1e82;" horiz-adv-x="2013" d="M10 1434h248l330 -1022l332 1022h174l331 -1022l330 1022h248l-496 -1434h-170l-329 1022l-332 -1022h-170zM698 1708l510 281l107 -174l-510 -281z" />
<glyph unicode="&#x1e83;" horiz-adv-x="1542" d="M0 954h240l206 -604l216 604h219l215 -604l207 604h239l-371 -954h-149l-250 713l-252 -713h-149zM463 1188l510 280l106 -174l-510 -280z" />
<glyph unicode="&#x1e84;" horiz-adv-x="2013" d="M10 1434h248l330 -1022l332 1022h174l331 -1022l330 1022h248l-496 -1434h-170l-329 1022l-332 -1022h-170zM614 1780q0 66 45.5 111.5t110.5 45.5q66 0 112 -46t46 -111q0 -66 -46 -111t-112 -45t-111 45t-45 111zM1083 1780q0 66 45.5 111.5t110.5 45.5q66 0 112 -46 t46 -111q0 -66 -46 -111t-112 -45t-111 45t-45 111z" />
<glyph unicode="&#x1e85;" horiz-adv-x="1542" d="M0 954h240l206 -604l216 604h219l215 -604l207 604h239l-371 -954h-149l-250 713l-252 -713h-149zM379 1257q0 66 45 112t111 46t111.5 -46t45.5 -112t-46 -110.5t-111 -44.5q-66 0 -111 44.5t-45 110.5zM848 1257q0 66 45 112t111 46t111.5 -46t45.5 -112t-46 -110.5 t-111 -44.5q-66 0 -111 44.5t-45 110.5z" />
<glyph unicode="&#x1ef2;" horiz-adv-x="1232" d="M23 1434h272l383 -617l307 617h258l-711 -1434h-258l285 573zM307 1815l107 174l510 -281l-107 -174z" />
<glyph unicode="&#x1ef3;" horiz-adv-x="1183" d="M133 -109h217q2 -80 56.5 -137t171.5 -57q121 0 180 58.5t59 199.5v178q-45 -78 -125 -118t-186 -40q-104 0 -175 35t-112 94q-35 53 -48 119t-13 164v567h223v-493q0 -61 10 -114.5t34 -91.5t63.5 -60.5t99.5 -22.5q117 0 173 83t56 206v493h223v-999 q0 -244 -127.5 -350.5t-363.5 -106.5q-92 0 -168 32t-131 86t-86 126t-31 149zM283 1294l106 174l510 -280l-106 -174z" />
<glyph unicode="&#x2000;" horiz-adv-x="1008" />
<glyph unicode="&#x2001;" horiz-adv-x="2017" />
<glyph unicode="&#x2002;" horiz-adv-x="1008" />
<glyph unicode="&#x2003;" horiz-adv-x="2017" />
<glyph unicode="&#x2004;" horiz-adv-x="672" />
<glyph unicode="&#x2005;" horiz-adv-x="504" />
<glyph unicode="&#x2006;" horiz-adv-x="336" />
<glyph unicode="&#x2007;" horiz-adv-x="336" />
<glyph unicode="&#x2008;" horiz-adv-x="252" />
<glyph unicode="&#x2009;" horiz-adv-x="403" />
<glyph unicode="&#x200a;" horiz-adv-x="112" />
<glyph unicode="&#x2010;" horiz-adv-x="602" d="M61 483v199h480v-199h-480z" />
<glyph unicode="&#x2011;" horiz-adv-x="602" d="M61 483v199h480v-199h-480z" />
<glyph unicode="&#x2012;" horiz-adv-x="602" d="M61 483v199h480v-199h-480z" />
<glyph unicode="&#x2013;" horiz-adv-x="1030" d="M102 483v199h826v-199h-826z" />
<glyph unicode="&#x2014;" horiz-adv-x="2060" d="M102 483v199h1856v-199h-1856z" />
<glyph unicode="&#x2018;" horiz-adv-x="579" d="M123 1188q0 180 85 252.5t241 75.5v-101q-94 0 -142 -41q-23 -16 -34 -39.5t-15 -46.5q4 4 16.5 7t24.5 3q72 0 115 -43.5t43 -109.5t-46 -113t-112 -47q-80 0 -128 55.5t-48 147.5z" />
<glyph unicode="&#x2019;" horiz-adv-x="579" d="M123 1356q0 66 46 113t112 47q80 0 128 -55.5t48 -147.5q0 -180 -85 -253t-241 -75v100q51 0 85 11.5t56 29.5q23 18 34 41t16 45q-4 -4 -16.5 -7t-24.5 -3q-72 0 -115 44t-43 110z" />
<glyph unicode="&#x201a;" horiz-adv-x="579" d="M123 129q0 66 46 113t112 47q80 0 128 -55.5t48 -147.5q0 -180 -85 -253t-241 -75v101q51 0 85 11t56 30q23 16 34 39.5t16 46.5q-4 -4 -16.5 -7.5t-24.5 -3.5q-72 0 -115 44t-43 110z" />
<glyph unicode="&#x201c;" horiz-adv-x="962" d="M123 1188q0 180 85 252.5t241 75.5v-101q-94 0 -142 -41q-23 -16 -34 -39.5t-15 -46.5q4 4 16.5 7t24.5 3q72 0 115 -43.5t43 -109.5t-46 -113t-112 -47q-80 0 -128 55.5t-48 147.5zM506 1188q0 180 85 252.5t240 75.5v-101q-94 0 -141 -41q-23 -16 -34 -39.5t-15 -46.5 q4 4 16.5 7t24.5 3q72 0 115 -43.5t43 -109.5t-46 -113t-112 -47q-80 0 -128 55.5t-48 147.5z" />
<glyph unicode="&#x201d;" horiz-adv-x="962" d="M123 1356q0 66 46 113t112 47q80 0 128 -55.5t48 -147.5q0 -180 -85 -253t-241 -75v100q51 0 85 11.5t56 29.5q23 18 34 41t16 45q-4 -4 -16.5 -7t-24.5 -3q-72 0 -115 44t-43 110zM506 1356q0 66 46 113t112 47q80 0 128 -55.5t48 -147.5q0 -180 -85 -253t-241 -75v100 q51 0 85 11.5t56 29.5q23 18 34 41t16 45q-4 -4 -16.5 -7t-24.5 -3q-72 0 -115 44t-43 110z" />
<glyph unicode="&#x201e;" horiz-adv-x="962" d="M123 129q0 66 46 113t112 47q80 0 128 -55.5t48 -147.5q0 -180 -85 -253t-241 -75v101q51 0 85 11t56 30q23 16 34 39.5t16 46.5q-4 -4 -16.5 -7.5t-24.5 -3.5q-72 0 -115 44t-43 110zM506 129q0 66 46 113t112 47q80 0 128 -55.5t48 -147.5q0 -180 -85 -253t-241 -75 v101q51 0 85 11t56 30q23 16 34 39.5t16 46.5q-4 -4 -16.5 -7.5t-24.5 -3.5q-72 0 -115 44t-43 110z" />
<glyph unicode="&#x2020;" horiz-adv-x="995" d="M150 756v198h237v514h223v-514h236v-198h-236v-1129h-223v1129h-237z" />
<glyph unicode="&#x2021;" horiz-adv-x="995" d="M150 0v193h237v569h-237v192h237v514h223v-514h236v-192h-236v-569h236v-193h-236v-373h-223v373h-237z" />
<glyph unicode="&#x2022;" horiz-adv-x="722" d="M123 639q0 49 18.5 93t51 77t75.5 51.5t92 18.5t93.5 -18.5t77 -51.5t51 -77t18.5 -93t-18.5 -92t-51 -76t-76.5 -51.5t-94 -18.5q-49 0 -92 18.5t-75.5 51.5t-51 76t-18.5 92z" />
<glyph unicode="&#x2026;" horiz-adv-x="1976" d="M123 152q0 70 48 117.5t116 47.5q70 0 118 -48t48 -117q0 -68 -48.5 -116t-117.5 -48q-68 0 -116 48t-48 116zM823 150q0 70 48.5 117.5t115.5 47.5q70 0 118 -48t48 -117q0 -68 -48 -116t-118 -48q-68 0 -116 48t-48 116zM1524 147q0 70 48 118t116 48q70 0 117.5 -48 t47.5 -118q0 -68 -48 -115.5t-117 -47.5q-68 0 -116 47.5t-48 115.5z" />
<glyph unicode="&#x202f;" horiz-adv-x="403" />
<glyph unicode="&#x2030;" horiz-adv-x="2654" d="M166 909v260q0 57 20.5 107.5t59.5 89.5t94 61.5t125 22.5t125 -22.5t94 -61.5t60.5 -89t21.5 -108v-260q0 -57 -21.5 -108t-60.5 -89t-94 -60.5t-125 -22.5t-125 22.5t-94 60.5t-59.5 89t-20.5 108zM346 909q0 -53 33 -91t86 -38q55 0 88 38t33 91v260q0 53 -33 91 t-88 38q-53 0 -86 -37.5t-33 -91.5v-260zM420 -2l895 1542l178 -102l-895 -1542zM1178 264v260q0 57 20.5 107.5t59 89.5t94 61.5t125.5 22.5t125 -22.5t94 -61.5t60.5 -89t21.5 -108v-260q0 -57 -21.5 -108.5t-60.5 -89t-94.5 -60t-124.5 -22.5q-70 0 -125.5 22.5t-94 60 t-59 89t-20.5 108.5zM1358 264q0 -53 32.5 -91t86.5 -38q55 0 87.5 38t32.5 91v260q0 53 -32.5 91t-87.5 38q-53 0 -86 -37.5t-33 -91.5v-260zM1886 264v260q0 57 20.5 107.5t59.5 89.5t94.5 61.5t124.5 22.5q70 0 125 -22.5t94 -61.5t60.5 -89t21.5 -108v-260 q0 -57 -21.5 -108.5t-60.5 -89t-94 -60t-125 -22.5t-125 22.5t-94 60t-59.5 89t-20.5 108.5zM2066 264q0 -53 33 -91t86 -38q55 0 88 38t33 91v260q0 53 -32.5 91t-88.5 38q-53 0 -86 -37.5t-33 -91.5v-260z" />
<glyph unicode="&#x2039;" horiz-adv-x="565" d="M82 530v132l401 335v-215l-223 -186l223 -186v-215z" />
<glyph unicode="&#x203a;" horiz-adv-x="565" d="M82 195v215l223 186l-223 186v215l401 -335v-132z" />
<glyph unicode="&#x2044;" horiz-adv-x="458" d="M-307 -2l895 1542l178 -102l-895 -1542z" />
<glyph unicode="&#x205f;" horiz-adv-x="504" />
<glyph unicode="&#x20ac;" d="M0 479l41 168h86v141h-127l41 166h86q0 100 36 192.5t101.5 161t157.5 109.5t207 41q106 0 195 -34.5t154.5 -96t104.5 -143.5t50 -174h-238q-16 100 -86 168.5t-180 68.5q-61 0 -110.5 -23.5t-84.5 -63.5t-53.5 -93t-18.5 -113h426l-40 -166h-386v-141h426l-40 -168 h-386q0 -59 18.5 -112.5t53.5 -93.5t84 -63.5t111 -23.5q61 0 111.5 23.5t85 63.5t54 93.5t19.5 112.5h236q0 -102 -36 -193t-102.5 -161t-160 -110t-207.5 -40q-115 0 -207 41t-157.5 110t-101.5 160t-36 193h-127z" />
<glyph unicode="&#x2113;" horiz-adv-x="866" d="M10 412l230 163v463q0 205 72.5 317.5t226.5 112.5q72 0 127 -27.5t92 -76.5t56.5 -115.5t19.5 -146.5q0 -94 -33 -179t-88.5 -162t-128 -144.5t-152.5 -129.5v-163q0 -55 15.5 -87t40 -47.5t55 -18.5t61.5 -3q49 0 88 6t62 12v-186q-29 -12 -69.5 -18.5t-106.5 -6.5 q-47 0 -105.5 7.5t-110 43t-87 108.5t-35.5 206l-131 -98zM432 729q57 51 97 97t64.5 91.5t36 92.5t11.5 100q0 33 -5 65.5t-15.5 59.5t-28.5 42t-45 15q-57 0 -86 -61.5t-29 -151.5v-350z" />
<glyph unicode="&#x2116;" horiz-adv-x="2217" d="M150 0v1434h258l567 -1020v1020h235v-1434h-258l-567 1020v-1020h-235zM1307 395v199h850v-199h-850zM1307 1042q0 84 29.5 159t84 131.5t133 89t177.5 32.5q98 0 177 -32.5t134 -89t85 -131.5t30 -159t-30 -157.5t-85 -130t-134 -89t-177 -32.5t-177 32.5t-133.5 89 t-84 130t-29.5 157.5zM1530 1042q0 -90 54.5 -153.5t146.5 -63.5q45 0 82.5 17.5t64.5 47.5t41 68.5t14 83.5t-14 84t-41 69t-64.5 47.5t-82.5 17.5q-92 0 -146.5 -63.5t-54.5 -154.5z" />
<glyph unicode="&#x2122;" horiz-adv-x="1673" d="M82 1311v123h549v-123h-207v-711h-137v711h-205zM770 600v834h223l195 -566l192 566h211v-834h-135v637l-221 -637h-96l-234 668v-668h-135z" />
<glyph unicode="&#x2126;" horiz-adv-x="1466" d="M92 817q0 127 44 243t127 205t202 141t268 52q150 0 268.5 -52t201.5 -141t127 -205t44 -243q0 -96 -25.5 -184t-72.5 -162t-118 -132t-159 -93v-35h338v-211h-522v371q86 18 147.5 62t100.5 105.5t57.5 135.5t18.5 153q0 82 -26 158t-76 134.5t-127 93t-177 34.5 q-102 0 -178 -34.5t-126 -93t-75.5 -134.5t-25.5 -158q0 -80 18.5 -153.5t57 -135t100 -105.5t147.5 -62v-371h-522v211h338v37q-90 35 -159.5 92t-117 131t-73 162t-25.5 184z" />
<glyph unicode="&#x212e;" horiz-adv-x="1087" d="M82 479q0 106 31.5 198.5t91 159t147.5 104.5t201 38q92 0 173 -33t140.5 -90t94 -136t34.5 -171v-24.5t-2 -35.5h-684v-395q49 -35 110.5 -53t139.5 -18q74 0 135.5 19t108.5 51t79.5 75t49.5 92h47q-16 -57 -52 -109.5t-89.5 -91.5t-124 -61.5t-154.5 -22.5 q-121 0 -210 42t-148.5 112t-89 161t-29.5 189zM309 537h467v331q-47 31 -104.5 48.5t-118.5 17.5q-141 0 -244 -68v-329z" />
<glyph unicode="&#x2190;" d="M-123 717l479 442l123 -133l-246 -219h1078v-182h-1075l243 -217l-123 -134z" />
<glyph unicode="&#x2191;" d="M152 954l442 480l442 -480l-133 -123l-219 246v-1077h-182v1073l-217 -242z" />
<glyph unicode="&#x2192;" d="M-123 627v182h1073l-241 217l122 133l480 -442l-480 -443l-122 134l245 219h-1077z" />
<glyph unicode="&#x2193;" d="M152 479l133 123l219 -246v1078h182v-1076l217 244l133 -123l-442 -479z" />
<glyph unicode="&#x2196;" d="M55 1223l652 -25l-9 -182l-327 18l762 -760l-129 -129l-760 758l18 -323l-182 -9z" />
<glyph unicode="&#x2197;" d="M55 274l758 760l-324 -18l-8 182l652 25l-25 -652l-182 9l20 327l-762 -762z" />
<glyph unicode="&#x2198;" d="M55 1159l129 129l760 -758l-18 324l182 8l25 -651l-652 25l8 182l328 -19z" />
<glyph unicode="&#x2199;" d="M55 211l25 651l182 -8l-18 -328l760 762l129 -129l-758 -760l323 19l9 -182z" />
<glyph unicode="&#x2202;" d="M98 432q0 94 34 181t96.5 154t149 105.5t195.5 38.5q84 0 162 -29.5t129 -72.5q-8 141 -28.5 229t-55.5 138.5t-82 69t-108 18.5q-57 0 -103.5 -22.5t-79 -62.5t-50 -94.5t-17.5 -117.5h-236q0 104 34 195t97.5 160t153.5 107.5t201 38.5q125 0 218 -41t155.5 -139 t94.5 -259t32 -400q0 -182 -37 -309t-104.5 -206t-163 -115t-212.5 -36q-109 0 -195.5 38t-149 101.5t-96.5 148.5t-34 181zM317 432q0 -115 70 -189.5t186 -74.5q66 0 120.5 18.5t93 67.5t60 134t23.5 218q-59 47 -126 74t-171 27q-57 0 -104 -21.5t-81 -58.5t-52.5 -87.5 t-18.5 -107.5z" />
<glyph unicode="&#x2206;" horiz-adv-x="1169" d="M6 0l496 1434h166l495 -1434h-1157zM332 211h506l-252 831z" />
<glyph unicode="&#x220f;" horiz-adv-x="1361" d="M6 1417v209h1350v-209h-144v-1896h-235v1896h-592v-1896h-235v1896h-144z" />
<glyph unicode="&#x2211;" d="M61 -260l732 844l-732 843v199h1063v-209h-764l730 -803l-730 -864h764v-229h-1063v219z" />
<glyph unicode="&#x2212;" d="M180 483v199h828v-199h-828z" />
<glyph unicode="&#x221a;" horiz-adv-x="1400" d="M4 276v199h404l180 -563l561 1714h248l-727 -2105h-166l-262 755h-238z" />
<glyph unicode="&#x221e;" horiz-adv-x="1705" d="M57 592q0 78 27 151.5t80 132t133 94.5t186 36q98 0 191.5 -51.5t177.5 -161.5q84 111 178.5 162t192.5 51q104 0 184 -34t133 -90.5t81 -132t28 -157.5q0 -84 -28 -159t-81 -131t-133 -90t-184 -34q-98 0 -192.5 51.5t-178.5 161.5q-84 -111 -177 -162t-192 -51 q-106 0 -186 36t-133 94.5t-80 132t-27 151.5zM268 592q0 -86 54.5 -150.5t160.5 -64.5q59 0 126 51t128 164q-61 111 -128 163t-126 52q-106 0 -160.5 -64.5t-54.5 -150.5zM969 592q59 -113 125.5 -164t128.5 -51q106 0 160.5 64.5t54.5 150.5t-54.5 150.5t-160.5 64.5 q-61 0 -128 -52.5t-126 -162.5z" />
<glyph unicode="&#x222b;" horiz-adv-x="602" d="M41 -293q33 -8 48 -10t30 -2q35 0 53 21.5t18 74.5v1559q0 80 17.5 133t45.5 84.5t63.5 45t72.5 13.5q53 0 101.5 -6t70.5 -16v-185q-33 8 -48 10.5t-30 2.5q-35 0 -53 -21.5t-18 -75.5v-1558q0 -80 -17.5 -133.5t-45 -85t-63.5 -45t-73 -13.5q-53 0 -101.5 6.5 t-70.5 16.5v184z" />
<glyph unicode="&#x2248;" d="M135 209v190q51 68 112.5 94.5t114.5 26.5q55 0 117 -19.5t125 -45.5q59 -25 118.5 -49.5t102.5 -24.5q70 0 127.5 36t98.5 77v-191q-51 -68 -112.5 -94.5t-115.5 -26.5q-59 0 -113.5 19.5t-107.5 48.5t-114.5 50.5t-135.5 21.5q-63 0 -119.5 -36t-97.5 -77zM135 528v191 q51 68 112.5 94.5t114.5 26.5q55 0 117 -19.5t125 -46.5q59 -25 118.5 -49.5t102.5 -24.5q70 0 127.5 36t98.5 77v-190q-51 -68 -112.5 -94.5t-115.5 -26.5q-59 0 -113.5 19.5t-107.5 47.5q-53 29 -114.5 50.5t-135.5 21.5q-63 0 -119.5 -36t-97.5 -77z" />
<glyph unicode="&#x2260;" d="M180 322v198h250l53 121h-303v199h389l93 215h249l-92 -215h189v-199h-275l-53 -121h328v-198h-412l-92 -216h-250l92 216h-166z" />
<glyph unicode="&#x2264;" d="M180 0v199h828v-199h-828zM180 801v157l828 287v-205l-498 -159l498 -162v-205z" />
<glyph unicode="&#x2265;" d="M180 0v199h828v-199h-828zM180 514v205l498 162l-498 159v205l828 -287v-157z" />
<glyph unicode="&#x25ca;" horiz-adv-x="993" d="M10 811l387 815h201l385 -815l-385 -811h-201zM240 811l256 -575l258 575l-256 575z" />
<glyph unicode="&#xe000;" horiz-adv-x="952" d="M0 0v952h952v-952h-952z" />
<glyph unicode="&#xfb01;" horiz-adv-x="1347" d="M41 768v186h195v119q0 137 37.5 212t92 111t114 43t100.5 7q43 0 76.5 -7t52.5 -18v-188q-23 6 -47.5 10t-51.5 4t-53.5 -2t-48 -16.5t-35.5 -45t-14 -85.5v-144h250v-186h-250v-768h-223v768h-195zM885 1300q0 66 45 112t110 46q66 0 112 -46t46 -112t-46 -110.5 t-112 -44.5t-110.5 44.5t-44.5 110.5zM930 0v954h223v-954h-223z" />
<glyph unicode="&#xfb02;" horiz-adv-x="1257" d="M41 768v186h195v119q0 137 37.5 212t92 111t114 43t100.5 7q43 0 76.5 -7t52.5 -18v-188q-23 6 -47.5 10t-51.5 4t-53.5 -2t-48 -16.5t-35.5 -45t-14 -85.5v-144h250v-186h-250v-768h-223v768h-195zM885 0v1434h223v-1434h-223z" />
<glyph horiz-adv-x="1482" d="M82 678q0 25 2 55.5t6 57t11.5 45t17.5 18.5q12 0 21.5 -7t15.5 -16.5t11 -16.5t11 -7q2 0 4 46t15.5 115.5t45 151.5t94 151.5t160 116t244.5 46.5t244.5 -46.5t160 -116t94.5 -151.5t45 -151.5t15.5 -115.5t4.5 -46q6 0 11 7t11 16.5t15.5 16.5t21.5 7q10 0 17.5 -18.5 t11.5 -45t6 -57.5t2 -55q0 -16 -1 -46t-6 -58.5t-13.5 -51t-20.5 -22.5q-23 0 -32 12t-11 16q-25 -127 -68 -215t-98 -146t-115.5 -92t-116 -50.5t-102.5 -20.5t-76 -4t-76 4t-102 20.5t-115.5 50.5t-116 92t-99.5 147t-66 216q-4 -8 -10 -16q-10 -14 -33 -14 q-12 0 -20.5 22.5t-13.5 51t-6 58.5t-1 46zM301 788q20 -27 47 -47q23 -18 57.5 -32.5t77.5 -14.5q51 0 85 20.5t57 45.5q25 29 39 65q-10 14 -27 29q-14 12 -35.5 25.5t-54.5 23.5q16 -14 28.5 -35.5t12.5 -48.5q0 -43 -30 -72.5t-75 -29.5t-74.5 29.5t-29.5 72.5 q0 23 5 41.5t22 32.5q-29 -10 -49.5 -27.5t-32.5 -34.5q-14 -20 -23 -43zM451 377q12 -59 49 -105q31 -41 88 -72.5t153 -31.5t152.5 31.5t87.5 72.5q37 45 51 105q-31 0 -55.5 5t-44.5 13q10 16 16 36t6 42q0 12 -3 30.5t-10 37t-17.5 32t-24.5 13.5q-27 0 -27 -27 q0 -10 5 -14q14 -14 18 -29.5t4 -42.5q0 -33 -14 -59q-35 16 -66 30.5t-78 14.5t-79.5 -14.5t-63.5 -30.5q-14 27 -14 59q0 27 4 42t16 30q6 4 6 14q0 27 -26 27q-14 0 -24.5 -13.5t-17.5 -32t-10.5 -37t-3.5 -30.5q0 -23 4.5 -42t14.5 -36q-20 -8 -44 -13t-52 -5zM817 825 q14 -37 39 -65q23 -25 56.5 -45.5t86.5 -20.5q43 0 77 14.5t57 32.5q27 20 49 47q-10 23 -25 46q-12 18 -33.5 35.5t-50.5 27.5q31 -29 31 -78q0 -43 -30 -72.5t-75 -29.5t-74.5 29.5t-29.5 72.5q0 18 7 39t24 35q-29 -10 -50.5 -21.5t-33.5 -21.5q-16 -12 -25 -25z" />
<glyph horiz-adv-x="512" d="M125 141q0 55 39 94t92 39q66 0 108 -47t42 -123q0 -152 -73 -212t-202 -62v84q43 0 71.5 8t49.5 25q35 29 39 73q-4 -4 -14.5 -7t-20.5 -3q-59 0 -95 39t-36 92z" />
<glyph horiz-adv-x="512" d="M125 1352q0 152 72.5 212t201.5 62v-84q-80 0 -118 -33q-20 -16 -28.5 -34.5t-12.5 -38.5q10 10 34 10q59 0 95.5 -39t36.5 -92q0 -55 -39 -94t-93 -39q-66 0 -107.5 47t-41.5 123z" />
</font>
</defs>
</svg>
