<?xml version="1.0" standalone="no"?>
<!DOCTYPE svg PUBLIC "-//W3C//DTD SVG 1.1//EN" "http://www.w3.org/Graphics/SVG/1.1/DTD/svg11.dtd" >
<svg xmlns="http://www.w3.org/2000/svg" width="100%" height="100%">
<metadata>
Created by FontForge 20090622 at Tue Apr 16 10:22:28 2013
 By fontface
HTF Gotham  Copr. 2002 The Hoefler Type Foundry, Inc. Info: www.typography.com
</metadata>
<defs>
<font id="GothamBold-Italic" horiz-adv-x="500" >
  <font-face 
    font-family="Gotham Bold"
    font-weight="700"
    font-style="italic"
    font-stretch="normal"
    units-per-em="1000"
    panose-1="2 0 8 3 4 0 0 9 0 4"
    ascent="800"
    descent="-200"
    x-height="536"
    cap-height="700"
    bbox="-138 -200 1247 932"
    underline-thickness="20"
    underline-position="-113"
    slope="-12"
    unicode-range="U+0020-U+FB02"
  />
<missing-glyph 
 />
    <glyph glyph-name="fi" unicode="fi" horiz-adv-x="713" 
d="M558 536h152l-144 -536h-152zM133 406h-64l35 130h63l7 29q23 90 77.5 131t139.5 41q32 0 58.5 -4t45.5 -11l-33 -126q-15 6 -32.5 9.5t-33.5 3.5q-59 0 -75 -58l-4 -15h129l-35 -130h-126l-110 -406h-152zM607 730h160l-37 -135h-160z" />
    <glyph glyph-name="fl" unicode="fl" horiz-adv-x="713" 
d="M133 406h-64l35 130h63l7 29q23 90 77.5 131t139.5 41q32 0 58.5 -4t45.5 -11l-33 -126q-15 6 -32.5 9.5t-33.5 3.5q-59 0 -75 -58l-4 -15h129l-35 -130h-126l-110 -406h-152zM610 730h152l-196 -730h-152z" />
    <glyph glyph-name=".notdef" 
 />
    <glyph glyph-name="NUL" horiz-adv-x="0" 
 />
    <glyph glyph-name="nonmarkingreturn" horiz-adv-x="300" 
 />
    <glyph glyph-name="space" unicode=" " horiz-adv-x="300" 
 />
    <glyph glyph-name="exclam" unicode="!" horiz-adv-x="325" 
d="M52 160h162l-43 -160h-162zM183 680l6 20h178l-6 -20l-165 -442h-84z" />
    <glyph glyph-name="quotedbl" unicode="&#x22;" horiz-adv-x="528" 
d="M183 700h170l-2 -5l-173 -314h-79zM425 700h170l-2 -5l-173 -314h-79z" />
    <glyph glyph-name="numbersign" unicode="#" horiz-adv-x="691" 
d="M414 278l51 148h-145l-51 -148h145zM92 150h-81l34 128h92l51 148h-93l34 128h104l51 146h132l-51 -146h145l51 146h132l-51 -146h82l-34 -128h-93l-51 -148h94l-34 -128h-105l-52 -150h-132l52 150h-145l-52 -150h-132z" />
    <glyph glyph-name="dollar" unicode="$" horiz-adv-x="636" 
d="M330 132q42 4 65.5 22t23.5 50q0 19 -11 32t-38 26zM368 568q-49 -3 -70.5 -24.5t-21.5 -47.5q0 -18 11.5 -30.5t41.5 -26.5zM194 10q-63 13 -113 42t-86 77l112 94q56 -64 130 -83l47 155q-35 13 -65.5 28.5t-53 36.5t-35 50t-12.5 70q0 47 21.5 87.5t58.5 70t87.5 46
t108.5 16.5h8l18 58h104l-21 -71q48 -13 85.5 -36t68.5 -55l-104 -102q-23 21 -45.5 36.5t-46.5 24.5l-45 -149q36 -14 65.5 -30t51 -38t33 -50.5t11.5 -67.5q0 -50 -22 -90.5t-60 -69t-89 -44.5t-110 -16h-1l-30 -98h-104z" />
    <glyph glyph-name="percent" unicode="%" horiz-adv-x="880" 
d="M651 79q21 0 37.5 11t28 28t18 37.5t6.5 40.5q0 33 -16.5 52t-45.5 19q-21 0 -37.5 -11t-28 -28t-18 -37.5t-6.5 -40.5q0 -33 16.5 -52t45.5 -19zM244 433q21 0 37.5 11t28 28t18 37.5t6.5 40.5q0 33 -16.5 52t-45.5 19q-21 0 -37.5 -11t-28 -28t-18 -37.5t-6.5 -40.5
q0 -33 16.5 -52t45.5 -19zM645 -8q-35 0 -63.5 11.5t-48.5 31.5t-31 48.5t-11 62.5q0 39 14 76t39.5 66.5t61 47.5t79.5 18q35 0 63.5 -11.5t48.5 -31.5t31 -48.5t11 -62.5q0 -39 -14 -76t-39.5 -66.5t-61.5 -47.5t-79 -18zM733 700h130l-673 -700h-130zM238 346
q-35 0 -63.5 11.5t-48.5 31.5t-31 48.5t-11 62.5q0 39 14 76t39.5 66.5t61 47.5t79.5 18q35 0 63.5 -11.5t48.5 -31.5t31 -48.5t11 -62.5q0 -39 -14 -76t-39.5 -66.5t-61.5 -47.5t-79 -18z" />
    <glyph glyph-name="ampersand" unicode="&#x26;" horiz-adv-x="696" 
d="M262 116q59 0 128 43l-108 149q-60 -23 -87 -55.5t-27 -65.5q0 -30 23.5 -50.5t70.5 -20.5zM348 436q34 12 56.5 23.5t35.5 23.5t18 24.5t5 27.5q0 20 -15.5 38.5t-47.5 18.5q-38 0 -59.5 -23.5t-21.5 -53.5q0 -15 6 -34t23 -45zM459 63q-50 -35 -103 -54t-111 -19
q-49 0 -89.5 13t-70 37t-46 59t-16.5 79q0 32 11 63.5t35 60t61.5 52.5t90.5 42q-17 30 -27 61t-10 60q0 39 15.5 74t44.5 62t70.5 43t92.5 16q43 0 78.5 -12.5t61 -35t39.5 -53.5t14 -67q0 -26 -9 -52t-30.5 -51.5t-58 -48.5t-91.5 -42l79 -106q23 24 44 52.5t41 60.5
l93 -65q-52 -79 -109 -141l69 -93l-113 -72z" />
    <glyph glyph-name="quotesingle" unicode="'" horiz-adv-x="286" 
d="M183 700h170l-2 -5l-173 -314h-79z" />
    <glyph glyph-name="parenleft" unicode="(" horiz-adv-x="445" 
d="M241 -143q-88 70 -135.5 158.5t-47.5 193.5q0 82 26.5 157t76.5 139.5t123.5 117t168.5 90.5l56 -113q-74 -34 -129.5 -77.5t-92.5 -93.5t-56 -105t-19 -110q0 -75 35.5 -140t88.5 -120z" />
    <glyph glyph-name="parenright" unicode=")" horiz-adv-x="445" 
d="M-54 -26q73 34 129 77.5t93 93.5t56 104.5t19 110.5q0 75 -35.5 140t-88.5 120l95 97q88 -70 135.5 -158.5t47.5 -193.5q0 -82 -26.5 -157t-76.5 -139.5t-124 -117.5t-168 -90z" />
    <glyph glyph-name="asterisk" unicode="*" horiz-adv-x="430" 
d="M199 388l46 112l-113 -46l-22 80l121 16l-96 75l59 59l74 -97l16 120l79 -21l-46 -112l113 46l22 -80l-121 -16l96 -75l-59 -59l-74 97l-16 -120z" />
    <glyph glyph-name="plus" unicode="+" horiz-adv-x="649" 
d="M258 283h-181l37 138h181l48 180h142l-48 -180h181l-37 -138h-181l-48 -180h-142z" />
    <glyph glyph-name="comma" unicode="," horiz-adv-x="319" 
d="M-61 -99q62 5 92 30.5t38 68.5h-62l43 160h162l-36 -135q-26 -99 -82 -142t-145 -45z" />
    <glyph glyph-name="hyphen" unicode="-" horiz-adv-x="412" 
d="M83 383h308l-39 -146h-308z" />
    <glyph glyph-name="hyphen" unicode="&#xad;" horiz-adv-x="412" 
d="M83 383h308l-39 -146h-308z" />
    <glyph glyph-name="period" unicode="." horiz-adv-x="319" 
d="M50 160h162l-43 -160h-162z" />
    <glyph glyph-name="slash" unicode="/" horiz-adv-x="530" 
d="M546 798h143l-681 -926h-143z" />
    <glyph glyph-name="zero" unicode="0" horiz-adv-x="730" 
d="M347 127q47 0 85 28t64.5 71t41 95t14.5 101q0 75 -34.5 113t-92.5 38q-47 0 -85 -28t-64.5 -71t-41 -95t-14.5 -101q0 -75 34.5 -113t92.5 -38zM335 -12q-62 0 -112 20.5t-86 59t-55.5 92t-19.5 119.5q0 76 25.5 153.5t73.5 139.5t117.5 101t158.5 39q61 0 111.5 -20.5
t86.5 -59t55.5 -92t19.5 -119.5q0 -77 -25.5 -154t-73.5 -139t-117.5 -101t-158.5 -39z" />
    <glyph glyph-name="one" unicode="1" horiz-adv-x="434" 
d="M240 542l-127 -29l-2 131l220 61h105l-189 -705h-152z" />
    <glyph glyph-name="two" unicode="2" horiz-adv-x="614" 
d="M4 126l354 244q51 35 76.5 65.5t25.5 64.5q0 35 -23.5 53.5t-64.5 18.5q-46 0 -85.5 -23.5t-81.5 -63.5l-94 98q51 58 117.5 92.5t150.5 34.5q54 0 98.5 -14.5t75.5 -40t48 -61t17 -77.5q0 -32 -8 -61t-27.5 -57t-51 -56.5t-78.5 -61.5l-216 -148h294l-36 -133h-525z" />
    <glyph glyph-name="three" unicode="3" horiz-adv-x="604" 
d="M242 -12q-99 0 -161.5 36.5t-97.5 96.5l114 84q28 -38 62.5 -58.5t89.5 -20.5q28 0 52 8t42 21.5t28 31.5t10 37q0 41 -36.5 62t-100.5 21h-43l-6 96l206 165h-265l36 132h473l-32 -116l-226 -172q33 -8 60.5 -22t47 -35t30.5 -50t11 -67q0 -53 -22.5 -98.5t-62 -79.5
t-93 -53t-116.5 -19z" />
    <glyph glyph-name="four" unicode="4" horiz-adv-x="659" 
d="M389 276l60 224l-238 -224h178zM355 151h-324l-15 114l483 440h150l-115 -429h94l-34 -125h-94l-40 -151h-145z" />
    <glyph glyph-name="five" unicode="5" horiz-adv-x="610" 
d="M250 -11q-38 0 -76.5 9.5t-73 26.5t-63 39.5t-46.5 49.5l108 91q35 -38 75 -57.5t89 -19.5q31 0 57 8.5t45 23.5t29.5 35t10.5 42q0 38 -31.5 64t-98.5 26q-23 0 -48.5 -7t-45.5 -15l-78 63l109 332h424l-37 -135h-285l-40 -119q37 8 71 8q48 0 88 -14t69 -40t45 -63
t16 -83q0 -52 -22 -100t-63 -84.5t-98.5 -58.5t-129.5 -22z" />
    <glyph glyph-name="six" unicode="6" horiz-adv-x="643" 
d="M313 118q30 0 55 10.5t43 27.5t27.5 38.5t9.5 44.5q0 43 -29 67.5t-76 24.5q-31 0 -56.5 -9.5t-43.5 -26t-28 -38.5t-10 -46q0 -37 26 -63q30 -30 82 -30zM313 -12q-56 0 -103 16t-79 48q-35 35 -53.5 83t-18.5 114q0 50 8.5 99.5t26 95.5t43 87.5t59.5 75.5
q48 48 112 76.5t142 28.5q67 0 121.5 -22t94.5 -59l-89 -111q-27 24 -62 39t-78 15q-42 0 -75 -13.5t-61 -41.5q-23 -23 -42 -55t-30 -68q23 23 67 41t94 18q44 0 82.5 -13t67.5 -37.5t46 -61t17 -83.5q0 -53 -22.5 -102t-61.5 -87t-92 -60.5t-114 -22.5z" />
    <glyph glyph-name="seven" unicode="7" horiz-adv-x="609" 
d="M444 567h-322l36 133h504l-32 -116l-440 -584h-181z" />
    <glyph glyph-name="eight" unicode="8" horiz-adv-x="662" 
d="M308 114q57 0 94.5 25t38.5 67q1 38 -34 62t-93 24t-94.5 -26t-37.5 -65q-1 -38 34 -62.5t92 -24.5zM378 416q49 0 81.5 25t33.5 62q1 33 -27.5 57t-83.5 24q-48 0 -80.5 -24.5t-33.5 -61.5q-1 -35 29 -58.5t81 -23.5zM300 -10q-54 0 -102.5 14t-85.5 40t-58.5 62.5
t-21.5 81.5q0 40 13.5 71.5t37.5 55t57 39.5t71 25q-42 21 -63.5 57t-21.5 78q0 34 16.5 69t49.5 63t82 46t115 18q55 0 100.5 -14t78.5 -39t51 -59.5t18 -75.5q0 -66 -40.5 -112t-112.5 -63q48 -18 77.5 -55.5t29.5 -93.5q0 -40 -19.5 -77.5t-57 -66.5t-91.5 -46.5
t-123 -17.5z" />
    <glyph glyph-name="nine" unicode="9" horiz-adv-x="643" 
d="M346 362q31 0 56 10t43 27t27.5 39.5t9.5 47.5q0 19 -6.5 36.5t-18.5 29.5q-30 30 -82 30q-31 0 -56 -10t-43 -27.5t-27.5 -40.5t-9.5 -48q0 -46 30 -70t77 -24zM243 -12q-66 0 -124 23t-106 66l90 111q34 -29 68.5 -45.5t79.5 -16.5q80 0 137 57q46 46 68 113
q-23 -23 -66 -40.5t-93 -17.5q-44 0 -82.5 12.5t-67.5 37.5t-46 62t-17 86q0 57 22.5 107.5t61.5 88t92 59t114 21.5q51 0 101 -15.5t82 -47.5q35 -35 53.5 -85t18.5 -127q0 -95 -36 -186t-104 -159q-49 -49 -111 -76.5t-135 -27.5z" />
    <glyph glyph-name="colon" unicode=":" horiz-adv-x="319" 
d="M50 160h162l-43 -160h-162zM151 536h162l-43 -160h-162z" />
    <glyph glyph-name="semicolon" unicode=";" horiz-adv-x="319" 
d="M-61 -99q62 5 92 30.5t38 68.5h-62l43 160h162l-36 -135q-26 -99 -82 -142t-145 -45zM151 536h162l-43 -160h-162z" />
    <glyph glyph-name="semicolon" unicode="&#x37e;" horiz-adv-x="319" 
d="M-61 -99q62 5 92 30.5t38 68.5h-62l43 160h162l-36 -135q-26 -99 -82 -142t-145 -45zM151 536h162l-43 -160h-162z" />
    <glyph glyph-name="less" unicode="&#x3c;" horiz-adv-x="640" 
d="M72 283l37 138l541 212l-41 -148l-375 -139l301 -139l-36 -136z" />
    <glyph glyph-name="equal" unicode="=" horiz-adv-x="640" 
d="M91 291h474l-37 -138h-474zM161 551h474l-37 -138h-474z" />
    <glyph glyph-name="greater" unicode="&#x3e;" horiz-adv-x="640" 
d="M73 219l375 139l-301 139l36 136l427 -212l-37 -138l-541 -212z" />
    <glyph glyph-name="question" unicode="?" horiz-adv-x="544" 
d="M129 160h162l-43 -160h-162zM197 400l6 5q97 7 148.5 32.5t51.5 69.5q0 29 -20 45.5t-63 16.5q-36 0 -73.5 -15.5t-69.5 -43.5l-80 101q48 49 112.5 73.5t131.5 24.5q53 0 94.5 -15t70 -40.5t43.5 -58t15 -68.5q0 -88 -64.5 -143.5t-191.5 -75.5l-29 -70h-102z" />
    <glyph glyph-name="at" unicode="@" horiz-adv-x="980" 
d="M461 165q25 0 50 12.5t44.5 34t31.5 50.5t12 62q0 38 -24.5 60.5t-62.5 22.5q-25 0 -49.5 -12t-43.5 -33t-30.5 -49.5t-11.5 -61.5q0 -40 22.5 -63t61.5 -23zM471 -155q-92 0 -168.5 28.5t-131.5 80t-85.5 123t-30.5 156.5q0 96 37.5 183.5t103.5 154t155 105.5t191 39
q94 0 169 -28t127.5 -75.5t80.5 -110t28 -130.5q0 -79 -20.5 -137t-53.5 -95.5t-75.5 -55.5t-87.5 -18q-51 0 -87 21t-52 56q-30 -31 -68.5 -54.5t-91.5 -23.5q-33 0 -62.5 11t-51 32.5t-34.5 53t-13 72.5q0 60 22 111t57 87.5t80 57t92 20.5q51 0 81 -19t50 -51l19 62
l111 -31l-79 -249q-17 -55 1 -82t57 -27q27 0 56 16.5t53 49.5t39.5 81.5t15.5 111.5q0 61 -25 116t-72 97t-114.5 66.5t-151.5 24.5q-94 0 -175.5 -36t-141.5 -97t-94.5 -141t-34.5 -168q0 -77 27.5 -141t77 -110.5t118.5 -72t152 -25.5q56 0 105 11t100 34l16 -35
q-55 -26 -108 -37.5t-113 -11.5z" />
    <glyph glyph-name="A" unicode="A" horiz-adv-x="765" 
d="M493 293l-32 231l-154 -231h186zM432 705h148l111 -705h-158l-22 157h-296l-106 -157h-166z" />
    <glyph glyph-name="B" unicode="B" horiz-adv-x="717" 
d="M379 135q58 0 91.5 23.5t33.5 64.5q0 31 -24 48.5t-72 17.5h-169l-41 -154h181zM429 417q60 0 93 20.5t33 64.5q0 27 -23 45t-74 18h-145l-39 -148h155zM200 700h272q62 0 106.5 -13.5t73.5 -37t43 -55t14 -66.5q0 -70 -41 -114t-109 -59q44 -20 71 -54t27 -88
q0 -47 -20 -86t-58 -67.5t-94 -44t-129 -15.5h-344z" />
    <glyph glyph-name="C" unicode="C" horiz-adv-x="726" 
d="M397 -12q-72 0 -132.5 21.5t-104.5 61t-68.5 96t-24.5 126.5q0 84 33.5 159.5t91 133.5t135 92t166.5 34q101 0 169.5 -40t110.5 -109l-127 -89q-31 44 -70 70t-102 26q-48 0 -92.5 -21.5t-79 -58t-55 -86t-20.5 -105.5q0 -38 12.5 -69t35.5 -53.5t54 -34.5t69 -12
q51 0 88 18.5t76 50.5l100 -104q-51 -47 -114 -77t-151 -30z" />
    <glyph glyph-name="D" unicode="D" horiz-adv-x="777" 
d="M290 139q70 0 131 21.5t103 63.5q34 34 52 79t18 96q0 70 -41 111q-23 23 -62 37t-99 14h-75l-114 -422h87zM200 700h204q102 0 168 -25t106 -65q76 -76 76 -205q0 -79 -29 -149t-86 -127q-63 -63 -154 -96t-213 -33h-260z" />
    <glyph glyph-name="E" unicode="E" horiz-adv-x="665" 
d="M200 700h523l-37 -137h-370l-38 -143h325l-37 -135h-325l-40 -148h376l-37 -137h-528z" />
    <glyph glyph-name="F" unicode="F" horiz-adv-x="663" 
d="M200 700h533l-38 -140h-379l-40 -149h334l-37 -140h-334l-73 -271h-154z" />
    <glyph glyph-name="G" unicode="G" horiz-adv-x="780" 
d="M395 -12q-60 0 -119 18t-105.5 55.5t-75.5 95t-29 135.5q0 82 33 157.5t91 134t138 93.5t175 35q55 0 100 -10t80 -26.5t61.5 -38.5t44.5 -46l-114 -101q-31 34 -74.5 57.5t-109.5 23.5q-56 0 -104.5 -22.5t-84 -60t-56 -87t-20.5 -104.5q0 -41 14 -72.5t38.5 -52.5
t57 -32t69.5 -11q41 0 71.5 8t53.5 19l33 114h-155l36 133h304l-99 -349q-52 -29 -113.5 -47.5t-140.5 -18.5z" />
    <glyph glyph-name="H" unicode="H" horiz-adv-x="756" 
d="M200 700h154l-74 -277h280l74 277h154l-188 -700h-154l76 281h-280l-76 -281h-154z" />
    <glyph glyph-name="I" unicode="I" horiz-adv-x="336" 
d="M207 700h154l-188 -700h-154z" />
    <glyph glyph-name="J" unicode="J" horiz-adv-x="575" 
d="M188 -10q-67 0 -128 29t-99 88l109 95q29 -37 59 -53t67 -16q29 0 52.5 10.5t41.5 28.5q8 8 15 18.5t14 26t15 39.5t17 59l103 385h158l-113 -422q-11 -41 -21 -72.5t-22 -56.5t-26 -45t-33 -39q-39 -39 -91 -57t-118 -18z" />
    <glyph glyph-name="K" unicode="K" horiz-adv-x="727" 
d="M200 700h154l-83 -310l346 310h208l-341 -293l165 -407h-169l-118 315l-145 -124l-51 -191h-154z" />
    <glyph glyph-name="L" unicode="L" horiz-adv-x="626" 
d="M200 700h154l-150 -560h349l-38 -140h-503z" />
    <glyph glyph-name="M" unicode="M" horiz-adv-x="868" 
d="M200 700h160l101 -296l261 296h178l-188 -700h-156l122 457l-274 -299h-4l-112 296l-122 -454h-154z" />
    <glyph glyph-name="N" unicode="N" horiz-adv-x="786" 
d="M200 700h142l204 -445l120 445h152l-188 -700h-131l-212 459l-123 -459h-152z" />
    <glyph glyph-name="O" unicode="O" horiz-adv-x="832" 
d="M405 130q55 0 100 24t76.5 61.5t49 84.5t17.5 92q0 39 -11.5 71.5t-34 56.5t-56 37t-76.5 13q-55 0 -100 -24t-76.5 -61.5t-49 -84.5t-17.5 -92q0 -39 11.5 -71.5t34 -56.5t56 -37t76.5 -13zM387 -12q-72 0 -131 23.5t-101 65.5t-65 98.5t-23 122.5q0 78 30.5 152.5
t86 132.5t133 93.5t171.5 35.5q72 0 131 -23.5t101 -65.5t65 -98.5t23 -122.5q0 -78 -30.5 -152.5t-86 -132.5t-133 -93.5t-171.5 -35.5z" />
    <glyph glyph-name="P" unicode="P" horiz-adv-x="679" 
d="M364 347q77 0 124 32.5t47 92.5q0 35 -23 58q-16 16 -38.5 23.5t-57.5 7.5h-100l-57 -214h105zM200 700h222q75 0 128.5 -16.5t91.5 -54.5q54 -54 54 -144q0 -65 -26.5 -116t-72 -86t-107.5 -53t-134 -18h-133l-57 -212h-154z" />
    <glyph glyph-name="Q" unicode="Q" horiz-adv-x="832" 
d="M405 130q24 0 46 5t42 13l-90 122l127 85l71 -114q23 35 35 74t12 77q0 39 -11.5 71.5t-34 56.5t-56 37t-76.5 13q-55 0 -100 -24t-76.5 -61.5t-49 -84.5t-17.5 -92q0 -39 11.5 -71.5t34 -56.5t56 -37t76.5 -13zM572 30q-41 -20 -87.5 -31t-97.5 -11q-72 0 -131 23.5
t-101 65.5t-65 98.5t-23 122.5q0 78 30.5 152.5t86 132.5t133 93.5t171.5 35.5q72 0 131 -23.5t101 -65.5t65 -98.5t23 -122.5q0 -80 -31 -154.5t-88 -133.5l56 -74l-127 -84z" />
    <glyph glyph-name="R" unicode="R" horiz-adv-x="727" 
d="M400 360q45 0 81.5 11t59.5 34q29 29 29 71q0 34 -22 56q-29 29 -102 29h-129l-54 -201h137zM200 700h255q78 0 132.5 -17.5t89.5 -52.5q54 -54 54 -141q0 -51 -16.5 -93t-47.5 -73q-60 -60 -162 -84l119 -239h-175l-108 224h-115l-60 -224h-154z" />
    <glyph glyph-name="S" unicode="S" horiz-adv-x="636" 
d="M295 -10q-205 0 -305 129l116 98q42 -45 89 -68.5t107 -23.5q47 0 77 20t30 53q0 13 -5.5 23.5t-19 21t-36.5 22t-58 25.5q-34 14 -65 30.5t-55 39t-38 51.5t-14 68q0 54 22.5 96.5t60.5 72.5t88.5 46t106.5 16q91 0 154 -28t108 -76l-106 -106q-40 37 -78.5 56t-89.5 19
q-49 0 -75.5 -22.5t-26.5 -48.5q0 -14 6 -24.5t20 -20.5t37.5 -21t59.5 -26t66.5 -32t53 -39t35.5 -51t13 -67q0 -55 -23 -98.5t-61 -73.5t-88.5 -45.5t-105.5 -15.5z" />
    <glyph glyph-name="T" unicode="T" horiz-adv-x="620" 
d="M309 558h-213l38 142h580l-38 -142h-213l-150 -558h-154z" />
    <glyph glyph-name="U" unicode="U" horiz-adv-x="764" 
d="M343 -11q-61 0 -109.5 16t-82.5 46t-52 74t-18 100q0 52 17 112l97 363h154l-101 -377q-5 -18 -8 -36t-3 -40q0 -52 31 -84t91 -32q68 0 114 44q46 46 68 130l106 395h154l-112 -417q-36 -136 -108 -208q-43 -43 -101.5 -64.5t-136.5 -21.5z" />
    <glyph glyph-name="V" unicode="V" horiz-adv-x="724" 
d="M125 700h165l48 -488l310 488h173l-469 -705h-136z" />
    <glyph glyph-name="W" unicode="W" horiz-adv-x="1108" 
d="M130 700h160l18 -474l282 476h132l32 -476l272 474h174l-428 -705h-143l-34 449l-274 -449h-141z" />
    <glyph glyph-name="X" unicode="X" horiz-adv-x="700" 
d="M287 363l-150 337h173l88 -225l196 225h197l-329 -354l155 -346h-173l-94 235l-204 -235h-197z" />
    <glyph glyph-name="Y" unicode="Y" horiz-adv-x="650" 
d="M243 276l-145 424h171l82 -290l240 290h186l-383 -438l-71 -262h-154z" />
    <glyph glyph-name="Z" unicode="Z" horiz-adv-x="689" 
d="M12 117l492 448h-360l37 135h568l-32 -117l-492 -448h375l-36 -135h-583z" />
    <glyph glyph-name="bracketleft" unicode="[" horiz-adv-x="465" 
d="M213 700h323l-32 -119h-177l-159 -592h177l-32 -119h-323z" />
    <glyph glyph-name="backslash" unicode="\" horiz-adv-x="530" 
d="M118 798h126l208 -926h-126z" />
    <glyph glyph-name="bracketright" unicode="]" horiz-adv-x="465" 
d="M-30 -11h177l159 592h-177l32 119h323l-223 -830h-323z" />
    <glyph glyph-name="asciicircum" unicode="^" 
d="M288 700h104l92 -207h-99l-60 117l-122 -117h-119z" />
    <glyph glyph-name="underscore" unicode="_" horiz-adv-x="600" 
d="M-84 -44h604l-31 -116h-604z" />
    <glyph glyph-name="grave" unicode="`" 
d="M251 715l134 57l65 -177h-104z" />
    <glyph glyph-name="a" unicode="a" horiz-adv-x="588" 
d="M228 94q24 0 45.5 8.5t39.5 23.5t31 34.5t19 41.5l4 14q-20 8 -46 13.5t-54 5.5q-48 0 -78.5 -22.5t-30.5 -61.5q0 -25 19 -41t51 -16zM163 -10q-35 0 -63.5 10.5t-49 30t-32 45.5t-11.5 58q0 46 18 82t49 61t73 37.5t91 12.5q44 0 80.5 -6.5t70.5 -17.5l2 7l4 18.5
t2 21.5q0 28 -22 45.5t-79 17.5q-39 0 -76.5 -8.5t-66.5 -20.5l-24 120q42 17 92 27.5t107 10.5q109 0 163 -43t54 -122q0 -21 -3.5 -41t-8.5 -40l-79 -296h-147l16 62q-32 -35 -72 -53.5t-88 -18.5z" />
    <glyph glyph-name="b" unicode="b" horiz-adv-x="674" 
d="M317 118q31 0 59.5 14t50.5 39.5t35.5 59.5t13.5 75q0 53 -30.5 82.5t-81.5 29.5q-32 0 -61 -14.5t-51.5 -40t-36 -59.5t-13.5 -72q0 -51 32 -82.5t83 -31.5zM337 -10q-63 0 -102.5 24t-65.5 64l-21 -78h-151l194 730h152l-67 -252q35 32 70.5 50t80.5 18
q44 0 81.5 -15.5t65.5 -45t43.5 -72.5t15.5 -97q0 -71 -25 -131t-66.5 -103.5t-94.5 -67.5t-110 -24z" />
    <glyph glyph-name="c" unicode="c" horiz-adv-x="560" 
d="M292 -12q-55 0 -101 17.5t-79 49t-51.5 76t-18.5 99.5q0 66 25.5 123.5t68.5 100t100.5 67.5t121.5 25q44 0 79 -9.5t61.5 -25.5t46 -37.5t33.5 -45.5l-116 -82q-20 31 -45.5 50.5t-70.5 19.5q-30 0 -58 -15t-49 -40.5t-34 -59.5t-13 -71q0 -52 30 -82.5t75 -30.5
q35 0 63 13.5t58 39.5l78 -99q-42 -38 -89 -60.5t-115 -22.5z" />
    <glyph glyph-name="d" unicode="d" horiz-adv-x="674" 
d="M309 118q31 0 60.5 14.5t52 40t36 59.5t13.5 72q0 51 -32 82.5t-83 31.5q-31 0 -59.5 -14t-50.5 -39.5t-35.5 -60t-13.5 -74.5q0 -53 30.5 -82.5t81.5 -29.5zM246 -10q-44 0 -81.5 15.5t-65.5 45t-43.5 72.5t-15.5 97q0 71 25 131t66.5 103.5t94.5 67.5t110 24
q63 0 102.5 -24t65.5 -64l72 272h152l-195 -730h-152l16 58q-35 -32 -70.5 -50t-80.5 -18z" />
    <glyph glyph-name="e" unicode="e" horiz-adv-x="607" 
d="M430 310q5 17 5 35q0 33 -20.5 56t-67.5 23q-52 0 -91.5 -31.5t-58.5 -82.5h233zM184 215q4 -48 33 -76.5t89 -28.5q30 0 58 10t61 33l70 -94q-36 -30 -86.5 -50.5t-119.5 -20.5q-58 0 -104 16.5t-78 47t-49 74.5t-17 100q0 58 22.5 115.5t64.5 103t100.5 73.5t130.5 28
q52 0 93 -16t69 -44t42.5 -66t14.5 -83q0 -29 -7 -60t-20 -62h-367z" />
    <glyph glyph-name="f" unicode="f" horiz-adv-x="411" 
d="M133 406h-64l35 130h63l7 29q23 90 77.5 131t139.5 41q32 0 58.5 -4t45.5 -11l-33 -126q-15 6 -32.5 9.5t-33.5 3.5q-59 0 -75 -58l-4 -15h129l-35 -130h-126l-110 -406h-152z" />
    <glyph glyph-name="g" unicode="g" horiz-adv-x="671" 
d="M302 165q31 0 60 12.5t50.5 33.5t34.5 49.5t13 60.5q0 46 -29 72t-77 26q-32 0 -60 -13t-49 -35t-33 -51t-12 -60q0 -48 28.5 -71.5t73.5 -23.5zM250 -162q-81 0 -155 19.5t-128 55.5l80 104q42 -28 92 -43.5t101 -15.5q38 0 66 10.5t50 32.5q17 17 28.5 40.5t20.5 55.5
l5 18q-42 -38 -80 -54.5t-88 -16.5q-39 0 -74.5 12t-63.5 35.5t-44.5 58.5t-16.5 81q0 67 25 124.5t66 100t93.5 66.5t108.5 24q34 0 60 -7.5t45.5 -20.5t33 -30t24.5 -35l22 83h152l-115 -431q-11 -41 -21 -70t-21 -51t-23.5 -39t-28.5 -33q-37 -37 -88.5 -55.5
t-125.5 -18.5z" />
    <glyph glyph-name="h" unicode="h" horiz-adv-x="622" 
d="M191 730h152l-66 -250q29 26 65 46t81 20q72 0 115 -41.5t43 -114.5q0 -23 -5.5 -49.5t-12.5 -52.5l-77 -288h-152l79 294q3 11 5 24.5t2 23.5q0 32 -19.5 49t-54.5 17q-45 0 -74 -29.5t-42 -77.5l-81 -301h-152z" />
    <glyph glyph-name="i" unicode="i" horiz-adv-x="302" 
d="M147 536h152l-144 -536h-152zM196 730h160l-37 -135h-160z" />
    <glyph glyph-name="j" unicode="j" horiz-adv-x="301" 
d="M-46 -163q-26 0 -46 2t-37 6l32 119q9 -2 17.5 -3.5t19.5 -1.5q25 0 44 19t28 54l135 504h152l-140 -523q-14 -50 -34.5 -83.5t-46.5 -54t-57.5 -29.5t-66.5 -9zM195 730h160l-36 -135h-160z" />
    <glyph glyph-name="k" unicode="k" horiz-adv-x="591" 
d="M193 730h152l-102 -378l217 184h198l-259 -209l117 -327h-170l-76 227l-77 -62l-44 -165h-152z" />
    <glyph glyph-name="l" unicode="l" horiz-adv-x="302" 
d="M199 730h152l-196 -730h-152z" />
    <glyph glyph-name="m" unicode="m" horiz-adv-x="949" 
d="M140 536h152l-15 -56q29 26 63 46t79 20q55 0 90.5 -26t51.5 -71q35 43 83 70t109 27q72 0 113.5 -41.5t41.5 -114.5q0 -23 -5.5 -49.5t-12.5 -52.5l-77 -288h-152l79 294q3 11 5 24.5t2 23.5q0 66 -71 66q-45 0 -73 -29.5t-41 -77.5l-81 -301h-152l79 294q3 11 5 24.5
t2 23.5q0 66 -71 66q-45 0 -73 -29.5t-41 -77.5l-81 -301h-152z" />
    <glyph glyph-name="n" unicode="n" horiz-adv-x="619" 
d="M140 536h152l-15 -56q29 26 65 46t81 20q72 0 115 -41.5t43 -114.5q0 -23 -5.5 -49.5t-12.5 -52.5l-77 -288h-152l79 294q3 11 5 24.5t2 23.5q0 32 -19.5 49t-54.5 17q-45 0 -74 -29.5t-42 -77.5l-81 -301h-152z" />
    <glyph glyph-name="o" unicode="o" horiz-adv-x="652" 
d="M307 118q35 0 63.5 17t48.5 42.5t31 56.5t11 60q0 59 -32 90.5t-84 31.5q-35 0 -63.5 -17t-48.5 -42.5t-31 -57t-11 -59.5q0 -59 32 -90.5t84 -31.5zM300 -12q-60 0 -107.5 18.5t-81 51.5t-51.5 78.5t-18 99.5q0 60 24 116t66 99t98.5 69t121.5 26q60 0 107.5 -18.5
t81 -51.5t51.5 -78.5t18 -99.5q0 -60 -24.5 -116t-66.5 -99t-98.5 -69t-120.5 -26z" />
    <glyph glyph-name="p" unicode="p" horiz-adv-x="674" 
d="M317 118q31 0 59.5 14t50.5 39.5t35.5 59.5t13.5 75q0 53 -30.5 82.5t-81.5 29.5q-32 0 -61 -14.5t-51.5 -40t-36 -59.5t-13.5 -72q0 -51 32 -82.5t83 -31.5zM140 536h152l-16 -58q35 32 70.5 50t80.5 18q44 0 81.5 -15.5t65.5 -45t43.5 -72.5t15.5 -97q0 -71 -25 -131
t-66.5 -103.5t-94.5 -67.5t-110 -24q-63 0 -102.5 24t-65.5 64l-63 -238h-152z" />
    <glyph glyph-name="q" unicode="q" horiz-adv-x="674" 
d="M309 118q31 0 60.5 14.5t52 40t36 59.5t13.5 72q0 51 -32 82.5t-83 31.5q-31 0 -59.5 -14t-50.5 -39.5t-35.5 -60t-13.5 -74.5q0 -53 30.5 -82.5t81.5 -29.5zM397 58q-35 -32 -70.5 -50t-80.5 -18q-44 0 -81.5 15.5t-65.5 45t-43.5 72.5t-15.5 97q0 71 25 131t66.5 103.5
t94.5 67.5t110 24q63 0 102.5 -24t65.5 -64l20 78h152l-196 -736h-152z" />
    <glyph glyph-name="r" unicode="r" horiz-adv-x="419" 
d="M140 536h152l-29 -108q41 60 89.5 91.5t114.5 26.5l-43 -159h-8q-76 0 -132 -46t-84 -151l-51 -190h-152z" />
    <glyph glyph-name="s" unicode="s" 
d="M217 -12q-30 0 -63 6t-64.5 18t-60.5 30t-53 43l88 91q42 -42 85 -57t79 -15q30 0 47 12t17 35q0 15 -17 26.5t-45 23.5q-32 13 -60 27.5t-49.5 32.5t-34 41.5t-12.5 55.5q0 40 15 74.5t42.5 59.5t67.5 39.5t90 14.5q33 0 63.5 -6.5t58 -17.5t50 -24.5t39.5 -28.5
l-82 -96q-39 31 -73 44t-67 13q-28 0 -43.5 -12t-15.5 -33q0 -16 18.5 -28.5t52.5 -27.5l52.5 -25t47.5 -31t34 -41.5t13 -54.5q0 -44 -16.5 -79t-45.5 -59.5t-69.5 -37.5t-88.5 -13z" />
    <glyph glyph-name="t" unicode="t" horiz-adv-x="415" 
d="M192 -9q-69 0 -103 30t-34 75q0 17 2.5 33t7.5 34l65 243h-64l35 130h64l37 137h152l-37 -137h126l-35 -130h-126l-60 -225q-2 -6 -3 -12.5t-1 -11.5q0 -32 41 -32q18 0 38.5 4.5t39.5 12.5l-35 -129q-47 -22 -110 -22z" />
    <glyph glyph-name="u" unicode="u" horiz-adv-x="622" 
d="M199 -10q-72 0 -115 41.5t-43 114.5q0 23 5.5 49.5t12.5 52.5l77 288h152l-79 -294q-3 -11 -5 -24.5t-2 -23.5q0 -32 19.5 -49t54.5 -17q45 0 74 29.5t42 77.5l81 301h152l-143 -536h-152l15 56q-29 -26 -65 -46t-81 -20z" />
    <glyph glyph-name="v" unicode="v" horiz-adv-x="592" 
d="M85 536h156l24 -357l213 357h163l-353 -540h-138z" />
    <glyph glyph-name="w" unicode="w" horiz-adv-x="857" 
d="M89 536h154l-1 -325l188 327h131l14 -328l176 326h151l-312 -540h-137l-15 329l-193 -329h-136z" />
    <glyph glyph-name="x" unicode="x" horiz-adv-x="578" 
d="M212 280l-117 256h162l60 -150l126 150h181l-251 -271l118 -265h-162l-62 159l-136 -159h-181z" />
    <glyph glyph-name="y" unicode="y" horiz-adv-x="592" 
d="M85 -163q-42 0 -71 10t-54 27l81 110q12 -9 28 -15t31 -6q17 0 30 6.5t29 26.5l-66 540h155l25 -364l201 364h164l-332 -549q-26 -41 -51 -69.5t-51.5 -46.5t-55.5 -26t-63 -8z" />
    <glyph glyph-name="z" unicode="z" horiz-adv-x="557" 
d="M2 107l351 306h-260l33 123h454l-29 -107l-352 -306h273l-33 -123h-466z" />
    <glyph glyph-name="braceleft" unicode="{" horiz-adv-x="490" 
d="M308 -141q-101 19 -143.5 56.5t-42.5 96.5q0 33 20 86q8 20 12 39.5t4 31.5q0 13 -2.5 24.5t-10.5 19t-24.5 12t-44.5 4.5h-32l31 116h32q35 0 59.5 6t40.5 22.5t26 46.5t16 78q7 56 26.5 97t53.5 67t84 39t118 14l10 -102q-47 -5 -77 -15t-47 -28t-25 -44.5t-12 -63.5
q-6 -52 -18 -86t-32 -55.5t-48 -31.5t-65 -14q42 -6 63.5 -30t21.5 -59q0 -20 -5.5 -40t-12.5 -37q-6 -17 -11.5 -35t-5.5 -35q0 -15 4 -27t14 -22t27.5 -19t45.5 -19z" />
    <glyph glyph-name="bar" unicode="|" horiz-adv-x="350" 
d="M132 798h120v-926h-120v926z" />
    <glyph glyph-name="braceright" unicode="}" horiz-adv-x="490" 
d="M-41 -39q47 4 76.5 14.5t47 28.5t25.5 44.5t12 63.5q6 52 18 86t32 55.5t48 31.5t65 14q-42 6 -63.5 30t-21.5 59q0 20 5.5 40t12.5 37q6 16 11.5 34.5t5.5 35.5q0 15 -4 27t-14 22t-27.5 19t-45.5 19l50 93q101 -20 143.5 -57t42.5 -96q0 -33 -20 -86q-8 -20 -12 -39.5
t-4 -31.5q0 -14 2.5 -25t10.5 -18.5t24.5 -12t44.5 -4.5h32l-31 -116h-32q-35 0 -59.5 -6t-41 -22.5t-26 -46.5t-15.5 -78q-7 -56 -26.5 -97t-53.5 -67t-84 -39t-118 -14z" />
    <glyph glyph-name="asciitilde" unicode="~" horiz-adv-x="510" 
d="M55 260q26 59 65.5 96t87.5 37q26 0 44 -8t35 -21q20 -14 30.5 -20t22.5 -6q23 0 39.5 16.5t30.5 42.5l80 -40q-26 -59 -65.5 -96t-87.5 -37q-26 0 -43.5 8t-35.5 21q-20 14 -30.5 20t-22.5 6q-23 0 -39.5 -16.5t-30.5 -42.5z" />
    <glyph glyph-name="Adieresis" unicode="&#xc4;" horiz-adv-x="765" 
d="M366 890h146l-37 -135h-146zM580 890h146l-37 -135h-146zM493 293l-32 231l-154 -231h186zM432 705h148l111 -705h-158l-22 157h-296l-106 -157h-166z" />
    <glyph glyph-name="Aring" unicode="&#xc5;" horiz-adv-x="765" 
d="M493 293l-32 231l-154 -231h186zM509 714q15 0 27.5 6.5t21.5 17.5t14 25t5 29q0 21 -12.5 35.5t-35.5 14.5q-15 0 -27.5 -6.5t-21.5 -17.5t-14 -25t-5 -29q0 -21 12.5 -35.5t35.5 -14.5zM423 692q-26 29 -26 71q0 27 10.5 51.5t28.5 42.5t42.5 29t52.5 11q51 0 80.5 -30
t29.5 -74q0 -34 -16 -62.5t-42 -47.5l108 -683h-158l-22 157h-296l-106 -157h-166z" />
    <glyph glyph-name="Ccedilla" unicode="&#xc7;" horiz-adv-x="726" 
d="M280 -173l-113 53l117 123q-49 14 -89 40.5t-68.5 63.5t-44 83.5t-15.5 102.5q0 84 33.5 159.5t91 133.5t135 92t166.5 34q101 0 169.5 -40t110.5 -109l-127 -89q-31 44 -70 70t-102 26q-48 0 -92.5 -21.5t-79 -58t-55 -86t-20.5 -105.5q0 -38 12.5 -69t35.5 -53.5
t54 -34.5t69 -12q51 0 88 18.5t76 50.5l100 -104q-51 -47 -114 -77t-151 -30h-9z" />
    <glyph glyph-name="Eacute" unicode="&#xc9;" horiz-adv-x="665" 
d="M546 932l128 -57l-161 -120h-128zM200 700h523l-37 -137h-370l-38 -143h325l-37 -135h-325l-40 -148h376l-37 -137h-528z" />
    <glyph glyph-name="Ntilde" unicode="&#xd1;" horiz-adv-x="786" 
d="M307 788q26 59 65.5 96t87.5 37q26 0 44 -8t35 -21q20 -14 30.5 -20t22.5 -6q23 0 39.5 16.5t30.5 42.5l80 -40q-26 -59 -65.5 -96t-87.5 -37q-26 0 -43.5 8t-35.5 21q-20 14 -30.5 20t-22.5 6q-23 0 -39.5 -16.5t-30.5 -42.5zM200 700h142l204 -445l120 445h152
l-188 -700h-131l-212 459l-123 -459h-152z" />
    <glyph glyph-name="Odieresis" unicode="&#xd6;" horiz-adv-x="832" 
d="M379 890h146l-37 -135h-146zM593 890h146l-37 -135h-146zM405 130q55 0 100 24t76.5 61.5t49 84.5t17.5 92q0 39 -11.5 71.5t-34 56.5t-56 37t-76.5 13q-55 0 -100 -24t-76.5 -61.5t-49 -84.5t-17.5 -92q0 -39 11.5 -71.5t34 -56.5t56 -37t76.5 -13zM387 -12
q-72 0 -131 23.5t-101 65.5t-65 98.5t-23 122.5q0 78 30.5 152.5t86 132.5t133 93.5t171.5 35.5q72 0 131 -23.5t101 -65.5t65 -98.5t23 -122.5q0 -78 -30.5 -152.5t-86 -132.5t-133 -93.5t-171.5 -35.5z" />
    <glyph glyph-name="Udieresis" unicode="&#xdc;" horiz-adv-x="764" 
d="M368 890h146l-37 -135h-146zM582 890h146l-37 -135h-146zM343 -11q-61 0 -109.5 16t-82.5 46t-52 74t-18 100q0 52 17 112l97 363h154l-101 -377q-5 -18 -8 -36t-3 -40q0 -52 31 -84t91 -32q68 0 114 44q46 46 68 130l106 395h154l-112 -417q-36 -136 -108 -208
q-43 -43 -101.5 -64.5t-136.5 -21.5z" />
    <glyph glyph-name="aacute" unicode="&#xe1;" horiz-adv-x="588" 
d="M445 772l128 -57l-161 -120h-128zM228 94q24 0 45.5 8.5t39.5 23.5t31 34.5t19 41.5l4 14q-20 8 -46 13.5t-54 5.5q-48 0 -78.5 -22.5t-30.5 -61.5q0 -25 19 -41t51 -16zM163 -10q-35 0 -63.5 10.5t-49 30t-32 45.5t-11.5 58q0 46 18 82t49 61t73 37.5t91 12.5
q44 0 80.5 -6.5t70.5 -17.5l2 7l4 18.5t2 21.5q0 28 -22 45.5t-79 17.5q-39 0 -76.5 -8.5t-66.5 -20.5l-24 120q42 17 92 27.5t107 10.5q109 0 163 -43t54 -122q0 -21 -3.5 -41t-8.5 -40l-79 -296h-147l16 62q-32 -35 -72 -53.5t-88 -18.5z" />
    <glyph glyph-name="agrave" unicode="&#xe0;" horiz-adv-x="588" 
d="M237 715l134 57l65 -177h-104zM228 94q24 0 45.5 8.5t39.5 23.5t31 34.5t19 41.5l4 14q-20 8 -46 13.5t-54 5.5q-48 0 -78.5 -22.5t-30.5 -61.5q0 -25 19 -41t51 -16zM163 -10q-35 0 -63.5 10.5t-49 30t-32 45.5t-11.5 58q0 46 18 82t49 61t73 37.5t91 12.5
q44 0 80.5 -6.5t70.5 -17.5l2 7l4 18.5t2 21.5q0 28 -22 45.5t-79 17.5q-39 0 -76.5 -8.5t-66.5 -20.5l-24 120q42 17 92 27.5t107 10.5q109 0 163 -43t54 -122q0 -21 -3.5 -41t-8.5 -40l-79 -296h-147l16 62q-32 -35 -72 -53.5t-88 -18.5z" />
    <glyph glyph-name="acircumflex" unicode="&#xe2;" horiz-adv-x="588" 
d="M344 752h144l81 -157h-110l-61 66l-97 -66h-122zM228 94q24 0 45.5 8.5t39.5 23.5t31 34.5t19 41.5l4 14q-20 8 -46 13.5t-54 5.5q-48 0 -78.5 -22.5t-30.5 -61.5q0 -25 19 -41t51 -16zM163 -10q-35 0 -63.5 10.5t-49 30t-32 45.5t-11.5 58q0 46 18 82t49 61t73 37.5
t91 12.5q44 0 80.5 -6.5t70.5 -17.5l2 7l4 18.5t2 21.5q0 28 -22 45.5t-79 17.5q-39 0 -76.5 -8.5t-66.5 -20.5l-24 120q42 17 92 27.5t107 10.5q109 0 163 -43t54 -122q0 -21 -3.5 -41t-8.5 -40l-79 -296h-147l16 62q-32 -35 -72 -53.5t-88 -18.5z" />
    <glyph glyph-name="adieresis" unicode="&#xe4;" horiz-adv-x="588" 
d="M232 730h146l-37 -135h-146zM446 730h146l-37 -135h-146zM228 94q24 0 45.5 8.5t39.5 23.5t31 34.5t19 41.5l4 14q-20 8 -46 13.5t-54 5.5q-48 0 -78.5 -22.5t-30.5 -61.5q0 -25 19 -41t51 -16zM163 -10q-35 0 -63.5 10.5t-49 30t-32 45.5t-11.5 58q0 46 18 82t49 61
t73 37.5t91 12.5q44 0 80.5 -6.5t70.5 -17.5l2 7l4 18.5t2 21.5q0 28 -22 45.5t-79 17.5q-39 0 -76.5 -8.5t-66.5 -20.5l-24 120q42 17 92 27.5t107 10.5q109 0 163 -43t54 -122q0 -21 -3.5 -41t-8.5 -40l-79 -296h-147l16 62q-32 -35 -72 -53.5t-88 -18.5z" />
    <glyph glyph-name="atilde" unicode="&#xe3;" horiz-adv-x="588" 
d="M166 628q26 59 65.5 96t87.5 37q26 0 44 -8t35 -21q20 -14 30.5 -20t22.5 -6q23 0 39.5 16.5t30.5 42.5l80 -40q-26 -59 -65.5 -96t-87.5 -37q-26 0 -43.5 8t-35.5 21q-20 14 -30.5 20t-22.5 6q-23 0 -39.5 -16.5t-30.5 -42.5zM228 94q24 0 45.5 8.5t39.5 23.5t31 34.5
t19 41.5l4 14q-20 8 -46 13.5t-54 5.5q-48 0 -78.5 -22.5t-30.5 -61.5q0 -25 19 -41t51 -16zM163 -10q-35 0 -63.5 10.5t-49 30t-32 45.5t-11.5 58q0 46 18 82t49 61t73 37.5t91 12.5q44 0 80.5 -6.5t70.5 -17.5l2 7l4 18.5t2 21.5q0 28 -22 45.5t-79 17.5q-39 0 -76.5 -8.5
t-66.5 -20.5l-24 120q42 17 92 27.5t107 10.5q109 0 163 -43t54 -122q0 -21 -3.5 -41t-8.5 -40l-79 -296h-147l16 62q-32 -35 -72 -53.5t-88 -18.5z" />
    <glyph glyph-name="aring" unicode="&#xe5;" horiz-adv-x="588" 
d="M393 648q15 0 27.5 6.5t21.5 17.5t14 25t5 29q0 21 -12.5 35.5t-35.5 14.5q-15 0 -27.5 -6.5t-21.5 -17.5t-14 -25t-5 -29q0 -21 12.5 -35.5t35.5 -14.5zM391 593q-51 0 -80.5 30t-29.5 74q0 27 10.5 51.5t28.5 42.5t42.5 29t52.5 11q51 0 80.5 -30t29.5 -74
q0 -27 -10.5 -51.5t-28.5 -42.5t-42.5 -29t-52.5 -11zM228 94q24 0 45.5 8.5t39.5 23.5t31 34.5t19 41.5l4 14q-20 8 -46 13.5t-54 5.5q-48 0 -78.5 -22.5t-30.5 -61.5q0 -25 19 -41t51 -16zM163 -10q-35 0 -63.5 10.5t-49 30t-32 45.5t-11.5 58q0 46 18 82t49 61t73 37.5
t91 12.5q44 0 80.5 -6.5t70.5 -17.5l2 7l4 18.5t2 21.5q0 28 -22 45.5t-79 17.5q-39 0 -76.5 -8.5t-66.5 -20.5l-24 120q42 17 92 27.5t107 10.5q109 0 163 -43t54 -122q0 -21 -3.5 -41t-8.5 -40l-79 -296h-147l16 62q-32 -35 -72 -53.5t-88 -18.5z" />
    <glyph glyph-name="ccedilla" unicode="&#xe7;" horiz-adv-x="560" 
d="M188 -173l-113 53l119 124q-70 26 -111 84.5t-41 141.5q0 66 25.5 123.5t68.5 100t100.5 67.5t121.5 25q44 0 79 -9.5t61.5 -25.5t46 -37.5t33.5 -45.5l-116 -82q-20 31 -45.5 50.5t-70.5 19.5q-30 0 -58 -15t-49 -40.5t-34 -59.5t-13 -71q0 -52 30 -82.5t75 -30.5
q35 0 63 13.5t58 39.5l78 -99q-41 -37 -87 -59.5t-113 -23.5z" />
    <glyph glyph-name="eacute" unicode="&#xe9;" horiz-adv-x="607" 
d="M447 772l128 -57l-161 -120h-128zM430 310q5 17 5 35q0 33 -20.5 56t-67.5 23q-52 0 -91.5 -31.5t-58.5 -82.5h233zM184 215q4 -48 33 -76.5t89 -28.5q30 0 58 10t61 33l70 -94q-36 -30 -86.5 -50.5t-119.5 -20.5q-58 0 -104 16.5t-78 47t-49 74.5t-17 100
q0 58 22.5 115.5t64.5 103t100.5 73.5t130.5 28q52 0 93 -16t69 -44t42.5 -66t14.5 -83q0 -29 -7 -60t-20 -62h-367z" />
    <glyph glyph-name="egrave" unicode="&#xe8;" horiz-adv-x="607" 
d="M244 715l134 57l65 -177h-104zM430 310q5 17 5 35q0 33 -20.5 56t-67.5 23q-52 0 -91.5 -31.5t-58.5 -82.5h233zM184 215q4 -48 33 -76.5t89 -28.5q30 0 58 10t61 33l70 -94q-36 -30 -86.5 -50.5t-119.5 -20.5q-58 0 -104 16.5t-78 47t-49 74.5t-17 100q0 58 22.5 115.5
t64.5 103t100.5 73.5t130.5 28q52 0 93 -16t69 -44t42.5 -66t14.5 -83q0 -29 -7 -60t-20 -62h-367z" />
    <glyph glyph-name="ecircumflex" unicode="&#xea;" horiz-adv-x="607" 
d="M348 752h144l81 -157h-110l-61 66l-97 -66h-122zM430 310q5 17 5 35q0 33 -20.5 56t-67.5 23q-52 0 -91.5 -31.5t-58.5 -82.5h233zM184 215q4 -48 33 -76.5t89 -28.5q30 0 58 10t61 33l70 -94q-36 -30 -86.5 -50.5t-119.5 -20.5q-58 0 -104 16.5t-78 47t-49 74.5t-17 100
q0 58 22.5 115.5t64.5 103t100.5 73.5t130.5 28q52 0 93 -16t69 -44t42.5 -66t14.5 -83q0 -29 -7 -60t-20 -62h-367z" />
    <glyph glyph-name="edieresis" unicode="&#xeb;" horiz-adv-x="607" 
d="M239 730h146l-37 -135h-146zM453 730h146l-37 -135h-146zM430 310q5 17 5 35q0 33 -20.5 56t-67.5 23q-52 0 -91.5 -31.5t-58.5 -82.5h233zM184 215q4 -48 33 -76.5t89 -28.5q30 0 58 10t61 33l70 -94q-36 -30 -86.5 -50.5t-119.5 -20.5q-58 0 -104 16.5t-78 47t-49 74.5
t-17 100q0 58 22.5 115.5t64.5 103t100.5 73.5t130.5 28q52 0 93 -16t69 -44t42.5 -66t14.5 -83q0 -29 -7 -60t-20 -62h-367z" />
    <glyph glyph-name="iacute" unicode="&#xed;" horiz-adv-x="302" 
d="M309 772l128 -57l-161 -120h-128zM147 536h152l-144 -536h-152z" />
    <glyph glyph-name="igrave" unicode="&#xec;" horiz-adv-x="302" 
d="M111 715l134 57l65 -177h-104zM147 536h152l-144 -536h-152z" />
    <glyph glyph-name="icircumflex" unicode="&#xee;" horiz-adv-x="302" 
d="M202 752h144l81 -157h-110l-61 66l-97 -66h-122zM147 536h152l-144 -536h-152z" />
    <glyph glyph-name="idieresis" unicode="&#xef;" horiz-adv-x="302" 
d="M93 730h146l-37 -135h-146zM307 730h146l-37 -135h-146zM147 536h152l-144 -536h-152z" />
    <glyph glyph-name="ntilde" unicode="&#xf1;" horiz-adv-x="619" 
d="M182 628q26 59 65.5 96t87.5 37q26 0 44 -8t35 -21q20 -14 30.5 -20t22.5 -6q23 0 39.5 16.5t30.5 42.5l80 -40q-26 -59 -65.5 -96t-87.5 -37q-26 0 -43.5 8t-35.5 21q-20 14 -30.5 20t-22.5 6q-23 0 -39.5 -16.5t-30.5 -42.5zM140 536h152l-15 -56q29 26 65 46t81 20
q72 0 115 -41.5t43 -114.5q0 -23 -5.5 -49.5t-12.5 -52.5l-77 -288h-152l79 294q3 11 5 24.5t2 23.5q0 32 -19.5 49t-54.5 17q-45 0 -74 -29.5t-42 -77.5l-81 -301h-152z" />
    <glyph glyph-name="oacute" unicode="&#xf3;" horiz-adv-x="652" 
d="M448 772l128 -57l-161 -120h-128zM307 118q35 0 63.5 17t48.5 42.5t31 56.5t11 60q0 59 -32 90.5t-84 31.5q-35 0 -63.5 -17t-48.5 -42.5t-31 -57t-11 -59.5q0 -59 32 -90.5t84 -31.5zM300 -12q-60 0 -107.5 18.5t-81 51.5t-51.5 78.5t-18 99.5q0 60 24 116t66 99
t98.5 69t121.5 26q60 0 107.5 -18.5t81 -51.5t51.5 -78.5t18 -99.5q0 -60 -24.5 -116t-66.5 -99t-98.5 -69t-120.5 -26z" />
    <glyph glyph-name="ograve" unicode="&#xf2;" horiz-adv-x="652" 
d="M255 715l134 57l65 -177h-104zM307 118q35 0 63.5 17t48.5 42.5t31 56.5t11 60q0 59 -32 90.5t-84 31.5q-35 0 -63.5 -17t-48.5 -42.5t-31 -57t-11 -59.5q0 -59 32 -90.5t84 -31.5zM300 -12q-60 0 -107.5 18.5t-81 51.5t-51.5 78.5t-18 99.5q0 60 24 116t66 99t98.5 69
t121.5 26q60 0 107.5 -18.5t81 -51.5t51.5 -78.5t18 -99.5q0 -60 -24.5 -116t-66.5 -99t-98.5 -69t-120.5 -26z" />
    <glyph glyph-name="ocircumflex" unicode="&#xf4;" horiz-adv-x="652" 
d="M353 752h144l81 -157h-110l-61 66l-97 -66h-122zM307 118q35 0 63.5 17t48.5 42.5t31 56.5t11 60q0 59 -32 90.5t-84 31.5q-35 0 -63.5 -17t-48.5 -42.5t-31 -57t-11 -59.5q0 -59 32 -90.5t84 -31.5zM300 -12q-60 0 -107.5 18.5t-81 51.5t-51.5 78.5t-18 99.5
q0 60 24 116t66 99t98.5 69t121.5 26q60 0 107.5 -18.5t81 -51.5t51.5 -78.5t18 -99.5q0 -60 -24.5 -116t-66.5 -99t-98.5 -69t-120.5 -26z" />
    <glyph glyph-name="odieresis" unicode="&#xf6;" horiz-adv-x="652" 
d="M243 730h146l-37 -135h-146zM457 730h146l-37 -135h-146zM307 118q35 0 63.5 17t48.5 42.5t31 56.5t11 60q0 59 -32 90.5t-84 31.5q-35 0 -63.5 -17t-48.5 -42.5t-31 -57t-11 -59.5q0 -59 32 -90.5t84 -31.5zM300 -12q-60 0 -107.5 18.5t-81 51.5t-51.5 78.5t-18 99.5
q0 60 24 116t66 99t98.5 69t121.5 26q60 0 107.5 -18.5t81 -51.5t51.5 -78.5t18 -99.5q0 -60 -24.5 -116t-66.5 -99t-98.5 -69t-120.5 -26z" />
    <glyph glyph-name="otilde" unicode="&#xf5;" horiz-adv-x="652" 
d="M175 628q26 59 65.5 96t87.5 37q26 0 44 -8t35 -21q20 -14 30.5 -20t22.5 -6q23 0 39.5 16.5t30.5 42.5l80 -40q-26 -59 -65.5 -96t-87.5 -37q-26 0 -43.5 8t-35.5 21q-20 14 -30.5 20t-22.5 6q-23 0 -39.5 -16.5t-30.5 -42.5zM307 118q35 0 63.5 17t48.5 42.5t31 56.5
t11 60q0 59 -32 90.5t-84 31.5q-35 0 -63.5 -17t-48.5 -42.5t-31 -57t-11 -59.5q0 -59 32 -90.5t84 -31.5zM300 -12q-60 0 -107.5 18.5t-81 51.5t-51.5 78.5t-18 99.5q0 60 24 116t66 99t98.5 69t121.5 26q60 0 107.5 -18.5t81 -51.5t51.5 -78.5t18 -99.5q0 -60 -24.5 -116
t-66.5 -99t-98.5 -69t-120.5 -26z" />
    <glyph glyph-name="uacute" unicode="&#xfa;" horiz-adv-x="622" 
d="M460 772l128 -57l-161 -120h-128zM199 -10q-72 0 -115 41.5t-43 114.5q0 23 5.5 49.5t12.5 52.5l77 288h152l-79 -294q-3 -11 -5 -24.5t-2 -23.5q0 -32 19.5 -49t54.5 -17q45 0 74 29.5t42 77.5l81 301h152l-143 -536h-152l15 56q-29 -26 -65 -46t-81 -20z" />
    <glyph glyph-name="ugrave" unicode="&#xf9;" horiz-adv-x="622" 
d="M273 715l134 57l65 -177h-104zM199 -10q-72 0 -115 41.5t-43 114.5q0 23 5.5 49.5t12.5 52.5l77 288h152l-79 -294q-3 -11 -5 -24.5t-2 -23.5q0 -32 19.5 -49t54.5 -17q45 0 74 29.5t42 77.5l81 301h152l-143 -536h-152l15 56q-29 -26 -65 -46t-81 -20z" />
    <glyph glyph-name="ucircumflex" unicode="&#xfb;" horiz-adv-x="622" 
d="M360 752h144l81 -157h-110l-61 66l-97 -66h-122zM199 -10q-72 0 -115 41.5t-43 114.5q0 23 5.5 49.5t12.5 52.5l77 288h152l-79 -294q-3 -11 -5 -24.5t-2 -23.5q0 -32 19.5 -49t54.5 -17q45 0 74 29.5t42 77.5l81 301h152l-143 -536h-152l15 56q-29 -26 -65 -46t-81 -20z
" />
    <glyph glyph-name="udieresis" unicode="&#xfc;" horiz-adv-x="622" 
d="M251 730h146l-37 -135h-146zM465 730h146l-37 -135h-146zM199 -10q-72 0 -115 41.5t-43 114.5q0 23 5.5 49.5t12.5 52.5l77 288h152l-79 -294q-3 -11 -5 -24.5t-2 -23.5q0 -32 19.5 -49t54.5 -17q45 0 74 29.5t42 77.5l81 301h152l-143 -536h-152l15 56q-29 -26 -65 -46
t-81 -20z" />
    <glyph glyph-name="dagger" unicode="&#x2020;" horiz-adv-x="412" 
d="M238 508l-123 -10l23 83l116 -10l22 129h92l-48 -129l122 10l-23 -83l-117 10l-62 -270h-84z" />
    <glyph glyph-name="degree" unicode="&#xb0;" horiz-adv-x="445" 
d="M252 441q22 0 40.5 10t31.5 26t20 35.5t7 39.5q0 35 -20.5 57t-54.5 22q-22 0 -40.5 -10t-31.5 -26t-20 -36t-7 -39q0 -35 20.5 -57t54.5 -22zM249 363q-37 0 -67 11.5t-51 32t-32 49t-11 61.5q0 37 15 72t40.5 61.5t60.5 42.5t75 16q37 0 67 -11.5t51 -32t32 -49
t11 -61.5q0 -38 -15 -72.5t-40.5 -61t-60.5 -42.5t-75 -16z" />
    <glyph glyph-name="cent" unicode="&#xa2;" horiz-adv-x="586" 
d="M363 503q-33 -3 -60.5 -19.5t-47 -40.5t-30 -54t-10.5 -61q0 -32 11.5 -55.5t30.5 -39.5zM202 104q-64 30 -100 87t-36 135q0 66 24.5 122t67 97.5t100.5 65t125 23.5h13t13 -1l28 73h104l-37 -94q41 -17 68.5 -43t44.5 -56l-115 -80q-22 35 -52 52l-109 -279
q38 1 67 13.5t58 35.5l80 -103q-35 -32 -85 -54t-119 -22q-24 0 -46 3l-33 -85h-104z" />
    <glyph glyph-name="sterling" unicode="&#xa3;" horiz-adv-x="644" 
d="M14 101l83 25l38 141h-76l34 127h76l25 94q26 97 80 151q71 71 187 71q82 0 133.5 -34t80.5 -86l-123 -84q-18 29 -41 45.5t-61 16.5q-24 0 -39.5 -7.5t-28.5 -20.5q-14 -14 -24 -34t-17 -44l-19 -68h231l-34 -127h-230l-36 -134h306l-36 -133h-536z" />
    <glyph glyph-name="section" unicode="&#xa7;" horiz-adv-x="632" 
d="M399 288q26 0 45.5 14t19.5 35q0 20 -21.5 32t-64.5 25q-37 11 -58.5 16t-41.5 5q-26 0 -45.5 -14t-19.5 -35q0 -20 21.5 -32t64.5 -25q37 -11 58.5 -16t41.5 -5zM283 -9q-77 0 -138 24.5t-97 68.5l95 84q27 -27 65.5 -45t82.5 -18q32 0 51 10.5t19 27.5t-22 27.5
t-80 26.5q-38 10 -72.5 22t-60 28t-40.5 38.5t-15 54.5q0 49 33.5 83.5t102.5 48.5q-16 15 -26 35t-10 48q0 34 17 63t46.5 50t70.5 32.5t89 11.5q77 0 138 -24.5t97 -68.5l-95 -84q-27 27 -65.5 45t-82.5 18q-32 0 -51 -10.5t-19 -27.5t22 -27.5t80 -26.5
q38 -11 72.5 -22.5t60 -27.5t40.5 -38.5t15 -54.5q0 -49 -33.5 -83.5t-102.5 -48.5q16 -15 26 -35t10 -48q0 -34 -17 -63t-46.5 -50t-70.5 -32.5t-89 -11.5z" />
    <glyph glyph-name="bullet" unicode="&#x2022;" 
d="M246 200q-55 0 -85.5 31.5t-30.5 84.5q0 34 12 68t34.5 61t53 44t68.5 17q55 0 85.5 -31.5t30.5 -84.5q0 -34 -12 -68t-34.5 -61t-53.5 -44t-68 -17z" />
    <glyph glyph-name="paragraph" unicode="&#xb6;" horiz-adv-x="599" 
d="M346 212q-122 2 -190.5 54t-68.5 158q0 58 21.5 108.5t65 87.5t110 58.5t156.5 21.5h191l-188 -700h-153z" />
    <glyph glyph-name="germandbls" unicode="&#xdf;" horiz-adv-x="632" 
d="M259 116q46 -2 78 6.5t51 23.5t27.5 34.5t8.5 41.5q0 31 -25 54t-90 30l27 100q73 17 105.5 50t32.5 77q0 38 -23.5 57t-55.5 19q-43 0 -71.5 -29.5t-43.5 -84.5l-132 -495h-151l135 503q15 56 36 95.5t51 69.5q32 32 78.5 50.5t102.5 18.5q52 0 92 -14.5t68 -40
t42.5 -60t14.5 -74.5q0 -73 -41.5 -120.5t-112.5 -70.5q42 -18 73 -51t31 -88q0 -48 -20 -89.5t-61.5 -71.5t-105.5 -46t-153 -13z" />
    <glyph glyph-name="registered" unicode="&#xae;" horiz-adv-x="830" 
d="M457 365q32 0 49 15.5t17 40.5q0 29 -18 43t-50 14h-83v-113h85zM287 553h171q69 0 110 -33.5t41 -93.5q0 -48 -23 -77t-60 -43l94 -138h-99l-82 124h-67v-124h-85v385zM435 28q69 0 127.5 25.5t101.5 69.5t67.5 102.5t24.5 125.5t-24.5 125.5t-67 102t-101 68.5
t-126.5 25q-69 0 -127.5 -25.5t-101.5 -69.5t-67.5 -102.5t-24.5 -125.5t24 -125.5t67 -102t101.5 -68.5t126.5 -25zM435 -12q-76 0 -142 28.5t-114.5 77.5t-76.5 115t-28 140t28 140t77 115.5t115.5 78.5t142.5 29t142 -28.5t114.5 -77.5t76.5 -115t28 -140t-28 -140
t-77 -115.5t-115.5 -78.5t-142.5 -29z" />
    <glyph glyph-name="copyright" unicode="&#xa9;" horiz-adv-x="830" 
d="M440 156q-42 0 -78.5 15.5t-62.5 42t-41 62.5t-15 78q0 41 14.5 77.5t41 63.5t63.5 43t81 16q55 0 90 -16.5t62 -42.5l-55 -64q-22 20 -45.5 31.5t-51.5 11.5q-24 0 -44 -9.5t-35 -25.5t-23 -37.5t-8 -46.5q0 -24 8 -46t22.5 -38t35 -25.5t44.5 -9.5q32 0 54 12.5
t45 32.5l56 -56q-30 -32 -66 -50.5t-92 -18.5zM435 28q69 0 127.5 25.5t101.5 69.5t67.5 102.5t24.5 125.5t-24.5 125.5t-67 102t-101 68.5t-126.5 25q-69 0 -127.5 -25.5t-101.5 -69.5t-67.5 -102.5t-24.5 -125.5t24 -125.5t67 -102t101.5 -68.5t126.5 -25zM435 -12
q-76 0 -142 28.5t-114.5 77.5t-76.5 115t-28 140t28 140t77 115.5t115.5 78.5t142.5 29t142 -28.5t114.5 -77.5t76.5 -115t28 -140t-28 -140t-77 -115.5t-115.5 -78.5t-142.5 -29z" />
    <glyph glyph-name="trademark" unicode="&#x2122;" horiz-adv-x="700" 
d="M204 638h-92l17 62h254l-17 -62h-92l-66 -246h-70zM448 700h70l46 -130l116 130h76l-83 -308h-66l56 208l-121 -135h-6l-49 135l-56 -208h-66z" />
    <glyph glyph-name="acute" unicode="&#xb4;" 
d="M369 772l128 -57l-161 -120h-128z" />
    <glyph glyph-name="dieresis" unicode="&#xa8;" 
d="M194 730h146l-37 -135h-146zM408 730h146l-37 -135h-146z" />
    <glyph glyph-name="AE" unicode="&#xc6;" horiz-adv-x="1058" 
d="M504 293l73 274h-19l-218 -274h164zM504 700h612l-37 -137h-350l-38 -143h305l-37 -135h-305l-40 -148h356l-37 -137h-508l42 157h-236l-125 -157h-167z" />
    <glyph glyph-name="Oslash" unicode="&#xd8;" horiz-adv-x="832" 
d="M404 123q57 0 103 24.5t78.5 63.5t50.5 87t18 95q0 37 -11 72l-343 -316q43 -26 104 -26zM583 545q-44 32 -112 32q-57 0 -103 -25t-78.5 -64t-50.5 -87t-18 -94q0 -45 15 -81zM387 -12q-61 0 -112.5 17t-91.5 47l-62 -57h-147l142 130q-49 75 -49 173q0 78 30.5 152.5
t86 132.5t133 93.5t171.5 35.5q64 0 117 -18.5t94 -51.5l68 63h147l-150 -138q44 -71 44 -165q0 -78 -30.5 -152.5t-86 -132.5t-133 -93.5t-171.5 -35.5z" />
    <glyph glyph-name="plusminus" unicode="&#xb1;" horiz-adv-x="621" 
d="M256 -12q-56 0 -99 11.5t-75.5 30.5t-56 43t-38.5 49l114 86q31 -38 69.5 -60t96.5 -22q31 0 55 8t40 21t24 29t8 33q0 35 -26.5 54t-86.5 19h-76l34 127h81q27 0 51 5.5t42 17t28.5 28t10.5 38.5q0 31 -26.5 49.5t-65.5 18.5q-47 0 -81.5 -19t-72.5 -53l-85 97
q49 51 110 82t147 31q55 0 98 -14.5t73 -39.5t45.5 -58t15.5 -70q0 -65 -39 -110.5t-117 -68.5q18 -8 35.5 -20.5t30.5 -30t21 -39.5t8 -48q0 -48 -21 -89t-59 -71t-92.5 -47.5t-120.5 -17.5z" />
    <glyph glyph-name="yen" unicode="&#xa5;" horiz-adv-x="711" 
d="M234 92h-184l29 108h184l16 62h-184l29 108h143l-125 330h166l84 -259l225 259h183l-305 -330h145l-29 -108h-184l-16 -62h184l-29 -108h-184l-25 -92h-148z" />
    <glyph glyph-name="mu" unicode="&#xb5;" horiz-adv-x="832" 
d="M405 130q24 0 46 5t42 13l-90 122l127 85l71 -114q23 35 35 74t12 77q0 39 -11.5 71.5t-34 56.5t-56 37t-76.5 13q-55 0 -100 -24t-76.5 -61.5t-49 -84.5t-17.5 -92q0 -39 11.5 -71.5t34 -56.5t56 -37t76.5 -13zM572 30q-41 -20 -87.5 -31t-97.5 -11q-72 0 -131 23.5
t-101 65.5t-65 98.5t-23 122.5q0 78 30.5 152.5t86 132.5t133 93.5t171.5 35.5q72 0 131 -23.5t101 -65.5t65 -98.5t23 -122.5q0 -80 -31 -154.5t-88 -133.5l56 -74l-127 -84z" />
    <glyph glyph-name="mu" unicode="&#x3bc;" horiz-adv-x="832" 
d="M405 130q24 0 46 5t42 13l-90 122l127 85l71 -114q23 35 35 74t12 77q0 39 -11.5 71.5t-34 56.5t-56 37t-76.5 13q-55 0 -100 -24t-76.5 -61.5t-49 -84.5t-17.5 -92q0 -39 11.5 -71.5t34 -56.5t56 -37t76.5 -13zM572 30q-41 -20 -87.5 -31t-97.5 -11q-72 0 -131 23.5
t-101 65.5t-65 98.5t-23 122.5q0 78 30.5 152.5t86 132.5t133 93.5t171.5 35.5q72 0 131 -23.5t101 -65.5t65 -98.5t23 -122.5q0 -80 -31 -154.5t-88 -133.5l56 -74l-127 -84z" />
    <glyph glyph-name="pi" unicode="&#x3c0;" horiz-adv-x="830" 
d="M455 355q32 0 49.5 16.5t17.5 42.5q0 29 -18.5 44t-50.5 15h-64v-118h66zM303 549h158q69 0 108.5 -37t39.5 -97q0 -33 -12.5 -58.5t-33.5 -42.5t-49.5 -25.5t-60.5 -8.5h-64v-116h-86v385zM435 28q69 0 127.5 25.5t101.5 69.5t67.5 102.5t24.5 125.5t-24.5 125.5
t-67 102t-101 68.5t-126.5 25q-69 0 -127.5 -25.5t-101.5 -69.5t-67.5 -102.5t-24.5 -125.5t24 -125.5t67 -102t101.5 -68.5t126.5 -25zM435 -12q-76 0 -142 28.5t-114.5 77.5t-76.5 115t-28 140t28 140t77 115.5t115.5 78.5t142.5 29t142 -28.5t114.5 -77.5t76.5 -115
t28 -140t-28 -140t-77 -115.5t-115.5 -78.5t-142.5 -29z" />
    <glyph glyph-name="ordfeminine" unicode="&#xaa;" horiz-adv-x="390" 
d="M224 457q26 0 47 17.5t27 42.5l2 8q-11 4 -25 7t-30 3q-27 0 -43.5 -12.5t-16.5 -33.5q0 -14 10.5 -23t28.5 -9zM69 343h266l-18 -66h-266zM188 400q-38 0 -62 22t-24 57q0 26 10 46t27 33.5t40 20.5t50 7q24 0 45 -4t39 -10l2 7q3 9 3 17q0 17 -13 27t-44 10
q-21 0 -41.5 -4.5t-36.5 -11.5l-14 66q23 10 50.5 15.5t59.5 5.5q60 0 89.5 -23.5t29.5 -67.5q0 -23 -6 -44l-44 -163h-81l9 34q-18 -19 -40 -29.5t-48 -10.5z" />
    <glyph glyph-name="ordmasculine" unicode="&#xba;" horiz-adv-x="402" 
d="M249 470q19 0 35 8.5t27 22.5t17 31t6 34q0 30 -17 49t-46 19q-20 0 -35.5 -8.5t-26.5 -22.5t-17 -31t-6 -34q0 -30 17 -49t46 -19zM69 343h278l-18 -66h-278zM246 399q-66 0 -104 38t-38 98q0 33 13 64t36 54.5t54 37.5t67 14q66 0 104 -38t38 -98q0 -33 -13 -64
t-36 -54.5t-54 -37.5t-67 -14z" />
    <glyph glyph-name="Omega" unicode="&#x3a9;" horiz-adv-x="822" 
d="M133 406h-64l35 130h63l7 29q23 90 77.5 131t139.5 41q32 0 58.5 -4t45.5 -11l-33 -126q-15 6 -32.5 9.5t-33.5 3.5q-59 0 -75 -58l-4 -15h129l-35 -130h-126l-110 -406h-152zM544 406h-64l35 130h63l7 29q22 90 77 131t140 41q32 0 58.5 -4t45.5 -11l-33 -126
q-15 6 -32.5 9.5t-33.5 3.5q-60 0 -75 -58l-4 -15h129l-35 -130h-126l-110 -406h-152z" />
    <glyph glyph-name="Omega" unicode="&#x2126;" horiz-adv-x="822" 
d="M133 406h-64l35 130h63l7 29q23 90 77.5 131t139.5 41q32 0 58.5 -4t45.5 -11l-33 -126q-15 6 -32.5 9.5t-33.5 3.5q-59 0 -75 -58l-4 -15h129l-35 -130h-126l-110 -406h-152zM544 406h-64l35 130h63l7 29q22 90 77 131t140 41q32 0 58.5 -4t45.5 -11l-33 -126
q-15 6 -32.5 9.5t-33.5 3.5q-60 0 -75 -58l-4 -15h129l-35 -130h-126l-110 -406h-152z" />
    <glyph glyph-name="ae" unicode="&#xe6;" horiz-adv-x="940" 
d="M386 208q-32 14 -60.5 20.5t-58.5 6.5q-48 0 -78.5 -22.5t-30.5 -61.5q0 -25 20 -41t60 -16q35 0 78 17.5t76 50.5q-4 21 -6 46zM763 310q5 17 5 35q0 33 -20.5 56t-67.5 23q-52 0 -91.5 -31.5t-58.5 -82.5h233zM418 91q-47 -48 -107 -74.5t-133 -26.5q-83 0 -127 39.5
t-44 104.5q0 46 18 82t49 61t73 37.5t91 12.5q44 0 80.5 -6.5t70.5 -17.5l2 7l4 18.5t2 21.5q0 28 -22 45.5t-79 17.5q-39 0 -76.5 -8.5t-66.5 -20.5l-24 120q42 17 92 27.5t107 10.5q66 0 110 -20.5t66 -58.5q37 37 86 60t107 23q50 0 90 -16t67.5 -44t42 -66t14.5 -83
q0 -29 -7 -60t-20 -62h-367q4 -48 33 -76.5t89 -28.5q30 0 58 10t61 33l70 -94q-34 -31 -87 -51t-119 -20q-69 0 -121.5 25.5t-82.5 77.5z" />
    <glyph glyph-name="oslash" unicode="&#xf8;" horiz-adv-x="652" 
d="M303 113q38 0 68 17.5t51 44t32.5 58.5t11.5 61q0 11 -1 22t-3 20l-226 -206q28 -17 67 -17zM411 407q-25 14 -62 14q-38 0 -68 -17.5t-51 -44t-32.5 -58.5t-11.5 -61q0 -19 3 -35zM300 -12q-52 0 -94.5 14t-74.5 39l-51 -46h-133l126 114q-31 57 -31 127q0 60 24 116
t66 99t98.5 69t121.5 26q50 0 91 -13t73 -37l49 45h133l-122 -111q34 -57 34 -132q0 -60 -24.5 -116t-66.5 -99t-98.5 -69t-120.5 -26z" />
    <glyph glyph-name="questiondown" unicode="&#xbf;" horiz-adv-x="544" 
d="M247 -9q-53 0 -94.5 15t-70 40.5t-43.5 58t-15 68.5q0 88 64.5 143.5t191.5 75.5l29 70h102l-20 -162l-6 -5q-97 -7 -148.5 -32.5t-51.5 -69.5q0 -29 20 -45.5t63 -16.5q36 0 73.5 15.5t69.5 43.5l80 -101q-48 -49 -112.5 -73.5t-131.5 -24.5zM340 700h162l-43 -160h-162
z" />
    <glyph glyph-name="exclamdown" unicode="&#xa1;" horiz-adv-x="325" 
d="M7 20l165 442h84l-71 -442l-6 -20h-178zM197 700h162l-43 -160h-162z" />
    <glyph glyph-name="radical" unicode="&#x221a;" horiz-adv-x="1124" 
d="M1021 730h152l-196 -730h-152zM133 406h-64l35 130h63l7 29q23 90 77.5 131t139.5 41q32 0 58.5 -4t45.5 -11l-33 -126q-15 6 -32.5 9.5t-33.5 3.5q-59 0 -75 -58l-4 -15h129l-35 -130h-126l-110 -406h-152zM544 406h-64l35 130h63l7 29q22 90 77 131t140 41
q32 0 58.5 -4t45.5 -11l-33 -126q-15 6 -32.5 9.5t-33.5 3.5q-60 0 -75 -58l-4 -15h129l-35 -130h-126l-110 -406h-152z" />
    <glyph glyph-name="florin" unicode="&#x192;" horiz-adv-x="543" 
d="M61 -9q-30 0 -51.5 2.5t-38.5 6.5l33 122q12 -3 22.5 -4.5t24.5 -1.5q20 0 39.5 14t34.5 48l74 166h-72l34 125h94l38 86q67 154 204 154q45 0 72.5 -5.5t49.5 -14.5l-33 -124q-17 8 -34.5 12t-43.5 4q-30 0 -50.5 -18t-35.5 -52l-19 -42h120l-34 -125h-142l-94 -212
q-35 -78 -84 -109.5t-108 -31.5z" />
    <glyph glyph-name="approxequal" unicode="&#x2248;" horiz-adv-x="1124" 
d="M969 536h152l-144 -536h-152zM133 406h-64l35 130h63l7 29q23 90 77.5 131t139.5 41q32 0 58.5 -4t45.5 -11l-33 -126q-15 6 -32.5 9.5t-33.5 3.5q-59 0 -75 -58l-4 -15h129l-35 -130h-126l-110 -406h-152zM544 406h-64l35 130h63l7 29q22 90 77 131t140 41q32 0 58.5 -4
t45.5 -11l-33 -126q-15 6 -32.5 9.5t-33.5 3.5q-60 0 -75 -58l-4 -15h129l-35 -130h-126l-110 -406h-152zM1018 730h160l-37 -135h-160z" />
    <glyph glyph-name="guillemotleft" unicode="&#xab;" horiz-adv-x="643" 
d="M46 255l2 8l237 233l87 -80l-176 -171l80 -160l-122 -54zM316 255l2 8l237 233l87 -80l-176 -171l80 -160l-122 -54z" />
    <glyph glyph-name="guillemotright" unicode="&#xbb;" horiz-adv-x="643" 
d="M-1 111l176 171l-80 160l122 54l108 -224l-2 -8l-237 -233zM269 111l176 171l-80 160l122 54l108 -224l-2 -8l-237 -233z" />
    <glyph glyph-name="ellipsis" unicode="&#x2026;" horiz-adv-x="872" 
d="M49 156h158l-42 -156h-158zM328 156h158l-42 -156h-158zM607 156h158l-42 -156h-158z" />
    <glyph glyph-name="nonbreakingspace" unicode="&#xa0;" horiz-adv-x="300" 
 />
    <glyph glyph-name="Agrave" unicode="&#xc0;" horiz-adv-x="765" 
d="M367 875l134 57l65 -177h-104zM493 293l-32 231l-154 -231h186zM432 705h148l111 -705h-158l-22 157h-296l-106 -157h-166z" />
    <glyph glyph-name="Atilde" unicode="&#xc3;" horiz-adv-x="765" 
d="M294 788q26 59 65.5 96t87.5 37q26 0 44 -8t35 -21q20 -14 30.5 -20t22.5 -6q23 0 39.5 16.5t30.5 42.5l80 -40q-26 -59 -65.5 -96t-87.5 -37q-26 0 -43.5 8t-35.5 21q-20 14 -30.5 20t-22.5 6q-23 0 -39.5 -16.5t-30.5 -42.5zM493 293l-32 231l-154 -231h186zM432 705
h148l111 -705h-158l-22 157h-296l-106 -157h-166z" />
    <glyph glyph-name="Otilde" unicode="&#xd5;" horiz-adv-x="832" 
d="M318 788q26 59 65.5 96t87.5 37q26 0 44 -8t35 -21q20 -14 30.5 -20t22.5 -6q23 0 39.5 16.5t30.5 42.5l80 -40q-26 -59 -65.5 -96t-87.5 -37q-26 0 -43.5 8t-35.5 21q-20 14 -30.5 20t-22.5 6q-23 0 -39.5 -16.5t-30.5 -42.5zM405 130q55 0 100 24t76.5 61.5t49 84.5
t17.5 92q0 39 -11.5 71.5t-34 56.5t-56 37t-76.5 13q-55 0 -100 -24t-76.5 -61.5t-49 -84.5t-17.5 -92q0 -39 11.5 -71.5t34 -56.5t56 -37t76.5 -13zM387 -12q-72 0 -131 23.5t-101 65.5t-65 98.5t-23 122.5q0 78 30.5 152.5t86 132.5t133 93.5t171.5 35.5q72 0 131 -23.5
t101 -65.5t65 -98.5t23 -122.5q0 -78 -30.5 -152.5t-86 -132.5t-133 -93.5t-171.5 -35.5z" />
    <glyph glyph-name="OE" unicode="&#x152;" horiz-adv-x="1071" 
d="M474 139l114 422h-57q-70 0 -131 -21.5t-103 -63.5q-34 -34 -52 -79t-18 -96q0 -70 41 -111q23 -23 62 -37t99 -14h45zM417 0q-102 0 -168 25t-111 70q-34 34 -52.5 85t-18.5 115q0 79 29 149t86 127q63 63 154 96t213 33h580l-37 -137h-350l-38 -143h305l-37 -135h-305
l-40 -148h356l-37 -137h-529z" />
    <glyph glyph-name="oe" unicode="&#x153;" horiz-adv-x="1028" 
d="M306 118q36 0 64.5 15.5t48.5 40.5t31 56.5t11 62.5q0 55 -31.5 89t-83.5 34q-36 0 -64.5 -15.5t-48.5 -40.5t-31 -56.5t-11 -62.5q0 -55 31.5 -89t83.5 -34zM851 310q5 17 5 35q0 33 -20.5 56t-67.5 23q-52 0 -91.5 -31.5t-58.5 -82.5h233zM605 215q4 -48 33 -76.5
t89 -28.5q30 0 58 10t61 33l70 -94q-34 -31 -87 -51t-119 -20q-72 0 -122 25t-77 73q-38 -45 -91 -71.5t-119 -26.5q-60 0 -107.5 18.5t-81.5 51.5t-52 78.5t-18 99.5q0 61 24 117t65.5 99t98 68.5t121.5 25.5q76 0 128 -28.5t79 -77.5q38 48 94 77t128 29q52 0 93 -16
t69 -44t42.5 -66t14.5 -83q0 -29 -7 -60t-20 -62h-367z" />
    <glyph glyph-name="endash" unicode="&#x2013;" horiz-adv-x="531" 
d="M82 381h428l-38 -142h-428z" />
    <glyph glyph-name="emdash" unicode="&#x2014;" horiz-adv-x="901" 
d="M82 381h798l-38 -142h-798z" />
    <glyph glyph-name="quotedblleft" unicode="&#x201c;" horiz-adv-x="573" 
d="M130 518q26 99 82 142t145 45l10 -63q-62 -5 -92 -30.5t-38 -68.5h62l-43 -160h-162zM384 518q26 99 82 142t145 45l10 -63q-62 -5 -92 -30.5t-38 -68.5h62l-43 -160h-162z" />
    <glyph glyph-name="quotedblright" unicode="&#x201d;" horiz-adv-x="573" 
d="M78 441q62 5 92 30.5t38 68.5h-62l43 160h162l-36 -135q-26 -99 -82 -142t-145 -45zM332 441q62 5 92 30.5t38 68.5h-62l43 160h162l-36 -135q-26 -99 -82 -142t-145 -45z" />
    <glyph glyph-name="quoteleft" unicode="&#x2018;" horiz-adv-x="319" 
d="M129 519q26 99 82 142t145 45l10 -63q-62 -5 -92 -30.5t-38 -68.5h62l-43 -160h-162z" />
    <glyph glyph-name="quoteright" unicode="&#x2019;" horiz-adv-x="319" 
d="M77 441q62 5 92 30.5t38 68.5h-62l43 160h162l-36 -135q-26 -99 -82 -142t-145 -45z" />
    <glyph glyph-name="ydieresis" unicode="&#xff;" horiz-adv-x="592" 
d="M226 730h146l-37 -135h-146zM440 730h146l-37 -135h-146zM85 -163q-42 0 -71 10t-54 27l81 110q12 -9 28 -15t31 -6q17 0 30 6.5t29 26.5l-66 540h155l25 -364l201 364h164l-332 -549q-26 -41 -51 -69.5t-51.5 -46.5t-55.5 -26t-63 -8z" />
    <glyph glyph-name="Ydieresis" unicode="&#x178;" horiz-adv-x="650" 
d="M294 890h146l-37 -135h-146zM508 890h146l-37 -135h-146zM243 276l-145 424h171l82 -290l240 290h186l-383 -438l-71 -262h-154z" />
    <glyph glyph-name="fraction" unicode="&#x2044;" horiz-adv-x="520" 
d="M557 758h134l-695 -856h-134z" />
    <glyph glyph-name="fraction" unicode="&#x2215;" horiz-adv-x="520" 
d="M557 758h134l-695 -856h-134z" />
    <glyph glyph-name="currency" unicode="&#xa4;" horiz-adv-x="720" 
d="M396 -12q-57 0 -104 16t-82 46t-57 72t-29 95h-100l27 101h75q2 18 5 34.5t8 33.5h-70l27 101h73q22 49 54 90.5t73.5 71.5t91.5 46.5t108 16.5q107 0 167 -44.5t86 -118.5l-131 -65q-21 43 -49 66t-81 23q-48 0 -84.5 -22t-62.5 -64h193l-27 -101h-204q-6 -17 -10 -34
t-7 -34h203l-27 -101h-177q10 -45 41 -67.5t73 -22.5q44 0 75.5 17t65.5 53l104 -90q-45 -54 -106 -86.5t-142 -32.5z" />
    <glyph glyph-name="guilsinglleft" unicode="&#x2039;" horiz-adv-x="373" 
d="M46 255l2 8l237 233l87 -80l-176 -171l80 -160l-122 -54z" />
    <glyph glyph-name="guilsinglright" unicode="&#x203a;" horiz-adv-x="373" 
d="M-1 111l176 171l-80 160l122 54l108 -224l-2 -8l-237 -233z" />
    <glyph glyph-name="daggerdbl" unicode="&#x2021;" horiz-adv-x="412" 
d="M136 129l-122 -10l22 83l116 -10l34 158l51 158l-122 -10l23 83l116 -10l22 129h92l-48 -129l122 10l-23 -83l-116 10l-33 -158l-52 -158l122 10l-22 -83l-116 10l-22 -129h-92z" />
    <glyph glyph-name="periodcentered" unicode="&#xb7;" horiz-adv-x="319" 
d="M107 390h162l-43 -160h-162z" />
    <glyph glyph-name="periodcentered" unicode="&#x2219;" horiz-adv-x="319" 
d="M107 390h162l-43 -160h-162z" />
    <glyph glyph-name="quotesinglbase" unicode="&#x201a;" horiz-adv-x="319" 
d="M-61 -99q62 5 92 30.5t38 68.5h-62l43 160h162l-36 -135q-26 -99 -82 -142t-145 -45z" />
    <glyph glyph-name="quotedblbase" unicode="&#x201e;" horiz-adv-x="573" 
d="M-61 -99q62 5 92 30.5t38 68.5h-62l43 160h162l-36 -135q-26 -99 -82 -142t-145 -45zM193 -99q62 5 92 30.5t38 68.5h-62l43 160h162l-36 -135q-26 -99 -82 -142t-145 -45z" />
    <glyph glyph-name="perthousand" unicode="&#x2030;" horiz-adv-x="1288" 
d="M651 79q21 0 37.5 11t28 28t18 37.5t6.5 40.5q0 33 -16.5 52t-45.5 19q-21 0 -37.5 -11t-28 -28t-18 -37.5t-6.5 -40.5q0 -33 16.5 -52t45.5 -19zM1059 79q21 0 37.5 11t28 28t18 37.5t6.5 40.5q0 33 -16.5 52t-45.5 19q-21 0 -37.5 -11t-28 -28t-18 -37.5t-6.5 -40.5
q0 -33 16.5 -52t45.5 -19zM244 433q21 0 37.5 11t28 28t18 37.5t6.5 40.5q0 33 -16.5 52t-45.5 19q-21 0 -37.5 -11t-28 -28t-18 -37.5t-6.5 -40.5q0 -33 16.5 -52t45.5 -19zM645 -8q-35 0 -63.5 11.5t-48.5 31.5t-31 48.5t-11 62.5q0 39 14 76t39.5 66.5t61 47.5t79.5 18
q35 0 63.5 -11.5t48.5 -31.5t31 -48.5t11 -62.5q0 -39 -14 -76t-39.5 -66.5t-61.5 -47.5t-79 -18zM1053 -8q-35 0 -63.5 11.5t-48.5 31.5t-31 48.5t-11 62.5q0 39 14 76t39.5 66.5t61 47.5t79.5 18q35 0 63.5 -11.5t48.5 -31.5t31 -48.5t11 -62.5q0 -39 -14 -76t-39.5 -66.5
t-61.5 -47.5t-79 -18zM733 700h130l-673 -700h-130zM238 346q-35 0 -63.5 11.5t-48.5 31.5t-31 48.5t-11 62.5q0 39 14 76t39.5 66.5t61 47.5t79.5 18q35 0 63.5 -11.5t48.5 -31.5t31 -48.5t11 -62.5q0 -39 -14 -76t-39.5 -66.5t-61.5 -47.5t-79 -18z" />
    <glyph glyph-name="Acircumflex" unicode="&#xc2;" horiz-adv-x="765" 
d="M463 912h144l81 -157h-110l-61 66l-97 -66h-122zM493 293l-32 231l-154 -231h186zM432 705h148l111 -705h-158l-22 157h-296l-106 -157h-166z" />
    <glyph glyph-name="Ecircumflex" unicode="&#xca;" horiz-adv-x="665" 
d="M444 912h144l81 -157h-110l-61 66l-97 -66h-122zM200 700h523l-37 -137h-370l-38 -143h325l-37 -135h-325l-40 -148h376l-37 -137h-528z" />
    <glyph glyph-name="Aacute" unicode="&#xc1;" horiz-adv-x="765" 
d="M587 932l128 -57l-161 -120h-128zM493 293l-32 231l-154 -231h186zM432 705h148l111 -705h-158l-22 157h-296l-106 -157h-166z" />
    <glyph glyph-name="Edieresis" unicode="&#xcb;" horiz-adv-x="665" 
d="M330 890h146l-37 -135h-146zM544 890h146l-37 -135h-146zM200 700h523l-37 -137h-370l-38 -143h325l-37 -135h-325l-40 -148h376l-37 -137h-528z" />
    <glyph glyph-name="Egrave" unicode="&#xc8;" horiz-adv-x="665" 
d="M333 875l134 57l65 -177h-104zM200 700h523l-37 -137h-370l-38 -143h325l-37 -135h-325l-40 -148h376l-37 -137h-528z" />
    <glyph glyph-name="Iacute" unicode="&#xcd;" horiz-adv-x="336" 
d="M371 932l128 -57l-161 -120h-128zM207 700h154l-188 -700h-154z" />
    <glyph glyph-name="Icircumflex" unicode="&#xce;" horiz-adv-x="336" 
d="M257 912h144l81 -157h-110l-61 66l-97 -66h-122zM207 700h154l-188 -700h-154z" />
    <glyph glyph-name="Idieresis" unicode="&#xcf;" horiz-adv-x="336" 
d="M154 890h146l-37 -135h-146zM368 890h146l-37 -135h-146zM207 700h154l-188 -700h-154z" />
    <glyph glyph-name="Igrave" unicode="&#xcc;" horiz-adv-x="336" 
d="M161 875l134 57l65 -177h-104zM207 700h154l-188 -700h-154z" />
    <glyph glyph-name="Oacute" unicode="&#xd3;" horiz-adv-x="832" 
d="M575 932l128 -57l-161 -120h-128zM405 130q55 0 100 24t76.5 61.5t49 84.5t17.5 92q0 39 -11.5 71.5t-34 56.5t-56 37t-76.5 13q-55 0 -100 -24t-76.5 -61.5t-49 -84.5t-17.5 -92q0 -39 11.5 -71.5t34 -56.5t56 -37t76.5 -13zM387 -12q-72 0 -131 23.5t-101 65.5
t-65 98.5t-23 122.5q0 78 30.5 152.5t86 132.5t133 93.5t171.5 35.5q72 0 131 -23.5t101 -65.5t65 -98.5t23 -122.5q0 -78 -30.5 -152.5t-86 -132.5t-133 -93.5t-171.5 -35.5z" />
    <glyph glyph-name="Ocircumflex" unicode="&#xd4;" horiz-adv-x="832" 
d="M484 912h144l81 -157h-110l-61 66l-97 -66h-122zM405 130q55 0 100 24t76.5 61.5t49 84.5t17.5 92q0 39 -11.5 71.5t-34 56.5t-56 37t-76.5 13q-55 0 -100 -24t-76.5 -61.5t-49 -84.5t-17.5 -92q0 -39 11.5 -71.5t34 -56.5t56 -37t76.5 -13zM387 -12q-72 0 -131 23.5
t-101 65.5t-65 98.5t-23 122.5q0 78 30.5 152.5t86 132.5t133 93.5t171.5 35.5q72 0 131 -23.5t101 -65.5t65 -98.5t23 -122.5q0 -78 -30.5 -152.5t-86 -132.5t-133 -93.5t-171.5 -35.5z" />
    <glyph glyph-name="Ograve" unicode="&#xd2;" horiz-adv-x="832" 
d="M377 875l134 57l65 -177h-104zM405 130q55 0 100 24t76.5 61.5t49 84.5t17.5 92q0 39 -11.5 71.5t-34 56.5t-56 37t-76.5 13q-55 0 -100 -24t-76.5 -61.5t-49 -84.5t-17.5 -92q0 -39 11.5 -71.5t34 -56.5t56 -37t76.5 -13zM387 -12q-72 0 -131 23.5t-101 65.5t-65 98.5
t-23 122.5q0 78 30.5 152.5t86 132.5t133 93.5t171.5 35.5q72 0 131 -23.5t101 -65.5t65 -98.5t23 -122.5q0 -78 -30.5 -152.5t-86 -132.5t-133 -93.5t-171.5 -35.5z" />
    <glyph glyph-name="Uacute" unicode="&#xda;" horiz-adv-x="764" 
d="M579 932l128 -57l-161 -120h-128zM343 -11q-61 0 -109.5 16t-82.5 46t-52 74t-18 100q0 52 17 112l97 363h154l-101 -377q-5 -18 -8 -36t-3 -40q0 -52 31 -84t91 -32q68 0 114 44q46 46 68 130l106 395h154l-112 -417q-36 -136 -108 -208q-43 -43 -101.5 -64.5
t-136.5 -21.5z" />
    <glyph glyph-name="Ucircumflex" unicode="&#xdb;" horiz-adv-x="764" 
d="M468 912h144l81 -157h-110l-61 66l-97 -66h-122zM343 -11q-61 0 -109.5 16t-82.5 46t-52 74t-18 100q0 52 17 112l97 363h154l-101 -377q-5 -18 -8 -36t-3 -40q0 -52 31 -84t91 -32q68 0 114 44q46 46 68 130l106 395h154l-112 -417q-36 -136 -108 -208
q-43 -43 -101.5 -64.5t-136.5 -21.5z" />
    <glyph glyph-name="Ugrave" unicode="&#xd9;" horiz-adv-x="764" 
d="M368 875l134 57l65 -177h-104zM343 -11q-61 0 -109.5 16t-82.5 46t-52 74t-18 100q0 52 17 112l97 363h154l-101 -377q-5 -18 -8 -36t-3 -40q0 -52 31 -84t91 -32q68 0 114 44q46 46 68 130l106 395h154l-112 -417q-36 -136 -108 -208q-43 -43 -101.5 -64.5t-136.5 -21.5
z" />
    <glyph glyph-name="dotlessi" unicode="&#x131;" horiz-adv-x="302" 
d="M147 536h152l-144 -536h-152z" />
    <glyph glyph-name="circumflex" unicode="&#x2c6;" 
d="M308 752h144l81 -157h-110l-61 66l-97 -66h-122z" />
    <glyph glyph-name="tilde" unicode="&#x2dc;" 
d="M140 628q26 59 65.5 96t87.5 37q26 0 44 -8t35 -21q20 -14 30.5 -20t22.5 -6q23 0 39.5 16.5t30.5 42.5l80 -40q-26 -59 -65.5 -96t-87.5 -37q-26 0 -43.5 8t-35.5 21q-20 14 -30.5 20t-22.5 6q-23 0 -39.5 -16.5t-30.5 -42.5z" />
    <glyph glyph-name="macron" unicode="&#xaf;" 
d="M187 705h360l-28 -105h-360z" />
    <glyph glyph-name="macron" unicode="&#x2c9;" 
d="M187 705h360l-28 -105h-360z" />
    <glyph glyph-name="breve" unicode="&#x2d8;" 
d="M359 593q-44 0 -76 13t-53 34.5t-31 49.5t-10 57v5h104q2 -24 22 -42t55 -18q27 0 51.5 18t41.5 42h105q-12 -36 -33 -65.5t-48.5 -50.5t-60.5 -32t-67 -11z" />
    <glyph glyph-name="dotaccent" unicode="&#x2d9;" 
d="M301 730h150l-37 -135h-150z" />
    <glyph glyph-name="ring" unicode="&#x2da;" 
d="M359 648q15 0 27.5 6.5t21.5 17.5t14 25t5 29q0 21 -12.5 35.5t-35.5 14.5q-15 0 -27.5 -6.5t-21.5 -17.5t-14 -25t-5 -29q0 -21 12.5 -35.5t35.5 -14.5zM357 593q-51 0 -80.5 30t-29.5 74q0 27 10.5 51.5t28.5 42.5t42.5 29t52.5 11q51 0 80.5 -30t29.5 -74
q0 -27 -10.5 -51.5t-28.5 -42.5t-42.5 -29t-52.5 -11z" />
    <glyph glyph-name="cedilla" unicode="&#xb8;" 
d="M44 -120l124 130h112l-123 -183z" />
    <glyph glyph-name="hungarumlaut" unicode="&#x2dd;" 
d="M282 772l113 -57l-161 -120h-111zM479 772l113 -57l-163 -120h-111z" />
    <glyph glyph-name="ogonek" unicode="&#x2db;" 
d="M232 -164q-85 -7 -130 14t-45 66q0 22 11.5 47.5t26.5 46.5h104q-20 -35 -20 -60q0 -21 16.5 -33t54.5 -14z" />
    <glyph glyph-name="caron" unicode="&#x2c7;" 
d="M181 752h110l61 -66l97 66h122l-165 -157h-144z" />
    <glyph glyph-name="Lslash" unicode="&#x141;" horiz-adv-x="657" 
d="M113 262l-81 -22l39 143l81 22l79 295h149l-67 -250l210 58l-38 -143l-210 -58l-45 -167h354l-38 -140h-503z" />
    <glyph glyph-name="lslash" unicode="&#x142;" horiz-adv-x="359" 
d="M109 279l-81 -22l38 143l81 22l83 308h152l-71 -262l81 22l-38 -143l-81 -22l-87 -325h-152z" />
    <glyph glyph-name="Scaron" unicode="&#x160;" horiz-adv-x="636" 
d="M277 912h110l61 -66l97 66h122l-165 -157h-144zM295 -10q-205 0 -305 129l116 98q42 -45 89 -68.5t107 -23.5q47 0 77 20t30 53q0 13 -5.5 23.5t-19 21t-36.5 22t-58 25.5q-34 14 -65 30.5t-55 39t-38 51.5t-14 68q0 54 22.5 96.5t60.5 72.5t88.5 46t106.5 16
q91 0 154 -28t108 -76l-106 -106q-40 37 -78.5 56t-89.5 19q-49 0 -75.5 -22.5t-26.5 -48.5q0 -14 6 -24.5t20 -20.5t37.5 -21t59.5 -26t66.5 -32t53 -39t35.5 -51t13 -67q0 -55 -23 -98.5t-61 -73.5t-88.5 -45.5t-105.5 -15.5z" />
    <glyph glyph-name="scaron" unicode="&#x161;" 
d="M181 752h110l61 -66l97 66h122l-165 -157h-144zM217 -12q-30 0 -63 6t-64.5 18t-60.5 30t-53 43l88 91q42 -42 85 -57t79 -15q30 0 47 12t17 35q0 15 -17 26.5t-45 23.5q-32 13 -60 27.5t-49.5 32.5t-34 41.5t-12.5 55.5q0 40 15 74.5t42.5 59.5t67.5 39.5t90 14.5
q33 0 63.5 -6.5t58 -17.5t50 -24.5t39.5 -28.5l-82 -96q-39 31 -73 44t-67 13q-28 0 -43.5 -12t-15.5 -33q0 -16 18.5 -28.5t52.5 -27.5l52.5 -25t47.5 -31t34 -41.5t13 -54.5q0 -44 -16.5 -79t-45.5 -59.5t-69.5 -37.5t-88.5 -13z" />
    <glyph glyph-name="Yacute" unicode="&#xdd;" horiz-adv-x="650" 
d="M520 932l128 -57l-161 -120h-128zM243 276l-145 424h171l82 -290l240 290h186l-383 -438l-71 -262h-154z" />
    <glyph glyph-name="yacute" unicode="&#xfd;" horiz-adv-x="592" 
d="M456 772l128 -57l-161 -120h-128zM85 -163q-42 0 -71 10t-54 27l81 110q12 -9 28 -15t31 -6q17 0 30 6.5t29 26.5l-66 540h155l25 -364l201 364h164l-332 -549q-26 -41 -51 -69.5t-51.5 -46.5t-55.5 -26t-63 -8z" />
    <glyph glyph-name="Thorn" unicode="&#xde;" horiz-adv-x="689" 
d="M337 245q77 0 124 32.5t47 92.5q0 35 -23 58q-16 16 -38.5 23.5t-57.5 7.5h-100l-57 -214h105zM200 700h154l-27 -102h68q75 0 128.5 -16.5t91.5 -54.5q54 -54 54 -144q0 -65 -26.5 -116t-72 -86t-107.5 -53t-134 -18h-133l-30 -110h-154z" />
    <glyph glyph-name="thorn" unicode="&#xfe;" horiz-adv-x="674" 
d="M317 118q31 0 59.5 14t50.5 39.5t35.5 59.5t13.5 75q0 53 -30.5 82.5t-81.5 29.5q-32 0 -61 -14.5t-51.5 -40t-36 -59.5t-13.5 -72q0 -51 32 -82.5t83 -31.5zM192 730h152l-68 -252q35 32 70.5 50t80.5 18q44 0 81.5 -15.5t65.5 -45t43.5 -72.5t15.5 -97q0 -71 -25 -131
t-66.5 -103.5t-94.5 -67.5t-110 -24q-63 0 -102.5 24t-65.5 64l-63 -238h-152z" />
    <glyph glyph-name="Zcaron" unicode="&#x17d;" horiz-adv-x="689" 
d="M310 912h110l61 -66l97 66h122l-165 -157h-144zM12 117l492 448h-360l37 135h568l-32 -117l-492 -448h375l-36 -135h-583z" />
    <glyph glyph-name="zcaron" unicode="&#x17e;" horiz-adv-x="557" 
d="M199 752h110l61 -66l97 66h122l-165 -157h-144zM2 107l351 306h-260l33 123h454l-29 -107l-352 -306h273l-33 -123h-466z" />
    <glyph glyph-name="eth" unicode="&#xf0;" horiz-adv-x="638" 
d="M295 116q32 0 58.5 12.5t45.5 33.5t29.5 47.5t10.5 54.5q0 51 -31 82.5t-82 31.5q-31 0 -57 -12t-45 -32t-30 -46.5t-11 -55.5q0 -55 32 -85.5t80 -30.5zM286 -12q-55 0 -100.5 17t-78.5 47.5t-51 74t-18 96.5q0 55 21 103t56.5 83.5t83 56t101.5 20.5q49 0 84.5 -15
t66.5 -44l-67 145l-135 -49l-36 75l137 50l-38 82h150l16 -35l118 43l35 -75l-120 -44l38 -86q22 -50 33 -99.5t11 -105.5q0 -71 -20.5 -132.5t-60 -108t-96.5 -73t-130 -26.5z" />
    <glyph glyph-name="apple" horiz-adv-x="967" 
d="M417 64q0 -7 -2.5 -12t-9.5 -5q-6 0 -9 5t-3 12q0 16 12 16t12 -16zM352 64h-3q-8 0 -8 8q0 6 7 6q4 0 4 -4v-10zM553 79q4 0 0 -9q-5 9 0 9zM393 182q0 -7 -4 -7h-5q-11 0 -18.5 10t-7.5 22q0 17 14 17h6q3 -1 3.5 -1.5t2.5 -5.5zM716 187q0 -13 -11 -13q-9 0 -17 11.5
t-8 26.5q0 14 11 14q9 0 17 -11.5t8 -27.5zM275 200q-8 0 -11.5 5t-3.5 10q0 9 8 9t9 -5l3 -19h-5zM381 384q-13 0 -13 11t13 11h11v-22h-11zM684 535q0 -13 -11 -13q-9 0 -17 11.5t-8 26.5q0 14 11 14q9 0 17 -11.5t8 -27.5zM272 553q-3 -4 -7 -4t-4 2q0 3 4 3q5 0 7 -1z
M566 553q-3 -4 -7 -4t-4 2q0 3 4 3q5 0 7 -1zM171 548q-8 0 -11.5 5t-3.5 10q0 9 8 9t9 -5l3 -19h-5zM441 -88q0 13 -11 13t-11 -12q0 -13 11 -13t11 12zM800 -88q0 13 -11 13t-11 -12q0 -13 11 -13t11 12zM559 -80l-5 -12h10zM394 -83q0 8 -11 7v-13q11 0 11 6zM525 -82
q0 8 -11 6v-12q11 -1 11 6zM606 -83q0 8 -11 7v-13q11 0 11 6zM309 48q-2 0 -3 1q-3 1 -3 5v20q0 2 3 4q1 1 3 1v2h-18v-2q1 0 3 -1q3 -3 3 -4v-9q-2 0 -4 2l-8 8q-3 1 -1 3q1 1 2 1v2h-14v-2q1 0 3 -1t2.5 -1.5t2.5 -1.5l10 -9l-13 -13q-1 -1 -2 -1.5t-2 -1.5q-2 -1 -3 -2
v-2h17v2q-2 0 -3 1t1 4l8 8q2 2 4 2v-9q0 -2 -3 -5q-2 -1 -3 -1v-2h18v2zM364 48q-2 0 -3 1q-2 2 -2 4v20q0 3 2 5q1 1 3 1v2h-18q-13 0 -13 -9q0 -5 9 -9l-7 -10q-2 -2 -3.5 -2.5t-2.5 -1.5l-2 -1v-2h11l7 12q3 4 7 4v-9q0 -2 -1 -2.5t-2 -1.5t-2 -1v-2h17v2zM425 64
q0 8 -5 13t-15 5t-15 -5t-5 -13t5 -13.5t15 -5.5t15 5.5t5 13.5zM480 81h-15v-2q1 0 2 -1t-1 -4l-6 -9l-6 9q-2 2 0 4q1 1 3 1v2h-15v-2q1 0 3 -1t5 -4l8 -12v-8q0 -2 -3 -5q-1 -1 -2 -1v-2h17v2q-2 0 -3 1q-2 2 -2 5v8l8 12q1 2 2.5 2.5t2.5 1.5t2 1v2zM568 81v-2q1 0 2 -1
t0 -4l-9 -19l-5 10l4 8q1 2 2 2.5t2 1.5l2 2v2h-26l1 -2q1 0 2 -1l2 -2l3 -3l3 -5l-7 -13l-8 18q-2 3 0 5q1 1 2 1v2h-13v-2q1 0 2 -1q3 -3 4 -5l13 -27h1q1 -1 1 0l8 16l9 -16h1l12 27q1 2 2.5 3t2.5 2t2 1v2h-15zM633 48q-2 -1 -3 0q-2 0 -2 5v21q0 3 2 5h3v2h-29l-2 -10
l2 -1q0 2 2 4q2 4 7 4h4q4 0 4 -3v-10h-4q-3 0 -5 2q-1 1 -1 3h-2v-13h2q0 1 1 3q3 3 5 3h4v-11q0 -3 -4 -3h-4q-4 0 -8 4q-2 2 -2 5l-2 -1l2 -11h30v2zM694 48q-2 0 -3 1q-3 1 -3 4v20q0 2 3 4q1 1 3 2v2h-10l-24 -26v18q0 3 3 5q1 1 3 1v2h-15v-2q1 0 3 -1q3 -3 3 -5v-28
h3l25 28v-20q0 -1 -3 -4q-1 -1 -2 -1v-2h14v2zM827 133h-685v-6h685v6zM306 174q-2 0 -4 1t-3.5 2t-2.5 5l-7 35q-1 5 3 7q2 1 4 1l-1 3h-27q-20 0 -20 -15q0 -6 5.5 -10t13.5 -5l-9 -16q-2 -4 -4.5 -5t-4.5 -2q-3 -1 -5 -1l1 -3h19l12 23q1 3 5 3l3 -15q1 -5 -3 -7
q-2 -1 -4 -1l1 -3h29zM413 175q-2 -1 -4 0q-5 2 -6 9l-8 31q-3 9 8 10l-1 3h-30q-9 0 -17 -5.5t-8 -16.5q0 -16 11 -25.5t24 -9.5h32zM522 174q-1 0 -3 1q-5 2 -6 9l-7 32q-1 6 3 8q2 1 5 1l-1 3h-14l-29 -42l-5 30q-1 6 3 8q2 1 4 1l-1 3h-21l1 -3q2 0 4 -1q3 -2 5 -8
l8 -45l3 -1l30 44l6 -30q1 -7 -2 -9q-2 -1 -4 -1l1 -3h21zM620 228h-29l1 -3q2 0 4 -1q5 -2 6 -8l5 -21q2 -10 1 -15t-12 -5q-8 0 -13 6.5t-7 15.5l-4 19q-1 7 3 9q2 1 4 0v3h-24l1 -3q2 0 5 -1q5 -2 6 -8l4 -19q2 -8 8 -17.5t20 -9.5q17 0 19 8t0 16l-5 22q-2 4 -0.5 6
t3.5 3t5 0zM822 174q-2 0 -4 1t-3.5 2t-2.5 5l-7 35q-1 5 3 7q2 1 4 1l-1 3h-45v-10v-7h4q-1 3 1 6q2 7 12 7h4q5 0 6 -6l3 -16h-4q-5 0 -9 4q-2 2 -3 5h-3l5 -23h3q0 2 1 5q2 6 7 6h4l3 -17q1 -5 -3 -7q-2 -1 -4 -1l1 -3h29zM203 217q-3 5 -6.5 9t-11.5 4q-15 0 -14 -23
q-3 10 -8 16.5t-13 6.5q-5 0 -8.5 -3t-3.5 -9l3 -1q0 6 8 6q10 0 15.5 -10.5t8.5 -22.5q2 -7 1 -9.5t-3 -4.5t-4 -1l1 -4h28l-1 4q-2 -1 -4 0q-5 2 -6 9q-5 17 -5 25q0 13 9 13q5 0 7.5 -2.5l4.5 -4.5zM728 192q0 15 -11.5 26.5t-25.5 11.5q-7 0 -15 -5t-8 -17
q0 -16 11.5 -27t25.5 -11q7 0 15 5t8 17zM827 277h-685v-6h685v6zM283 341h-14v65h14v34h-141v-62h41v28h33v-20h-24v-24h24v-21h-33v28h-41v-61h141v33zM458 341h-14v65h14v34h-96q-22 0 -34.5 -11.5t-12.5 -28.5t12.5 -28.5t34.5 -11.5h30v-19h-15v-33h81v33zM648 440h-81
v-34h11l-15 -23l-15 23h10v34h-62v-34h12l37 -46v-19h-14v-33h81v33h-15v20l37 45h14v34zM827 440h-147v-62h36v28h11v-65h-14v-33h81v33h-14v65h11v-28h36v62zM827 481h-685v-6h685v6zM400 521q0 2 -3 5t-10 4q-4 3 -4.5 10.5t-2 16t-6 15t-16.5 6.5q-5 0 -9 -3.5t-4 -6.5
q0 -5 5 -5q4 0 4 6t5 6t6.5 -5t2.5 -12t3.5 -14.5t8.5 -13.5q-11 0 -14.5 -6.5t-8.5 -6.5t-5 4q0 2 1 2.5t1 2.5q0 5 -5 5t-5 -7q0 -5 5 -8.5t10 -3.5q13 0 15 6.5t10 6.5q3 -7 12 -7q4 0 4 3zM202 522q-2 0 -4 1t-3.5 2t-2.5 5l-7 35q-1 5 3 7q2 1 4 1l-1 3h-27
q-20 0 -20 -15q0 -6 5.5 -10t13.5 -5l-9 -16q-2 -4 -4.5 -5t-4.5 -2q-3 -1 -5 -1l1 -3h19l12 23q1 3 5 3l3 -15q1 -5 -3 -7q-2 -1 -4 -1l1 -3h29zM497 522q-2 0 -4 1t-3.5 2t-2.5 5l-7 35q-1 5 3 7q2 1 4 1l-1 3h-45v-10v-7h4q-1 3 1 6q2 7 12 7h4q5 0 6 -6l3 -16h-4
q-5 0 -9 4q-2 2 -3 5h-3l5 -23h3q0 2 1 5q2 6 7 6h4l3 -17q1 -5 -3 -7q-2 -1 -4 -1l1 -3h29zM820 522q-2 0 -4 1t-3.5 2t-2.5 5l-7 35q-1 5 3 7q2 1 4 1l-1 3h-28l1 -3q2 0 4 -1q4 -2 5 -7l3 -15h-24l-3 15q-1 5 3 7q2 1 4 1l-1 3h-29l1 -3q2 0 4 -1q5 -2 6 -7l7 -35
q1 -5 -3 -7q-2 -1 -4 -1l1 -3h29l-1 3q-2 0 -4 1t-3.5 2t-2.5 5l-3 16h24l3 -16q1 -5 -3 -7q-2 -1 -4 -1l1 -3h29zM295 537q0 12 -14 17q5 3 5 9q0 5 -5 10t-16 5q-13 0 -13 -11q0 -6 5 -6q4 0 4 3t-1.5 3.5t-1.5 2.5q0 5 7 5q10 0 10 -12q0 -4 -2 -6q-16 2 -16 -6
q0 -6 8 -6q6 0 11 5q6 -5 6 -15q0 -14 -12 -14t-12 9q0 3 3 3q1 0 2 -1t3 -1q4 0 4 5t-7 5q-9 0 -9 -10q0 -13 16 -13q13 0 19 5.5t6 13.5zM589 537q0 12 -14 17q5 3 5 9q0 5 -5 10t-16 5q-13 0 -13 -11q0 -6 5 -6q4 0 4 3t-1.5 3.5t-1.5 2.5q0 5 7 5q10 0 10 -12
q0 -4 -2 -6q-16 2 -16 -6q0 -6 8 -6q6 0 11 5q6 -5 6 -15q0 -14 -12 -14t-12 9q0 3 3 3q1 0 2 -1t3 -1q4 0 4 5t-7 5q-9 0 -9 -10q0 -13 16 -13q13 0 19 5.5t6 13.5zM696 540q0 15 -11.5 26.5t-25.5 11.5q-7 0 -15 -5t-8 -17q0 -16 11.5 -27t25.5 -11q7 0 15 5t8 17z
M827 624h-685v-6h685v6zM439 664q-2 -1 -3 0q-2 0 -2 5v21q0 3 2 5h3v2h-29l-2 -10l2 -1q0 2 2 4q2 4 7 4h4q4 0 4 -3v-10h-4q-3 0 -5 2q-1 1 -1 3h-2v-13h2q0 1 1 3q3 3 5 3h4v-11q0 -3 -4 -3h-4q-4 0 -8 4q-2 2 -2 5l-2 -1l2 -11h30v2zM504 664q-2 -1 -3 0q-3 0 -3 5v21
q0 3 3 5h3v2h-18v-1v-1h2q3 -3 3 -5v-9h-17v9q0 3 2 5h3v1v1h-17v-2h2q3 -3 3 -5v-21q0 -2 -1 -2.5t-2 -1.5t-2 -1v-2h17v2q-2 0 -3 1q-2 2 -2 4v10h17v-10q0 -5 -3 -5q-1 -1 -2 0v-2h18v2zM559 686v4q0 2 -0.5 4t-0.5 4q-2 -1 -17 -1t-18 1q0 -2 -0.5 -4t-0.5 -4v-4h2
q1 2 3 4q5 5 7 5q3 0 3 -3v-23q0 -5 -3 -5q-1 -1 -2 0v-2h17v2q-2 -1 -3 0q-2 0 -2 5v23q0 3 3 3t8 -5q2 -2 2 -4h2zM284 -101q0 -4 -4 -4t-4 4t4 4t4 -4zM716 -101q0 -4 -4 -4t-4 4t4 4t4 -4zM143 -105h-1l-11 23l-10 -23h-1l-12 34l6 1l7 -23l10 23h1l10 -23l7 22h6z
M199 -105h-1l-11 23l-10 -23h-1l-12 34l6 1l7 -23l10 23h1l10 -23l7 22h6zM255 -105h-1l-11 23l-10 -23h-1l-12 34l6 1l7 -23l10 23h1l10 -23l7 22h6zM323 -76h-12v-28h-6v28h-12v5h30v-5zM351 -90v-14h-6v14l-14 19l6 1l11 -15l9 14h7zM400 -82q0 -12 -17 -12v-10h-6v33
q14 2 18.5 -2t4.5 -9zM447 -87q0 -8 -4.5 -13t-12.5 -5t-12.5 5t-4.5 12q0 8 5 13t13 5q7 0 11.5 -5t4.5 -12zM491 -101q-6 -4 -13 -4q-8 0 -13 4.5t-5 12.5t5.5 13t13.5 5q6 0 12 -4l-2 -5q-4 4 -11 4q-12 0 -12 -13q0 -12 13 -12q2 0 6 2v7h-9v5h15v-15zM527 -104l-8 11
h-5v-11h-6v33q14 2 18.5 -1.5t4.5 -8.5q0 -7 -7 -10l10 -13h-7zM570 -104l-4 8h-14l-3 -8h-6l15 34h2l16 -34h-6zM612 -82q0 -12 -17 -12v-10h-6v33q14 2 18.5 -2t4.5 -9zM650 -104v15h-16v-15h-6v33h6v-13h16v13h6v-33h-6zM689 -90v-14h-6v14l-14 19l6 1l11 -15l9 14h7z
M757 -102q-3 -3 -10 -3q-18 0 -18 17q0 8 5 13t13 5q6 0 11 -3l-2 -5q-3 3 -9 3q-5 0 -8.5 -3.5t-3.5 -8.5q0 -13 13 -13q4 0 10 4zM806 -87q0 -8 -4.5 -13t-12.5 -5t-12.5 5t-4.5 12q0 8 5 13t13 5q7 0 11.5 -5t4.5 -12zM853 -104l-3 20l-10 -21h-2l-10 21l-3 -20h-6l6 34
h1l13 -26l13 26h1l6 -34h-6zM101 0v750h767v-750h-767z" />
    <glyph glyph-name="Eth" unicode="&#xd0;" horiz-adv-x="797" 
d="M310 139q70 0 131 21.5t103 63.5q34 34 52 79t18 96q0 70 -41 111q-23 23 -62 37t-99 14h-75l-38 -141h142l-37 -136h-142l-39 -145h87zM108 284h-83l37 136h83l75 280h204q102 0 168 -25t106 -65q76 -76 76 -205q0 -79 -29 -149t-86 -127q-63 -63 -154 -96t-213 -33
h-260z" />
  </font>
</defs>
</svg>
